<svg width="13" height="14" viewBox="0 0 13 14" fill="none" xmlns="http://www.w3.org/2000/svg">
<g clip-path="url(#clip0_212_327)">
<path d="M0.541667 3.30977H12.4583C12.602 3.30977 12.7398 3.2527 12.8413 3.15112C12.9429 3.04954 13 2.91176 13 2.76811C13 2.62445 12.9429 2.48667 12.8413 2.38509C12.7398 2.28351 12.602 2.22644 12.4583 2.22644H0.541667C0.398008 2.22644 0.260233 2.28351 0.15865 2.38509C0.0570683 2.48667 0 2.62445 0 2.76811C0 2.91176 0.0570683 3.04954 0.15865 3.15112C0.260233 3.2527 0.398008 3.30977 0.541667 3.30977Z" fill="#25262D"/>
<path d="M12.4583 4.93481H0.541667C0.398008 4.93481 0.260233 4.99188 0.15865 5.09346C0.0570683 5.19505 0 5.33282 0 5.47648C0 5.62014 0.0570683 5.75791 0.15865 5.8595C0.260233 5.96108 0.398008 6.01815 0.541667 6.01815H12.4583C12.602 6.01815 12.7398 5.96108 12.8413 5.8595C12.9429 5.75791 13 5.62014 13 5.47648C13 5.33282 12.9429 5.19505 12.8413 5.09346C12.7398 4.99188 12.602 4.93481 12.4583 4.93481Z" fill="#25262D"/>
<path d="M12.4583 10.3514H0.541667C0.398008 10.3514 0.260233 10.4085 0.15865 10.5101C0.0570683 10.6117 0 10.7494 0 10.8931C0 11.0368 0.0570683 11.1745 0.15865 11.2761C0.260233 11.3777 0.398008 11.4348 0.541667 11.4348H12.4583C12.602 11.4348 12.7398 11.3777 12.8413 11.2761C12.9429 11.1745 13 11.0368 13 10.8931C13 10.7494 12.9429 10.6117 12.8413 10.5101C12.7398 10.4085 12.602 10.3514 12.4583 10.3514Z" fill="#25262D"/>
<path d="M12.4583 7.64319H0.541667C0.398008 7.64319 0.260233 7.70026 0.15865 7.80184C0.0570683 7.90342 0 8.0412 0 8.18486C0 8.32852 0.0570683 8.46629 0.15865 8.56788C0.260233 8.66946 0.398008 8.72653 0.541667 8.72653H12.4583C12.602 8.72653 12.7398 8.66946 12.8413 8.56788C12.9429 8.46629 13 8.32852 13 8.18486C13 8.0412 12.9429 7.90342 12.8413 7.80184C12.7398 7.70026 12.602 7.64319 12.4583 7.64319Z" fill="#25262D"/>
</g>
<defs>
<clipPath id="clip0_212_327">
<rect width="13" height="13" fill="white" transform="translate(0 0.0598145)"/>
</clipPath>
</defs>
</svg>
