<svg width="18" height="17" viewBox="0 0 18 17" fill="none" xmlns="http://www.w3.org/2000/svg">
<path d="M16.7804 12.7783C16.5042 12.6579 16.4263 12.8315 15.5833 13.6673L14.7723 12.8527C14.7394 12.8195 14.7002 12.7932 14.657 12.7752C14.6139 12.7572 14.5676 12.7479 14.5208 12.7479C14.4741 12.7479 14.4278 12.7572 14.3846 12.7752C14.3415 12.7932 14.3023 12.8195 14.2694 12.8527C14.1206 13.005 14.1667 14.1313 14.1667 2.47917C14.1667 1.82165 13.9055 1.19106 13.4405 0.726131C12.9756 0.261197 12.345 0 11.6875 0L1.77083 0C1.30118 0 0.850761 0.186569 0.518665 0.518665C0.186569 0.850761 0 1.30118 0 1.77083L0 3.89583C0 3.98976 0.0373139 4.07985 0.103733 4.14627C0.170152 4.21269 0.260236 4.25 0.354167 4.25H2.83333V15.2292C2.83333 15.4617 2.87914 15.692 2.96813 15.9068C3.05712 16.1217 3.18756 16.3169 3.352 16.4813C3.51644 16.6458 3.71165 16.7762 3.9265 16.8652C4.14135 16.9542 4.37162 17 4.60417 17H15.2292C15.4617 17 15.692 16.9542 15.9068 16.8652C16.1217 16.7762 16.3169 16.6458 16.4813 16.4813C16.6458 16.3169 16.7762 16.1217 16.8652 15.9068C16.9542 15.692 17 15.4617 17 15.2292C17 12.9731 17.0744 12.8952 16.7804 12.7783ZM2.83333 3.54167H0.708333V1.77083C0.708333 1.48904 0.820275 1.21879 1.01953 1.01953C1.21879 0.820275 1.48904 0.708333 1.77083 0.708333C2.05263 0.708333 2.32288 0.820275 2.52213 1.01953C2.72139 1.21879 2.83333 1.48904 2.83333 1.77083V3.54167ZM5.88625 12.7783C5.59938 12.8917 5.66667 12.9483 5.66667 15.2292C5.66667 15.511 5.55473 15.7812 5.35547 15.9805C5.15621 16.1797 4.88596 16.2917 4.60417 16.2917C4.32238 16.2917 4.05212 16.1797 3.85287 15.9805C3.65361 15.7812 3.54167 15.511 3.54167 15.2292C3.54167 0.708333 3.69042 1.38125 3.1875 0.708333H11.6875C12.1572 0.708333 12.6076 0.894903 12.9397 1.227C13.2718 1.55909 13.4583 2.00951 13.4583 2.47917V13.6673L12.6473 12.8527C12.6144 12.8195 12.5752 12.7932 12.532 12.7752C12.4889 12.7572 12.4426 12.7479 12.3958 12.7479C12.3491 12.7479 12.3028 12.7572 12.2596 12.7752C12.2165 12.7932 12.1773 12.8195 12.1444 12.8527L11.3333 13.6673L10.5223 12.8527C10.4894 12.8195 10.4502 12.7932 10.407 12.7752C10.3639 12.7572 10.3176 12.7479 10.2708 12.7479C10.2241 12.7479 10.1778 12.7572 10.1346 12.7752C10.0915 12.7932 10.0523 12.8195 10.0194 12.8527L9.20834 13.6673L8.39729 12.8527C8.36437 12.8195 8.3252 12.7932 8.28204 12.7752C8.23888 12.7572 8.19259 12.7479 8.14584 12.7479C8.09908 12.7479 8.05279 12.7572 8.00963 12.7752C7.96647 12.7932 7.9273 12.8195 7.89438 12.8527L7.08333 13.6673L6.27229 12.8527C6.22249 12.8036 6.15924 12.7703 6.09054 12.757C6.02183 12.7438 5.95075 12.7512 5.88625 12.7783V12.7783ZM16.2917 15.2292C16.2917 15.511 16.1797 15.7812 15.9805 15.9805C15.7812 16.1797 15.511 16.2917 15.2292 16.2917H6.02083C6.48833 15.679 6.375 15.1831 6.375 13.9577L6.83188 14.4181C6.8648 14.4513 6.90397 14.4777 6.94713 14.4956C6.99029 14.5136 7.03658 14.5229 7.08333 14.5229C7.13009 14.5229 7.17638 14.5136 7.21954 14.4956C7.2627 14.4777 7.30187 14.4513 7.33479 14.4181L8.14584 13.6035L8.95688 14.4181C8.9898 14.4513 9.02897 14.4777 9.07213 14.4956C9.11529 14.5136 9.16158 14.5229 9.20834 14.5229C9.25509 14.5229 9.30138 14.5136 9.34454 14.4956C9.3877 14.4777 9.42687 14.4513 9.45979 14.4181L10.2708 13.6035L11.0819 14.4181C11.1148 14.4513 11.154 14.4777 11.1971 14.4956C11.2403 14.5136 11.2866 14.5229 11.3333 14.5229C11.3801 14.5229 11.4264 14.5136 11.4695 14.4956C11.5127 14.4777 11.5519 14.4513 11.5848 14.4181L12.3958 13.6035L13.2069 14.4181C13.2398 14.4513 13.279 14.4777 13.3221 14.4956C13.3653 14.5136 13.4116 14.5229 13.4583 14.5229C13.5051 14.5229 13.5514 14.5136 13.5945 14.4956C13.6377 14.4777 13.6769 14.4513 13.7098 14.4181L14.5208 13.6035L15.3319 14.4181C15.3648 14.4513 15.404 14.4777 15.4471 14.4956C15.4903 14.5136 15.5366 14.5229 15.5833 14.5229C15.6301 14.5229 15.6764 14.5136 15.7195 14.4956C15.7627 14.4777 15.8019 14.4513 15.8348 14.4181L16.2917 13.9577V15.2292Z" fill="white"/>
<path d="M4.95841 9.20833H8.85425C8.94818 9.20833 9.03826 9.17102 9.10468 9.1046C9.1711 9.03818 9.20841 8.9481 9.20841 8.85417C9.20841 8.76024 9.1711 8.67015 9.10468 8.60373C9.03826 8.53731 8.94818 8.5 8.85425 8.5H4.95841C4.86448 8.5 4.7744 8.53731 4.70798 8.60373C4.64156 8.67015 4.60425 8.76024 4.60425 8.85417C4.60425 8.9481 4.64156 9.03818 4.70798 9.1046C4.7744 9.17102 4.86448 9.20833 4.95841 9.20833V9.20833Z" fill="white"/>
<path d="M10.6249 9.20833H12.0416C12.1355 9.20833 12.2256 9.17102 12.292 9.1046C12.3584 9.03818 12.3958 8.9481 12.3958 8.85417C12.3958 8.76024 12.3584 8.67015 12.292 8.60373C12.2256 8.53731 12.1355 8.5 12.0416 8.5H10.6249C10.531 8.5 10.4409 8.53731 10.3745 8.60373C10.3081 8.67015 10.2708 8.76024 10.2708 8.85417C10.2708 8.9481 10.3081 9.03818 10.3745 9.1046C10.4409 9.17102 10.531 9.20833 10.6249 9.20833Z" fill="white"/>
<path d="M4.95841 11.3333H8.85425C8.94818 11.3333 9.03826 11.296 9.10468 11.2296C9.1711 11.1632 9.20841 11.0731 9.20841 10.9792C9.20841 10.8852 9.1711 10.7952 9.10468 10.7287C9.03826 10.6623 8.94818 10.625 8.85425 10.625H4.95841C4.86448 10.625 4.7744 10.6623 4.70798 10.7287C4.64156 10.7952 4.60425 10.8852 4.60425 10.9792C4.60425 11.0731 4.64156 11.1632 4.70798 11.2296C4.7744 11.296 4.86448 11.3333 4.95841 11.3333V11.3333Z" fill="white"/>
<path d="M12.0416 10.625H10.6249C10.531 10.625 10.4409 10.6623 10.3745 10.7287C10.3081 10.7952 10.2708 10.8852 10.2708 10.9792C10.2708 11.0731 10.3081 11.1632 10.3745 11.2296C10.4409 11.296 10.531 11.3333 10.6249 11.3333H12.0416C12.1355 11.3333 12.2256 11.296 12.292 11.2296C12.3584 11.1632 12.3958 11.0731 12.3958 10.9792C12.3958 10.8852 12.3584 10.7952 12.292 10.7287C12.2256 10.6623 12.1355 10.625 12.0416 10.625Z" fill="white"/>
<path d="M8.85434 6.23325C8.67604 6.24195 8.50154 6.17982 8.36886 6.0604C8.23618 5.94099 8.15607 5.77397 8.146 5.59575C8.146 5.50182 8.10869 5.41174 8.04227 5.34532C7.97585 5.2789 7.88577 5.24159 7.79184 5.24159C7.13309 5.24159 7.40225 6.62284 8.50017 6.892V7.08325C8.50017 7.17718 8.53748 7.26727 8.6039 7.33369C8.67032 7.40011 8.76041 7.43742 8.85434 7.43742C8.94827 7.43742 9.03835 7.40011 9.10477 7.33369C9.17119 7.26727 9.2085 7.17718 9.2085 7.08325V6.892C9.53328 6.81695 9.81838 6.62343 10.008 6.3493C10.1977 6.07517 10.2782 5.74015 10.2339 5.40976C10.1897 5.07938 10.0237 4.7774 9.76856 4.5629C9.51341 4.34839 9.18742 4.23679 8.85434 4.24992C8.67604 4.25861 8.50154 4.19648 8.36886 4.07707C8.23618 3.95766 8.15607 3.79064 8.146 3.61242C8.146 3.42456 8.22063 3.24439 8.35347 3.11155C8.48631 2.97871 8.66647 2.90409 8.85434 2.90409C9.0422 2.90409 9.22237 2.97871 9.3552 3.11155C9.48804 3.24439 9.56267 3.42456 9.56267 3.61242C9.56267 3.70635 9.59998 3.79643 9.6664 3.86285C9.73282 3.92927 9.82291 3.96659 9.91684 3.96659C10.5756 3.96659 10.3064 2.58534 9.2085 2.31617V2.12492C9.2085 2.03099 9.17119 1.9409 9.10477 1.87449C9.03835 1.80807 8.94827 1.77075 8.85434 1.77075C8.76041 1.77075 8.67032 1.80807 8.6039 1.87449C8.53748 1.9409 8.50017 2.03099 8.50017 2.12492V2.31617C8.17539 2.39122 7.8903 2.58474 7.70065 2.85887C7.511 3.133 7.43044 3.46802 7.47473 3.79841C7.51901 4.12879 7.68496 4.43077 7.94011 4.64527C8.19526 4.85978 8.52126 4.97138 8.85434 4.95825C9.03263 4.94956 9.20713 5.01169 9.33982 5.1311C9.4725 5.25051 9.5526 5.41753 9.56267 5.59575C9.5526 5.77397 9.4725 5.94099 9.33982 6.0604C9.20713 6.17982 9.03263 6.24195 8.85434 6.23325Z" fill="white"/>
</svg>
