<svg width="8" height="9" viewBox="0 0 8 9" fill="none" xmlns="http://www.w3.org/2000/svg">
<g clip-path="url(#clip0_212_343)">
<path d="M7.58325 3.17105H5.08325V0.504381C5.08325 0.258923 4.8967 0.0599365 4.66658 0.0599365C4.43647 0.0599365 4.24992 0.258923 4.24992 0.504381V3.17105H1.74992C1.5198 3.17105 1.33325 3.37003 1.33325 3.61549C1.33325 3.86095 1.5198 4.05994 1.74992 4.05994H4.24992V6.7266C4.24992 6.97206 4.43647 7.17105 4.66658 7.17105C4.8967 7.17105 5.08325 6.97206 5.08325 6.7266V4.05994H7.58325C7.81337 4.05994 7.99992 3.86095 7.99992 3.61549C7.99992 3.37003 7.81337 3.17105 7.58325 3.17105Z" fill="#FCFCFC"/>
</g>
<defs>
<clipPath id="clip0_212_343">
<rect width="8" height="8" fill="white" transform="matrix(1 0 0 -1 0 8.05994)"/>
</clipPath>
</defs>
</svg>
