<svg xmlns="http://www.w3.org/2000/svg" fill="#999" viewBox="0 0 520.04 490"><g data-name="Layer 2"><g data-name="Layer 1"><path d="M435.5 105.32h-88.39V74.83A74.92 74.92 0 00272.28 0H74.83A74.92 74.92 0 000 74.83v349a74.92 74.92 0 0074.83 74.83h197.45a74.77 74.77 0 0018.13-2.23v2.23H435.5A84.63 84.63 0 00520 414.1V189.85a84.63 84.63 0 00-84.5-84.53zM74.83 466.64A42.87 42.87 0 0132 423.81v-349A42.87 42.87 0 0174.83 32h197.45a42.87 42.87 0 0142.83 42.83v349a42.87 42.87 0 01-42.83 42.83zM488 414.1a52.6 52.6 0 01-52.54 52.54H333.59a74.38 74.38 0 0013.52-42.83V137.32h88.39a52.59 52.59 0 0152.5 52.53z"/><rect width="59.29" height="59.29" x="91.5" y="100.93" rx="11.65" ry="11.65"/><rect width="59.29" height="59.29" x="196.32" y="100.93" rx="11.65" ry="11.65"/><rect width="59.29" height="59.29" x="91.5" y="206.59" rx="11.65" ry="11.65"/><rect width="59.29" height="59.29" x="196.32" y="206.59" rx="11.65" ry="11.65"/><rect width="59.29" height="59.29" x="91.5" y="312.24" rx="11.65" ry="11.65"/><rect width="59.29" height="59.29" x="196.32" y="312.24" rx="11.65" ry="11.65"/><rect width="59.29" height="59.29" x="385.4" y="194.79" rx="11.65" ry="11.65"/><rect width="59.29" height="59.29" x="385.4" y="312.72" rx="11.65" ry="11.65"/></g></g></svg>