<svg width="17" height="17" viewBox="0 0 17 17" fill="none" xmlns="http://www.w3.org/2000/svg">
<g clip-path="url(#clip0_26_214)">
<path d="M8.5 8.5C9.34057 8.5 10.1623 8.25074 10.8612 7.78375C11.5601 7.31675 12.1048 6.65299 12.4265 5.87641C12.7482 5.09982 12.8323 4.24529 12.6683 3.42087C12.5044 2.59645 12.0996 1.83917 11.5052 1.2448C10.9108 0.650425 10.1536 0.245652 9.32913 0.0816645C8.50471 -0.0823227 7.65018 0.00184147 6.8736 0.323514C6.09701 0.645186 5.43325 1.18992 4.96625 1.88883C4.49926 2.58774 4.25 3.40943 4.25 4.25C4.25113 5.37683 4.69925 6.45718 5.49604 7.25396C6.29282 8.05075 7.37318 8.49888 8.5 8.5ZM8.5 1.41667C9.06038 1.41667 9.60818 1.58284 10.0741 1.89417C10.5401 2.2055 10.9032 2.64801 11.1177 3.16573C11.3321 3.68346 11.3882 4.25314 11.2789 4.80276C11.1696 5.35237 10.8997 5.85722 10.5035 6.25347C10.1072 6.64972 9.60237 6.91957 9.05276 7.02889C8.50314 7.13822 7.93345 7.08211 7.41573 6.86766C6.89801 6.65321 6.4555 6.29006 6.14417 5.82412C5.83284 5.35818 5.66667 4.81038 5.66667 4.25C5.66667 3.49856 5.96518 2.77789 6.49653 2.24653C7.02788 1.71518 7.74855 1.41667 8.5 1.41667V1.41667Z" fill="white"/>
<path d="M8.5 9.91724C6.80982 9.91911 5.1894 10.5914 3.99426 11.7865C2.79913 12.9816 2.12687 14.6021 2.125 16.2922C2.125 16.4801 2.19963 16.6603 2.33247 16.7931C2.4653 16.9259 2.64547 17.0006 2.83333 17.0006C3.02119 17.0006 3.20136 16.9259 3.3342 16.7931C3.46704 16.6603 3.54167 16.4801 3.54167 16.2922C3.54167 14.9772 4.06406 13.716 4.99393 12.7862C5.9238 11.8563 7.18497 11.3339 8.5 11.3339C9.81503 11.3339 11.0762 11.8563 12.0061 12.7862C12.9359 13.716 13.4583 14.9772 13.4583 16.2922C13.4583 16.4801 13.533 16.6603 13.6658 16.7931C13.7986 16.9259 13.9788 17.0006 14.1667 17.0006C14.3545 17.0006 14.5347 16.9259 14.6675 16.7931C14.8004 16.6603 14.875 16.4801 14.875 16.2922C14.8731 14.6021 14.2009 12.9816 13.0057 11.7865C11.8106 10.5914 10.1902 9.91911 8.5 9.91724V9.91724Z" fill="white"/>
</g>
<defs>
<clipPath id="clip0_26_214">
<rect width="17" height="17" fill="white"/>
</clipPath>
</defs>
</svg>
