<svg width="24" height="24" viewBox="0 0 24 24" fill="none" xmlns="http://www.w3.org/2000/svg">
<path d="M12.7805 5.29953C12.5663 5.1067 12.2882 5 12 5C11.7118 5 11.4337 5.1067 11.2195 5.29953L5 10.8972V16.9639C5 17.4589 5.19667 17.9337 5.54673 18.2838C5.8968 18.6339 6.3716 18.8305 6.86667 18.8305H12H17.1333C17.6284 18.8305 18.1032 18.6339 18.4533 18.2838C18.8033 17.9337 19 17.4589 19 16.9639V10.8972L12.7805 5.29953ZM13.75 17.6621H10.25V14.7303C10.25 14.2662 10.4344 13.821 10.7626 13.4928C11.0908 13.1647 11.5359 12.9803 12 12.9803C12.4641 12.9803 12.9092 13.1647 13.2374 13.4928C13.5656 13.821 13.75 14.2662 13.75 14.7303V17.6621ZM17.8333 16.9621C17.8333 17.1478 17.7596 17.3258 17.6283 17.4571C17.497 17.5884 17.319 17.6621 17.1333 17.6621H14.9167V14.7303C14.9167 13.9567 14.6094 13.2149 14.0624 12.6679C13.5154 12.1209 12.7735 11.8136 12 11.8136C11.2265 11.8136 10.4846 12.1209 9.9376 12.6679C9.39062 13.2149 9.08333 13.9567 9.08333 14.7303V17.6621H6.86667C6.68102 17.6621 6.50297 17.5884 6.37169 17.4571C6.24042 17.3258 6.16667 17.1478 6.16667 16.9621V11.4164L12 6.16636L17.8333 11.4164V16.9621Z" fill="#F7F7FC"/>
</svg>
