<svg width="17" height="17" viewBox="0 0 17 17" fill="none" xmlns="http://www.w3.org/2000/svg">
<path d="M9.44775 0.363712C9.18761 0.129562 8.85 0 8.5 0C8.15 0 7.81239 0.129562 7.55225 0.363712L0 7.16088V14.5275C0 15.1287 0.238809 15.7052 0.663891 16.1303C1.08897 16.5554 1.66551 16.7942 2.26667 16.7942H8.5H14.7333C15.3345 16.7942 15.911 16.5554 16.3361 16.1303C16.7612 15.7052 17 15.1287 17 14.5275V7.16088L9.44775 0.363712ZM10.625 15.3754H6.375V11.8153C6.375 11.2518 6.59888 10.7113 6.9974 10.3127C7.39591 9.91422 7.93641 9.69034 8.5 9.69034C9.06358 9.69034 9.60409 9.91422 10.0026 10.3127C10.4011 10.7113 10.625 11.2518 10.625 11.8153V15.3754ZM15.5833 14.5254C15.5833 14.7509 15.4938 14.9671 15.3344 15.1265C15.175 15.2859 14.9588 15.3754 14.7333 15.3754H12.0417V11.8153C12.0417 10.876 11.6685 9.97519 11.0043 9.311C10.3401 8.64681 9.43931 8.27367 8.5 8.27367C7.56069 8.27367 6.65985 8.64681 5.99566 9.311C5.33147 9.97519 4.95833 10.876 4.95833 11.8153V15.3754H2.26667C2.04123 15.3754 1.82503 15.2859 1.66563 15.1265C1.50622 14.9671 1.41667 14.7509 1.41667 14.5254V7.7913L8.5 1.4163L15.5833 7.7913V14.5254Z" fill="white"/>
</svg>
