<svg width="24" height="24" viewBox="0 0 24 24" fill="none" xmlns="http://www.w3.org/2000/svg">
<path d="M13.2265 1.47645C12.8898 1.16972 12.4529 1 12 1C11.5471 1 11.1102 1.16972 10.7735 1.47645L1 10.3806V20.0307C1 20.8182 1.30905 21.5735 1.85915 22.1303C2.40926 22.6872 3.15537 23 3.93333 23H12H20.0667C20.8446 23 21.5907 22.6872 22.1408 22.1303C22.691 21.5735 23 20.8182 23 20.0307V10.3806L13.2265 1.47645ZM14.75 21.1414H9.25V16.4778C9.25 15.7395 9.53973 15.0315 10.0555 14.5094C10.5712 13.9874 11.2707 13.6941 12 13.6941C12.7293 13.6941 13.4288 13.9874 13.9445 14.5094C14.4603 15.0315 14.75 15.7395 14.75 16.4778V21.1414ZM21.1667 20.0279C21.1667 20.3233 21.0508 20.6065 20.8445 20.8153C20.6382 21.0241 20.3584 21.1414 20.0667 21.1414H16.5833V16.4778C16.5833 15.2473 16.1004 14.0673 15.2409 13.1972C14.3814 12.3271 13.2156 11.8383 12 11.8383C10.7844 11.8383 9.61864 12.3271 8.75909 13.1972C7.89955 14.0673 7.41667 15.2473 7.41667 16.4778V21.1414H3.93333C3.6416 21.1414 3.36181 21.0241 3.15552 20.8153C2.94923 20.6065 2.83333 20.3233 2.83333 20.0279V11.2064L12 2.85531L21.1667 11.2064V20.0279Z" fill="#F3FDFA"/>
</svg>
