<svg width="24" height="24" viewBox="0 0 24 24" fill="none" xmlns="http://www.w3.org/2000/svg">
<path d="M16.0805 6.25727H12.2734C12.1833 6.25791 12.0941 6.23642 12.0128 6.19441L10.1722 5.19865C9.92928 5.06824 9.66161 5.00024 9.39019 5H7.91591C7.14285 5.001 6.40171 5.33247 5.85507 5.92172C5.30843 6.51096 5.00093 7.30986 5 8.14318V15.6868C5.00093 16.5201 5.30843 17.319 5.85507 17.9083C6.40171 18.4975 7.14285 18.829 7.91591 18.83H16.0805C16.8535 18.829 17.5947 18.4975 18.1413 17.9083C18.6879 17.319 18.9954 16.5201 18.9964 15.6868V9.40045C18.9954 8.56714 18.6879 7.76824 18.1413 7.17899C17.5947 6.58975 16.8535 6.25827 16.0805 6.25727ZM7.91591 6.25727H9.39019C9.48039 6.25663 9.56953 6.27813 9.65088 6.32014L11.4914 7.31275C11.7341 7.44425 12.0018 7.51333 12.2734 7.51455H16.0805C16.4292 7.51516 16.7699 7.62812 17.0586 7.83893C17.3474 8.04974 17.5711 8.34877 17.7011 8.69764L6.16636 8.76805V8.14318C6.16636 7.64301 6.35069 7.16332 6.67879 6.80964C7.0069 6.45597 7.4519 6.25727 7.91591 6.25727ZM16.0805 17.5727H7.91591C7.4519 17.5727 7.0069 17.374 6.67879 17.0204C6.35069 16.6667 6.16636 16.187 6.16636 15.6868V10.0253L17.83 9.95428V15.6868C17.83 16.187 17.6457 16.6667 17.3176 17.0204C16.9895 17.374 16.5445 17.5727 16.0805 17.5727Z" fill="#F7F7FC"/>
</svg>
