<svg width="17" height="17" viewBox="0 0 17 17" fill="none" xmlns="http://www.w3.org/2000/svg">
<g clip-path="url(#clip0_26_290)">
<path d="M13.4583 2.12528H8.83433C8.72478 2.12601 8.61651 2.10178 8.51771 2.05445L6.28221 0.932451C5.98711 0.785504 5.66199 0.708892 5.33233 0.708618H3.54167C2.6027 0.709743 1.70252 1.08324 1.03857 1.74719C0.374625 2.41114 0.00112473 3.31132 0 4.25028L0 12.7503C0.00112473 13.6892 0.374625 14.5894 1.03857 15.2534C1.70252 15.9173 2.6027 16.2908 3.54167 16.292H13.4583C14.3973 16.2908 15.2975 15.9173 15.9614 15.2534C16.6254 14.5894 16.9989 13.6892 17 12.7503V5.66695C16.9989 4.72799 16.6254 3.8278 15.9614 3.16386C15.2975 2.49991 14.3973 2.12641 13.4583 2.12528V2.12528ZM3.54167 2.12528H5.33233C5.44188 2.12456 5.55016 2.14878 5.64896 2.19612L7.88446 3.31458C8.17926 3.46275 8.50439 3.54058 8.83433 3.54195H13.4583C13.8819 3.54264 14.2957 3.66993 14.6464 3.90746C14.9972 4.14499 15.2689 4.48194 15.4268 4.87503L1.41667 4.95437V4.25028C1.41667 3.6867 1.64055 3.1462 2.03906 2.74768C2.43758 2.34917 2.97808 2.12528 3.54167 2.12528V2.12528ZM13.4583 14.8753H3.54167C2.97808 14.8753 2.43758 14.6514 2.03906 14.2529C1.64055 13.8544 1.41667 13.3139 1.41667 12.7503V6.37103L15.5833 6.29099V12.7503C15.5833 13.3139 15.3594 13.8544 14.9609 14.2529C14.5624 14.6514 14.0219 14.8753 13.4583 14.8753Z" fill="white"/>
</g>
<defs>
<clipPath id="clip0_26_290">
<rect width="17" height="17" fill="white"/>
</clipPath>
</defs>
</svg>
