<svg width="24" height="24" viewBox="0 0 24 24" fill="none" xmlns="http://www.w3.org/2000/svg">
<path d="M18.4167 2.97623H12.4327C12.2909 2.97724 12.1508 2.94345 12.0229 2.87742L9.12992 1.31224C8.74803 1.10725 8.32729 1.00038 7.90067 1H5.58333C4.3682 1.00157 3.20326 1.5226 2.34403 2.44879C1.48481 3.37499 1.00146 4.63073 1 5.94057L1 17.7979C1.00146 19.1078 1.48481 20.3635 2.34403 21.2897C3.20326 22.2159 4.3682 22.7369 5.58333 22.7385H18.4167C19.6318 22.7369 20.7967 22.2159 21.656 21.2897C22.5152 20.3635 22.9985 19.1078 23 17.7979V7.9168C22.9985 6.60696 22.5152 5.35122 21.656 4.42502C20.7967 3.49882 19.6318 2.9778 18.4167 2.97623ZM5.58333 2.97623H7.90067C8.04244 2.97522 8.18256 3.00901 8.31042 3.07504L11.2034 4.63527C11.5849 4.84197 12.0057 4.95054 12.4327 4.95245H18.4167C18.9649 4.95342 19.5003 5.13098 19.9542 5.46233C20.4081 5.79369 20.7598 6.26372 20.9641 6.81208L2.83333 6.92275V5.94057C2.83333 5.15438 3.12306 4.40038 3.63879 3.84446C4.15451 3.28854 4.85399 2.97623 5.58333 2.97623ZM18.4167 20.7623H5.58333C4.85399 20.7623 4.15451 20.45 3.63879 19.894C3.12306 19.3381 2.83333 18.5841 2.83333 17.7979V8.89898L21.1667 8.78732V17.7979C21.1667 18.5841 20.8769 19.3381 20.3612 19.894C19.8455 20.45 19.146 20.7623 18.4167 20.7623Z" fill="#F3FDFA"/>
</svg>
