<svg xmlns="http://www.w3.org/2000/svg" fill="#999" viewBox="0 0 487.37 487.37"><g data-name="Layer 2"><path d="M416 71.37A243.69 243.69 0 0071.37 416 243.69 243.69 0 00416 71.37zM243.69 32a210.51 210.51 0 0181.38 16.28c.73 9.12-2 19.76-5.28 31.47-8.26 29.11-17.34 56.44-37.37 70.92a125.13 125.13 0 01-11.76 7.2c-6.46 3.65-13.13 7.42-19.45 12.8-18.83 16-25.7 38.11-32.35 59.46-4.2 13.52-8.17 26.28-14.92 36.49a14.66 14.66 0 01-2.61 3.28 28.13 28.13 0 01-5.72.22c-3.17-.11-10.62-.34-13.19-2.51-1.52-1.28-3.17-4.7-4.77-8a81.63 81.63 0 00-5.79-10.51c-6.61-9.76-15.74-15.74-23.78-21A95.64 95.64 0 01137 220c-8.29-7.4-13.57-18.78-19.15-30.84a232 232 0 00-10.61-21 122.74 122.74 0 00-40.13-41.1A211.66 211.66 0 01243.69 32zM143.22 430a212.49 212.49 0 01-32.58-21.76 32 32 0 0113.41-2 24.07 24.07 0 019.29 1.82c3.47 1.67 6.53 5.46 8.18 10.14a34.79 34.79 0 011.7 11.8zm30.59 13.54a15.47 15.47 0 00.7-3.06c1.55-12.17.6-23.25-2.81-32.94-4.46-12.7-13.4-23.05-24.52-28.38-6.22-3-13.36-4.6-21.83-4.94-15.3-.62-28.86 3.46-38.65 11.36A211.33 211.33 0 0151.46 155.1a90.51 90.51 0 0128.2 29.42c3.28 5.54 6.11 11.66 9.11 18.14 6.4 13.8 13.64 29.44 26.87 41.25a121.46 121.46 0 0014.89 10.92c6.34 4.16 11.81 7.75 14.84 12.21a54.28 54.28 0 013.47 6.5c2.78 5.73 6.22 12.85 12.94 18.52 9.74 8.22 21.53 9.68 32.83 10 1.09 0 2.21.06 3.35.06 5.54 0 11.67-.6 17.78-3.67 7.39-3.73 12-9.91 14.9-14.23 9.25-14 14.09-29.56 18.78-44.62C255 221.85 260.18 205.05 272 195c4-3.39 9.07-6.27 14.45-9.31a150.8 150.8 0 0014.78-9.13c28.34-20.49 39.53-53.37 49.39-88.12a187.42 187.42 0 005.62-24A212 212 0 01454 220c-32.68-5.42-67.6 4.22-92.45 26.35-4.26 3.79-8 7.75-11.71 11.57a172.3 172.3 0 01-10 9.92c-1.68 1.48-3.49 3-5.42 4.53-5 4.07-10.63 8.67-15.4 14.75-11.45 14.6-15.6 35.05-11.38 56.12 3.59 17.91 12.19 33.32 20 46.36a585.53 585.53 0 0023.58 36.4 211.44 211.44 0 01-177.41 17.56zm203.64-35.88a553.73 553.73 0 01-22.3-34.42c-6.42-10.75-13.49-23.31-16.08-36.24-2.35-11.72-.41-23 5.18-30.08 2.57-3.28 6.4-6.41 10.45-9.71 2.09-1.7 4.24-3.46 6.41-5.38 4.34-3.84 8.18-7.86 11.9-11.75 3.37-3.52 6.55-6.85 9.86-9.79 19-16.95 47.55-23.66 72.29-17.35a211.46 211.46 0 01-77.71 154.69z" data-name="Layer 1"/></g></svg>