<svg width="13" height="13" viewBox="0 0 13 13" fill="none" xmlns="http://www.w3.org/2000/svg">
<g clip-path="url(#clip0_213_653)">
<path d="M10.1055 0.50387L3.50151 7.10787C3.24928 7.35874 3.04931 7.65715 2.91319 7.98583C2.77707 8.3145 2.7075 8.66691 2.70851 9.02266V9.75012C2.70851 9.89378 2.76558 10.0316 2.86716 10.1331C2.96874 10.2347 3.10651 10.2918 3.25017 10.2918H3.97763C4.33338 10.2928 4.68579 10.2232 5.01447 10.0871C5.34314 9.95098 5.64155 9.75102 5.89242 9.49879L12.4964 2.89479C12.813 2.57746 12.9907 2.14754 12.9907 1.69933C12.9907 1.25111 12.813 0.821195 12.4964 0.50387C12.1745 0.196146 11.7463 0.0244141 11.301 0.0244141C10.8556 0.0244141 10.4274 0.196146 10.1055 0.50387ZM11.7305 2.12887L5.12651 8.73287C4.82107 9.03644 4.40826 9.20732 3.97763 9.20845H3.79184V9.02266C3.79297 8.59203 3.96386 8.17922 4.26742 7.87379L10.8714 1.26979C10.9871 1.15926 11.141 1.09759 11.301 1.09759C11.461 1.09759 11.6148 1.15926 11.7305 1.26979C11.8442 1.38382 11.9081 1.53829 11.9081 1.69933C11.9081 1.86037 11.8442 2.01484 11.7305 2.12887Z" fill="#25262D"/>
<path d="M12.4583 4.86363C12.3147 4.86363 12.1769 4.92069 12.0753 5.02228C11.9737 5.12386 11.9167 5.26163 11.9167 5.40529V8.125H9.75C9.31903 8.125 8.9057 8.2962 8.60095 8.60095C8.29621 8.9057 8.125 9.31902 8.125 9.75V11.9167H2.70833C2.27736 11.9167 1.86403 11.7455 1.55929 11.4407C1.25454 11.136 1.08333 10.7226 1.08333 10.2917V2.70833C1.08333 2.27736 1.25454 1.86403 1.55929 1.55928C1.86403 1.25454 2.27736 1.08333 2.70833 1.08333H7.60608C7.74974 1.08333 7.88752 1.02627 7.9891 0.924683C8.09068 0.823101 8.14775 0.685326 8.14775 0.541667C8.14775 0.398008 8.09068 0.260233 7.9891 0.158651C7.88752 0.0570683 7.74974 0 7.60608 0L2.70833 0C1.9903 0.00086009 1.30193 0.286478 0.794203 0.794202C0.286478 1.30193 0.00086009 1.9903 0 2.70833L0 10.2917C0.00086009 11.0097 0.286478 11.6981 0.794203 12.2058C1.30193 12.7135 1.9903 12.9991 2.70833 13H8.85246C9.20829 13.001 9.56079 12.9315 9.88955 12.7953C10.2183 12.6592 10.5168 12.4592 10.7678 12.207L12.2065 10.7673C12.4587 10.5164 12.6588 10.218 12.795 9.88932C12.9312 9.56065 13.0009 9.20823 13 8.85246V5.40529C13 5.26163 12.9429 5.12386 12.8414 5.02228C12.7398 4.92069 12.602 4.86363 12.4583 4.86363ZM10.0019 11.4411C9.78413 11.6583 9.50878 11.8087 9.20833 11.8744V9.75C9.20833 9.60634 9.2654 9.46857 9.36698 9.36698C9.46857 9.2654 9.60634 9.20833 9.75 9.20833H11.876C11.809 9.50815 11.6588 9.783 11.4427 10.0013L10.0019 11.4411Z" fill="#25262D"/>
</g>
<defs>
<clipPath id="clip0_213_653">
<rect width="13" height="13" fill="white"/>
</clipPath>
</defs>
</svg>
