<svg width="19" height="19" viewBox="0 0 19 19" fill="none" xmlns="http://www.w3.org/2000/svg">
<g clip-path="url(#clip0_167_2027)">
<path d="M9.5 19C7.62108 19 5.78435 18.4428 4.22209 17.399C2.65982 16.3551 1.44218 14.8714 0.723149 13.1355C0.00411622 11.3996 -0.184015 9.48947 0.182544 7.64665C0.549104 5.80383 1.45389 4.11109 2.78249 2.78249C4.11109 1.45389 5.80383 0.549104 7.64665 0.182544C9.48947 -0.184015 11.3996 0.00411622 13.1355 0.723149C14.8714 1.44218 16.3551 2.65982 17.399 4.22209C18.4428 5.78435 19 7.62108 19 9.5C18.9973 12.0187 17.9955 14.4335 16.2145 16.2145C14.4335 17.9955 12.0187 18.9973 9.5 19ZM9.5 1.58334C7.93424 1.58334 6.40363 2.04764 5.10174 2.91754C3.79985 3.78743 2.78515 5.02385 2.18596 6.47043C1.58676 7.91701 1.42999 9.50879 1.73545 11.0445C2.04092 12.5802 2.79491 13.9908 3.90208 15.0979C5.00924 16.2051 6.41986 16.9591 7.95554 17.2646C9.49122 17.57 11.083 17.4132 12.5296 16.8141C13.9762 16.2149 15.2126 15.2002 16.0825 13.8983C16.9524 12.5964 17.4167 11.0658 17.4167 9.5C17.4144 7.40108 16.5795 5.38878 15.0954 3.90462C13.6112 2.42046 11.5989 1.58564 9.5 1.58334Z" fill="#292929"/>
<path d="M10.2915 11.8748H8.70813V11.2866C8.69643 10.728 8.83445 10.1765 9.10786 9.68922C9.38127 9.20198 9.7801 8.7968 10.263 8.51573C10.5555 8.35463 10.7895 8.10517 10.9317 7.80303C11.0739 7.50088 11.1169 7.16151 11.0546 6.83344C10.9929 6.52089 10.8395 6.23383 10.6139 6.00891C10.3882 5.784 10.1007 5.63144 9.78796 5.57073C9.55974 5.52849 9.32502 5.53694 9.10043 5.59548C8.87583 5.65402 8.66686 5.76123 8.48829 5.9095C8.30973 6.05777 8.16595 6.24349 8.06713 6.4535C7.96832 6.66351 7.91688 6.89268 7.91646 7.12477H6.33313C6.33333 6.56626 6.48124 6.01773 6.76186 5.53483C7.04248 5.05193 7.44583 4.65184 7.93099 4.37515C8.41614 4.09845 8.96585 3.95499 9.52435 3.95932C10.0828 3.96366 10.6303 4.11562 11.1111 4.39981C11.5919 4.684 11.989 5.0903 12.2621 5.57749C12.5352 6.06468 12.6746 6.61544 12.6661 7.17389C12.6576 7.73234 12.5016 8.27862 12.2139 8.75732C11.9261 9.23601 11.5169 9.63008 11.0277 9.89957C10.794 10.0457 10.6028 10.2508 10.4736 10.4943C10.3443 10.7378 10.2815 11.0111 10.2915 11.2866V11.8748Z" fill="#292929"/>
<path d="M10.2915 13.458H8.70813V15.0414H10.2915V13.458Z" fill="#292929"/>
</g>
<defs>
<clipPath id="clip0_167_2027">
<rect width="19" height="19" fill="white"/>
</clipPath>
</defs>
</svg>
