<svg width="20" height="19" viewBox="0 0 20 19" fill="none" xmlns="http://www.w3.org/2000/svg">
<g clip-path="url(#clip0_12_3)">
<path d="M10.2959 19C8.41698 19 6.58025 18.4428 5.01798 17.399C3.45572 16.3551 2.23808 14.8714 1.51905 13.1355C0.800015 11.3996 0.611883 9.48947 0.978443 7.64665C1.345 5.80383 2.24979 4.11109 3.57839 2.78249C4.90699 1.45389 6.59973 0.549104 8.44254 0.182544C10.2854 -0.184015 12.1955 0.00411622 13.9314 0.723149C15.6673 1.44218 17.151 2.65982 18.1949 4.22209C19.2387 5.78435 19.7959 7.62108 19.7959 9.5C19.7932 12.0187 18.7914 14.4335 17.0104 16.2145C15.2294 17.9955 12.8146 18.9973 10.2959 19ZM10.2959 1.58334C8.73013 1.58334 7.19953 2.04764 5.89764 2.91754C4.59575 3.78743 3.58105 5.02385 2.98186 6.47043C2.38266 7.91701 2.22589 9.50879 2.53135 11.0445C2.83682 12.5802 3.59081 13.9908 4.69797 15.0979C5.80514 16.2051 7.21575 16.9591 8.75144 17.2646C10.2871 17.57 11.8789 17.4132 13.3255 16.8141C14.7721 16.2149 16.0085 15.2002 16.8784 13.8983C17.7483 12.5964 18.2126 11.0658 18.2126 9.5C18.2103 7.40108 17.3754 5.38878 15.8913 3.90462C14.4071 2.42046 12.3948 1.58564 10.2959 1.58334Z" fill="#292929"/>
<path d="M11.0872 11.8748H9.5039V11.2866C9.49221 10.728 9.63023 10.1765 9.90363 9.68922C10.177 9.20198 10.5759 8.7968 11.0587 8.51573C11.3512 8.35463 11.5853 8.10517 11.7275 7.80303C11.8697 7.50088 11.9127 7.16151 11.8504 6.83344C11.7887 6.52089 11.6353 6.23383 11.4096 6.00891C11.184 5.784 10.8965 5.63144 10.5837 5.57073C10.3555 5.52849 10.1208 5.53694 9.8962 5.59548C9.67161 5.65402 9.46263 5.76123 9.28407 5.9095C9.10551 6.05777 8.96173 6.24349 8.86291 6.4535C8.76409 6.66351 8.71265 6.89268 8.71224 7.12477H7.12891C7.1291 6.56626 7.27702 6.01773 7.55764 5.53483C7.83826 5.05193 8.2416 4.65184 8.72676 4.37515C9.21192 4.09845 9.76163 3.95499 10.3201 3.95932C10.8786 3.96366 11.426 4.11562 11.9068 4.39981C12.3877 4.684 12.7848 5.0903 13.0578 5.57749C13.3309 6.06468 13.4703 6.61544 13.4619 7.17389C13.4534 7.73234 13.2974 8.27862 13.0096 8.75732C12.7219 9.23601 12.3127 9.63008 11.8235 9.89957C11.5897 10.0457 11.3986 10.2508 11.2694 10.4943C11.1401 10.7378 11.0773 11.0111 11.0872 11.2866V11.8748Z" fill="#292929"/>
<path d="M11.0872 13.458H9.50391V15.0414H11.0872V13.458Z" fill="#292929"/>
</g>
<defs>
<clipPath id="clip0_12_3">
<rect width="19" height="19" fill="white" transform="translate(0.795898)"/>
</clipPath>
</defs>
</svg>
