<svg width="24" height="24" viewBox="0 0 24 24" fill="none" xmlns="http://www.w3.org/2000/svg">
<path d="M17.9419 5.25479L16.7459 4.05735C16.4113 3.72102 16.0133 3.45439 15.5749 3.2729C15.1366 3.09141 14.6666 2.99866 14.1922 3.00001H9.61111C8.65373 3.00116 7.7359 3.38198 7.05894 4.05895C6.38197 4.73592 6.00115 5.65375 6 6.61112V16.7222C6.00115 17.6796 6.38197 18.5974 7.05894 19.2744C7.7359 19.9514 8.65373 20.3322 9.61111 20.3333H15.3889C16.3463 20.3322 17.2641 19.9514 17.9411 19.2744C18.618 18.5974 18.9988 17.6796 19 16.7222V7.80784C19.0012 7.33348 18.9082 6.86359 18.7266 6.42536C18.545 5.98714 18.2783 5.58927 17.9419 5.25479ZM16.9207 6.27601C17.0232 6.37808 17.1149 6.49037 17.1944 6.61112H15.3889V4.80557C15.5094 4.88597 15.6219 4.97788 15.7247 5.08001L16.9207 6.27601ZM17.5555 16.7222C17.5555 17.2969 17.3273 17.848 16.9209 18.2543C16.5146 18.6606 15.9635 18.8889 15.3889 18.8889H9.61111C9.03647 18.8889 8.48537 18.6606 8.07904 18.2543C7.67272 17.848 7.44444 17.2969 7.44444 16.7222V6.61112C7.44444 6.03649 7.67272 5.48539 8.07904 5.07906C8.48537 4.67273 9.03647 4.44446 9.61111 4.44446H13.9444V6.61112C13.9444 6.99421 14.0966 7.36161 14.3675 7.6325C14.6384 7.90338 15.0058 8.05557 15.3889 8.05557H17.5555V16.7222ZM15.3889 9.50001C15.5804 9.50001 15.7641 9.5761 15.8996 9.71154C16.035 9.84699 16.1111 10.0307 16.1111 10.2222C16.1111 10.4138 16.035 10.5975 15.8996 10.7329C15.7641 10.8684 15.5804 10.9445 15.3889 10.9445H9.61111C9.41956 10.9445 9.23586 10.8684 9.10042 10.7329C8.96498 10.5975 8.88889 10.4138 8.88889 10.2222C8.88889 10.0307 8.96498 9.84699 9.10042 9.71154C9.23586 9.5761 9.41956 9.50001 9.61111 9.50001H15.3889ZM16.1111 13.1111C16.1111 13.3027 16.035 13.4864 15.8996 13.6218C15.7641 13.7572 15.5804 13.8333 15.3889 13.8333H9.61111C9.41956 13.8333 9.23586 13.7572 9.10042 13.6218C8.96498 13.4864 8.88889 13.3027 8.88889 13.1111C8.88889 12.9196 8.96498 12.7359 9.10042 12.6004C9.23586 12.465 9.41956 12.3889 9.61111 12.3889H15.3889C15.5804 12.3889 15.7641 12.465 15.8996 12.6004C16.035 12.7359 16.1111 12.9196 16.1111 13.1111ZM15.9724 15.5761C16.0847 15.7305 16.1312 15.9231 16.1019 16.1118C16.0725 16.3005 15.9696 16.4698 15.8157 16.5828C15.084 17.1043 14.2173 17.4034 13.3197 17.4444C12.7953 17.4419 12.2868 17.2639 11.8753 16.9389C11.6384 16.7764 11.5481 16.7222 11.3697 16.7222C10.8869 16.7969 10.4313 16.9944 10.0466 17.2957C9.89404 17.4044 9.70517 17.4496 9.51989 17.4218C9.3346 17.3939 9.16741 17.2951 9.05361 17.1462C8.93982 16.9974 8.88832 16.8101 8.91001 16.624C8.93169 16.4379 9.02486 16.2675 9.16983 16.1488C9.80624 15.6547 10.5704 15.3526 11.3726 15.2778C11.8537 15.2855 12.3188 15.4518 12.6957 15.7508C12.8675 15.9054 13.0887 15.9937 13.3197 16C13.9103 15.9558 14.4781 15.754 14.9642 15.4157C15.1192 15.3034 15.3125 15.2572 15.5015 15.2872C15.6906 15.3173 15.8599 15.4212 15.9724 15.5761Z" fill="#25262D"/>
</svg>
