<svg version="1.1" id="Layer_1" xmlns="http://www.w3.org/2000/svg" x="0" y="0" viewBox="0 0 512 512" xml:space="preserve" class="icon icon-sm align-middle"><path d="M255.4 31.9c30.2 0 59.4 5.9 87 17.5 26.6 11.2 50.4 27.4 71 47.9 20.5 20.5 36.6 44.3 47.9 71 11.6 27.6 17.5 56.7 17.5 87s-5.9 59.4-17.5 87c-11.2 26.6-27.4 50.4-47.9 71-20.5 20.5-44.3 36.6-71 47.9-27.6 11.6-56.7 17.5-87 17.5s-59.4-5.9-87-17.5c-26.6-11.2-50.4-27.4-71-47.9-20.5-20.5-36.6-44.3-47.9-71-11.6-27.6-17.5-56.7-17.5-87s5.9-59.4 17.5-87c11.2-26.6 27.4-50.4 47.9-71s44.3-36.6 71-47.9c27.5-11.6 56.7-17.5 87-17.5m0-31.9C114.3 0 0 114.3 0 255.4s114.3 255.4 255.4 255.4 255.4-114.3 255.4-255.4S396.4 0 255.4 0z"></path><path d="M303.4 351.1h-8.2c-4.4 0-8-3.6-8-8v-94.4c0-15.3-11.4-28-26.6-29.7-2.5-.3-4.8-.5-6.7-.5-23.6 0-44.4 11.9-56.8 30l-.1.1v-.1c-1 2-1.7 5.2.7 6.5.6.3 1.2.5 1.8.5h15.9c4.4 0 8 3.6 8 8v79.8c0 4.4-3.6 8-8 8h-8.1c-8.7 0-15.8 7.1-15.8 15.8v.3c0 8.7 7.1 15.8 15.8 15.8h96.1c8.7 0 15.8-7.1 15.8-15.8v-.3c0-8.9-7.1-16-15.8-16zM255.4 127.7c-17.6 0-31.9 14.3-31.9 31.9s14.3 31.9 31.9 31.9 31.9-14.3 31.9-31.9-14.3-31.9-31.9-31.9z"></path></svg>