<svg width="18" height="16" viewBox="0 0 18 16" fill="none" xmlns="http://www.w3.org/2000/svg">
<path d="M6.74548 7.98498L5.63548 9.09499C5.43814 9.29232 5.33243 9.55309 5.33243 9.83147C5.33243 10.1098 5.44167 10.3706 5.63548 10.5679L5.85043 10.7829L5.72005 10.9133C5.3289 11.3044 4.69109 11.3044 4.29642 10.9133L3.18994 9.8068C2.46051 9.07737 1.27651 9.07737 0.547074 9.8068C-0.182358 10.5362 -0.182358 11.7202 0.547074 12.4497L1.65355 13.5597C1.84384 13.75 1.94956 14.0037 1.94956 14.2715C1.94956 14.5393 1.84384 14.793 1.65355 14.9833C1.48441 15.1524 1.48441 15.4238 1.65355 15.5929C1.73813 15.6775 1.84736 15.7198 1.96013 15.7198C2.06937 15.7198 2.18213 15.6775 2.2667 15.5929C2.61908 15.2405 2.81289 14.7719 2.81289 14.2715C2.81289 13.7711 2.61908 13.3024 2.2667 12.9501L1.16022 11.84C0.769075 11.4489 0.769075 10.8111 1.16022 10.4164C1.55136 10.0218 2.18918 10.0253 2.58384 10.4164L3.69032 11.5194C4.41976 12.2488 5.60376 12.2488 6.33319 11.5194L6.46357 11.389L6.67853 11.604C6.88291 11.8083 7.1472 11.907 7.41501 11.907C7.68282 11.907 7.9471 11.8048 8.15149 11.604L9.26149 10.4939C9.66321 10.6243 10.079 10.6948 10.4948 10.6948C11.5062 10.6948 12.5175 10.3107 13.2857 9.54251L15.2273 7.60089L15.5762 7.94975C15.6608 8.03432 15.77 8.0766 15.8828 8.0766C15.9955 8.0766 16.1048 8.03432 16.1893 7.94975C16.3585 7.7806 16.3585 7.50927 16.1893 7.34012L14.7622 5.91298L17.1231 3.55201C17.2923 3.38287 17.2923 3.11154 17.1231 2.94239C16.954 2.77325 16.6827 2.77325 16.5135 2.94239L14.1526 5.30335L11.9431 3.09744L14.3041 0.736479C14.4732 0.567336 14.4732 0.296001 14.3041 0.126858C14.1349 -0.0422859 13.8636 -0.0422859 13.6945 0.126858L11.3335 2.48782L9.90635 1.06067C9.73721 0.891527 9.46587 0.891527 9.29673 1.06067C9.12759 1.22981 9.12759 1.50115 9.29673 1.67029L9.64559 2.01915L7.70396 3.96078C6.6151 5.04964 6.29795 6.61422 6.74548 7.98498ZM8.31006 8.93289C7.10843 7.73127 7.10843 5.77555 8.31006 4.57392L10.2517 2.6323L14.6142 6.98774L12.6726 8.92937C11.4674 10.1345 9.51168 10.1345 8.31006 8.93289ZM7.1331 8.82013C7.29167 9.07737 7.47844 9.32051 7.70044 9.54251C7.92244 9.76451 8.16558 9.95128 8.42282 10.1098L7.53482 10.9979C7.46786 11.0683 7.3551 11.0683 7.28463 10.9979L6.2451 9.95833C6.19929 9.91252 6.19224 9.85966 6.19224 9.83499C6.19224 9.8068 6.19929 9.75394 6.2451 9.71166L7.1331 8.82013Z" fill="white"/>
</svg>
