<svg width="24" height="24" viewBox="0 0 24 24" fill="none" xmlns="http://www.w3.org/2000/svg">
<path d="M16.4205 16.2538H9.45497C8.70655 16.2538 8.04865 15.6807 7.89078 14.8911L6.85463 9.71191C6.83487 9.61271 6.85758 9.50913 6.91668 9.43007C6.97563 9.35117 7.06475 9.30518 7.15869 9.30518H18.6875C18.7813 9.30518 18.87 9.35067 18.9291 9.42923C18.9882 9.50779 19.0112 9.61086 18.9919 9.70973L17.9865 14.8812C17.8319 15.6767 17.1733 16.2538 16.4205 16.2538ZM7.5441 9.97664L8.49891 14.7494C8.5955 15.232 8.99755 15.5824 9.45497 15.5824H16.4205C16.8807 15.5824 17.2832 15.2295 17.3778 14.7434L18.3044 9.97664H7.5441Z" fill="#F7F7FC"/>
<path d="M9.41348 19.5699C8.70939 19.5699 8.13672 18.9517 8.13672 18.1919C8.13672 17.432 8.70954 16.8137 9.41348 16.8137C10.1174 16.8137 10.6902 17.432 10.6902 18.1919C10.6904 18.9517 10.1176 19.5699 9.41348 19.5699ZM9.41348 17.4852C9.05249 17.4852 8.75885 17.8023 8.75885 18.1919C8.75885 18.5815 9.05249 18.8984 9.41348 18.8984C9.77447 18.8984 10.0681 18.5815 10.0681 18.1919C10.0681 17.8023 9.77463 17.4852 9.41348 17.4852Z" fill="#F7F7FC"/>
<path d="M16.3451 19.5699C15.6412 19.5699 15.0684 18.9517 15.0684 18.1919C15.0684 17.432 15.6412 16.8137 16.3451 16.8137C17.0492 16.8137 17.622 17.432 17.622 18.1919C17.6219 18.9517 17.0492 19.5699 16.3451 19.5699ZM16.3451 17.4852C15.9841 17.4852 15.6905 17.8023 15.6905 18.1919C15.6905 18.5815 15.9841 18.8984 16.3451 18.8984C16.7061 18.8984 16.9999 18.5815 16.9999 18.1919C16.9999 17.8023 16.7061 17.4852 16.3451 17.4852Z" fill="#F7F7FC"/>
<path d="M7.1577 9.97687C7.0143 9.97687 6.88552 9.86927 6.85394 9.71181L6.65222 8.7031C6.58005 8.34219 6.27925 8.08015 5.93693 8.08015H5.31106C5.13936 8.08015 5 7.92975 5 7.74442C5 7.5591 5.13936 7.40869 5.31106 7.40869H5.93677C6.56994 7.40869 7.12644 7.89349 7.26019 8.56143L7.46192 9.5703C7.49816 9.75159 7.39146 9.9302 7.22349 9.96932C7.2014 9.97435 7.17932 9.97687 7.1577 9.97687Z" fill="#F7F7FC"/>
<path d="M11.8752 9.97673H8.80716C8.63545 9.97673 8.49609 9.82632 8.49609 9.641V7.78642C8.49609 7.60109 8.63545 7.45068 8.80716 7.45068H11.8752C12.0469 7.45068 12.1862 7.60109 12.1862 7.78642V9.64116C12.1862 9.82649 12.047 9.97673 11.8752 9.97673ZM9.11822 9.30526H11.5641V8.12198H9.11822V9.30526Z" fill="#F7F7FC"/>
<path d="M15.2883 9.97674H11.8767C11.705 9.97674 11.5656 9.82633 11.5656 9.64101V8.12199H10.69C10.5183 8.12199 10.3789 7.97158 10.3789 7.78626V6.33573C10.3789 6.15041 10.5183 6 10.69 6H15.2881C15.4598 6 15.5992 6.15041 15.5992 6.33573V9.64101C15.5993 9.8265 15.46 9.97674 15.2883 9.97674ZM12.1877 9.30528H14.9772V6.67146H11.001V7.4507H11.8767C12.0484 7.4507 12.1877 7.6011 12.1877 7.78643V9.30528Z" fill="#F7F7FC"/>
<path d="M17.0725 9.9768C16.9008 9.9768 16.7614 9.82639 16.7614 9.64107C16.7614 8.76397 16.1003 8.05037 15.2876 8.05037C15.1159 8.05037 14.9766 7.89996 14.9766 7.71464C14.9766 7.52931 15.1159 7.37891 15.2876 7.37891C16.4434 7.37891 17.3836 8.39366 17.3836 9.64107C17.3836 9.82656 17.2444 9.9768 17.0725 9.9768Z" fill="#F7F7FC"/>
<path d="M12.9204 14.5406C12.7487 14.5406 12.6094 14.3902 12.6094 14.2048V11.0782C12.6094 10.8928 12.7487 10.7424 12.9204 10.7424C13.0921 10.7424 13.2315 10.8928 13.2315 11.0782V14.2048C13.2315 14.3903 13.0921 14.5406 12.9204 14.5406Z" fill="#F7F7FC"/>
<path d="M15.2939 14.5405C15.2818 14.5405 15.2696 14.5398 15.2574 14.5381C15.0867 14.5166 14.9646 14.35 14.9845 14.1656L15.323 11.0391C15.343 10.8548 15.4987 10.7234 15.6681 10.7447C15.8387 10.7662 15.9608 10.933 15.9409 11.117L15.6023 14.2437C15.5838 14.4146 15.4494 14.5405 15.2939 14.5405Z" fill="#F7F7FC"/>
<path d="M10.5529 14.5406C10.4046 14.5406 10.2734 14.4258 10.2469 14.263L9.73911 11.1362C9.7094 10.9535 9.82263 10.7794 9.99185 10.7475C10.1606 10.7155 10.3222 10.8375 10.3519 11.0203L10.8597 14.147C10.8894 14.3296 10.7762 14.5037 10.607 14.5356C10.5888 14.539 10.5707 14.5406 10.5529 14.5406Z" fill="#F7F7FC"/>
</svg>
