<svg width="24" height="24" viewBox="0 0 24 24" fill="none" xmlns="http://www.w3.org/2000/svg">
<path d="M19.3667 17.4745H7.76045C6.51339 17.4745 5.41716 16.5195 5.15412 15.2038L3.42763 6.57403C3.39472 6.40872 3.43255 6.23614 3.53103 6.1044C3.62925 5.97294 3.77775 5.8963 3.93428 5.8963H23.1442C23.3004 5.8963 23.4482 5.9721 23.5466 6.103C23.6451 6.23391 23.6835 6.40565 23.6513 6.57039L21.9762 15.1873C21.7186 16.5128 20.621 17.4745 19.3667 17.4745ZM4.57646 7.01513L6.16742 14.9677C6.32835 15.7719 6.99827 16.3556 7.76045 16.3556H19.3667C20.1336 16.3556 20.8043 15.7677 20.9618 14.9577L22.5059 7.01513H4.57646V7.01513Z" fill="#F3FDFA"/>
<path d="M7.68795 23C6.51476 23 5.56055 21.9699 5.56055 20.7039C5.56055 19.4377 6.51502 18.4075 7.68795 18.4075C8.86089 18.4075 9.81536 19.4377 9.81536 20.7039C9.81562 21.9699 8.86115 23 7.68795 23ZM7.68795 19.5264C7.08645 19.5264 6.59717 20.0547 6.59717 20.7039C6.59717 21.3531 7.08645 21.8812 7.68795 21.8812C8.28945 21.8812 8.77874 21.3531 8.77874 20.7039C8.77874 20.0547 8.28971 19.5264 7.68795 19.5264Z" fill="#F3FDFA"/>
<path d="M19.2426 23C18.0697 23 17.1152 21.9699 17.1152 20.7039C17.1152 19.4377 18.0697 18.4075 19.2426 18.4075C20.4158 18.4075 21.3703 19.4377 21.3703 20.7039C21.37 21.9699 20.4158 23 19.2426 23ZM19.2426 19.5264C18.6411 19.5264 18.1519 20.0547 18.1519 20.7039C18.1519 21.3531 18.6411 21.8812 19.2426 21.8812C19.8441 21.8812 20.3337 21.3531 20.3337 20.7039C20.3337 20.0547 19.8441 19.5264 19.2426 19.5264Z" fill="#F3FDFA"/>
<path d="M3.93315 7.01537C3.69421 7.01537 3.47963 6.83608 3.42702 6.57371L3.0909 4.89296C2.97065 4.29159 2.46944 3.85497 1.89904 3.85497H0.856201C0.570094 3.85497 0.337891 3.60435 0.337891 3.29556C0.337891 2.98676 0.570094 2.73615 0.856201 2.73615H1.89878C2.9538 2.73615 3.88106 3.54394 4.10393 4.65689L4.44006 6.33792C4.50044 6.64 4.32266 6.93761 4.04277 7.00278C4.00597 7.01117 3.96917 7.01537 3.93315 7.01537Z" fill="#F3FDFA"/>
<path d="M11.7925 7.01511H6.68042C6.39431 7.01511 6.16211 6.76449 6.16211 6.4557V3.3655C6.16211 3.05671 6.39431 2.80609 6.68042 2.80609H11.7925C12.0786 2.80609 12.3108 3.05671 12.3108 3.3655V6.45598C12.3108 6.76477 12.0789 7.01511 11.7925 7.01511ZM7.19873 5.89629H11.2742V3.92464H7.19873V5.89629Z" fill="#F3FDFA"/>
<path d="M17.4791 7.01522H11.7945C11.5084 7.01522 11.2762 6.7646 11.2762 6.4558V3.92474H9.81714C9.53103 3.92474 9.29883 3.67413 9.29883 3.36533V0.948389C9.29883 0.639594 9.53103 0.388977 9.81714 0.388977H17.4788C17.7649 0.388977 17.9971 0.639594 17.9971 0.948389V6.4558C17.9974 6.76488 17.7652 7.01522 17.4791 7.01522ZM12.3128 5.89639H16.9608V1.5078H10.3354V2.8062H11.7945C12.0806 2.8062 12.3128 3.05681 12.3128 3.36561V5.89639Z" fill="#F3FDFA"/>
<path d="M20.4514 7.01526C20.1653 7.01526 19.9331 6.76464 19.9331 6.45584C19.9331 4.99438 18.8314 3.80535 17.4773 3.80535C17.1912 3.80535 16.959 3.55473 16.959 3.24594C16.959 2.93714 17.1912 2.68652 17.4773 2.68652C19.4031 2.68652 20.9697 4.37735 20.9697 6.45584C20.9697 6.76492 20.7377 7.01526 20.4514 7.01526Z" fill="#F3FDFA"/>
<path d="M13.5378 14.6196C13.2517 14.6196 13.0195 14.369 13.0195 14.0602V8.85043C13.0195 8.54163 13.2517 8.29102 13.5378 8.29102C13.8239 8.29102 14.0562 8.54163 14.0562 8.85043V14.0602C14.0562 14.3693 13.8239 14.6196 13.5378 14.6196Z" fill="#F3FDFA"/>
<path d="M17.4917 14.6196C17.4714 14.6196 17.4512 14.6185 17.4308 14.6157C17.1465 14.5799 16.943 14.3021 16.9762 13.995L17.5401 8.78546C17.5736 8.47834 17.833 8.25933 18.1152 8.29485C18.3995 8.33066 18.6029 8.60868 18.5697 8.91524L18.0056 14.125C17.9747 14.4098 17.7508 14.6196 17.4917 14.6196Z" fill="#F3FDFA"/>
<path d="M9.5923 14.6197C9.34533 14.6197 9.1266 14.4284 9.08254 14.1571L8.2364 8.94699C8.1869 8.64267 8.37557 8.35262 8.65753 8.29948C8.93871 8.24605 9.20798 8.4494 9.25747 8.754L10.1036 13.9638C10.1531 14.2681 9.96445 14.5582 9.68249 14.6113C9.65217 14.6169 9.62211 14.6197 9.5923 14.6197Z" fill="#F3FDFA"/>
</svg>
