<svg width="13" height="18" viewBox="0 0 13 18" fill="none" xmlns="http://www.w3.org/2000/svg">
<path d="M11.9419 2.25479L10.7459 1.05735C10.4113 0.721017 10.0133 0.454392 9.57495 0.272902C9.13659 0.0914111 8.6666 -0.00134044 8.19216 1.46361e-05H3.61111C2.65373 0.00116142 1.7359 0.381985 1.05894 1.05895C0.38197 1.73592 0.00114679 2.65375 0 3.61112V13.7222C0.00114679 14.6796 0.38197 15.5974 1.05894 16.2744C1.7359 16.9514 2.65373 17.3322 3.61111 17.3333H9.38888C10.3463 17.3322 11.2641 16.9514 11.9411 16.2744C12.618 15.5974 12.9988 14.6796 13 13.7222V4.80784C13.0012 4.33348 12.9082 3.86359 12.7266 3.42536C12.545 2.98714 12.2783 2.58927 11.9419 2.25479V2.25479ZM10.9207 3.27601C11.0232 3.37808 11.1149 3.49037 11.1944 3.61112H9.38888V1.80557C9.50944 1.88597 9.62192 1.97788 9.72471 2.08001L10.9207 3.27601ZM11.5555 13.7222C11.5555 14.2969 11.3273 14.848 10.9209 15.2543C10.5146 15.6606 9.96352 15.8889 9.38888 15.8889H3.61111C3.03647 15.8889 2.48537 15.6606 2.07904 15.2543C1.67272 14.848 1.44444 14.2969 1.44444 13.7222V3.61112C1.44444 3.03649 1.67272 2.48539 2.07904 2.07906C2.48537 1.67273 3.03647 1.44446 3.61111 1.44446H7.94444V3.61112C7.94444 3.99421 8.09662 4.36161 8.36751 4.6325C8.63839 4.90338 9.00579 5.05557 9.38888 5.05557H11.5555V13.7222ZM9.38888 6.50001C9.58043 6.50001 9.76413 6.5761 9.89957 6.71154C10.035 6.84699 10.1111 7.03069 10.1111 7.22223C10.1111 7.41378 10.035 7.59748 9.89957 7.73292C9.76413 7.86836 9.58043 7.94445 9.38888 7.94445H3.61111C3.41956 7.94445 3.23586 7.86836 3.10042 7.73292C2.96498 7.59748 2.88889 7.41378 2.88889 7.22223C2.88889 7.03069 2.96498 6.84699 3.10042 6.71154C3.23586 6.5761 3.41956 6.50001 3.61111 6.50001H9.38888ZM10.1111 10.1111C10.1111 10.3027 10.035 10.4864 9.89957 10.6218C9.76413 10.7572 9.58043 10.8333 9.38888 10.8333H3.61111C3.41956 10.8333 3.23586 10.7572 3.10042 10.6218C2.96498 10.4864 2.88889 10.3027 2.88889 10.1111C2.88889 9.91957 2.96498 9.73587 3.10042 9.60043C3.23586 9.46499 3.41956 9.3889 3.61111 9.3889H9.38888C9.58043 9.3889 9.76413 9.46499 9.89957 9.60043C10.035 9.73587 10.1111 9.91957 10.1111 10.1111ZM9.97244 12.5761C10.0847 12.7305 10.1312 12.9231 10.1019 13.1118C10.0725 13.3005 9.96962 13.4698 9.81571 13.5828C9.08397 14.1043 8.21729 14.4034 7.31972 14.4444C6.7953 14.4419 6.28681 14.2639 5.87527 13.9389C5.63838 13.7764 5.54811 13.7222 5.36972 13.7222C4.88686 13.7969 4.43127 13.9944 4.04661 14.2957C3.89404 14.4044 3.70517 14.4496 3.51989 14.4218C3.3346 14.3939 3.16741 14.2951 3.05361 14.1462C2.93982 13.9974 2.88832 13.8101 2.91001 13.624C2.93169 13.4379 3.02486 13.2675 3.16983 13.1488C3.80624 12.6547 4.57042 12.3526 5.37261 12.2778C5.8537 12.2855 6.31881 12.4518 6.69572 12.7508C6.86752 12.9054 7.08873 12.9937 7.31972 13C7.91026 12.9558 8.47814 12.754 8.96421 12.4157C9.11921 12.3034 9.31246 12.2572 9.50151 12.2872C9.69056 12.3173 9.85994 12.4212 9.97244 12.5761V12.5761Z" fill="white"/>
</svg>
