<svg width="13" height="14" viewBox="0 0 13 14" fill="none" xmlns="http://www.w3.org/2000/svg">
<g clip-path="url(#clip0_212_363)">
<path d="M3.79167 3.31014H12.4583C12.602 3.31014 12.7398 3.25307 12.8414 3.15149C12.9429 3.04991 13 2.91213 13 2.76847C13 2.62481 12.9429 2.48704 12.8414 2.38546C12.7398 2.28387 12.602 2.22681 12.4583 2.22681H3.79167C3.64801 2.22681 3.51023 2.28387 3.40865 2.38546C3.30707 2.48704 3.25 2.62481 3.25 2.76847C3.25 2.91213 3.30707 3.04991 3.40865 3.15149C3.51023 3.25307 3.64801 3.31014 3.79167 3.31014Z" fill="#25262D"/>
<path d="M12.4583 6.01807H3.79167C3.64801 6.01807 3.51023 6.07514 3.40865 6.17672C3.30707 6.2783 3.25 6.41608 3.25 6.55974C3.25 6.7034 3.30707 6.84117 3.40865 6.94275C3.51023 7.04434 3.64801 7.10141 3.79167 7.10141H12.4583C12.602 7.10141 12.7398 7.04434 12.8414 6.94275C12.9429 6.84117 13 6.7034 13 6.55974C13 6.41608 12.9429 6.2783 12.8414 6.17672C12.7398 6.07514 12.602 6.01807 12.4583 6.01807Z" fill="#25262D"/>
<path d="M12.4583 9.80994H3.79167C3.64801 9.80994 3.51023 9.867 3.40865 9.96859C3.30707 10.0702 3.25 10.2079 3.25 10.3516C3.25 10.4953 3.30707 10.633 3.40865 10.7346C3.51023 10.8362 3.64801 10.8933 3.79167 10.8933H12.4583C12.602 10.8933 12.7398 10.8362 12.8414 10.7346C12.9429 10.633 13 10.4953 13 10.3516C13 10.2079 12.9429 10.0702 12.8414 9.96859C12.7398 9.867 12.602 9.80994 12.4583 9.80994Z" fill="#25262D"/>
<path d="M1.08333 3.8516C1.68164 3.8516 2.16667 3.36658 2.16667 2.76827C2.16667 2.16996 1.68164 1.68494 1.08333 1.68494C0.485025 1.68494 0 2.16996 0 2.76827C0 3.36658 0.485025 3.8516 1.08333 3.8516Z" fill="#25262D"/>
<path d="M1.08333 7.64347C1.68164 7.64347 2.16667 7.15845 2.16667 6.56014C2.16667 5.96183 1.68164 5.47681 1.08333 5.47681C0.485025 5.47681 0 5.96183 0 6.56014C0 7.15845 0.485025 7.64347 1.08333 7.64347Z" fill="#25262D"/>
<path d="M1.08333 11.4347C1.68164 11.4347 2.16667 10.9497 2.16667 10.3514C2.16667 9.75309 1.68164 9.26807 1.08333 9.26807C0.485025 9.26807 0 9.75309 0 10.3514C0 10.9497 0.485025 11.4347 1.08333 11.4347Z" fill="#25262D"/>
</g>
<defs>
<clipPath id="clip0_212_363">
<rect width="13" height="13" fill="white" transform="translate(0 0.0599365)"/>
</clipPath>
</defs>
</svg>
