<svg xmlns="http://www.w3.org/2000/svg" fill="#999" viewBox="0 0 491 520"><g data-name="Layer 2"><path d="M468.48 142.26v-.06l-2.26-1.62-1.15-.82-174.86-125c-27.55-19.69-61.79-19.69-89.34 0L26 139.78l-1.12.8-2.26 1.62v.06A60.28 60.28 0 000 189.62v249.6a60.79 60.79 0 0060.72 60.72h369.74a60.79 60.79 0 0060.72-60.72v-249.6a60.24 60.24 0 00-22.7-47.36zM219.52 40.8c16.32-11.66 35.81-11.66 52.13 0l164.69 117.72L382.49 197v-10.13a57.24 57.24 0 00-57.18-57.18H165.87a57.25 57.25 0 00-57.19 57.18V197l-53.84-38.48zm131 179.09l-78.84 56.35c-16.32 11.67-35.81 11.67-52.12 0l-78.85-56.35v-33a25.22 25.22 0 0125.19-25.18h159.41a25.21 25.21 0 0125.18 25.18zm108.66 219.33a28.75 28.75 0 01-28.72 28.72H60.72A28.75 28.75 0 0132 439.22v-249.6a28.82 28.82 0 011-7.4l168 120.06a76.57 76.57 0 0044.67 14.77c15.45 0 30.89-4.93 44.67-14.77l168-120.06a28.82 28.82 0 011 7.4z" data-name="Layer 1"/></g></svg>