<svg width="30" height="30" viewBox="0 0 30 30" fill="none" xmlns="http://www.w3.org/2000/svg">
<path d="M28.125 13.125H1.875C0.839473 13.125 0 13.9645 0 15C0 16.0355 0.839473 16.875 1.875 16.875H28.125C29.1605 16.875 30 16.0355 30 15C30 13.9645 29.1605 13.125 28.125 13.125Z" fill="#374957"/>
<path d="M1.875 8.12501H28.125C29.1605 8.12501 30 7.28553 30 6.25C30 5.21447 29.1605 4.375 28.125 4.375H1.875C0.839473 4.375 0 5.21447 0 6.25C0 7.28553 0.839473 8.12501 1.875 8.12501Z" fill="#374957"/>
<path d="M28.125 21.875H1.875C0.839473 21.875 0 22.7145 0 23.75C0 24.7855 0.839473 25.625 1.875 25.625H28.125C29.1605 25.625 30 24.7855 30 23.75C30 22.7145 29.1605 21.875 28.125 21.875Z" fill="#374957"/>
</svg>
