<svg width="24" height="24" viewBox="0 0 24 24" fill="none" xmlns="http://www.w3.org/2000/svg">
<path d="M22.9565 10.9572H1.04346C0.467168 10.9572 0 11.4243 0 12.0006C0 12.5769 0.467168 13.0441 1.04346 13.0441H22.9565C23.5328 13.0441 23.9999 12.5769 23.9999 12.0006C24 11.4243 23.5328 10.9572 22.9565 10.9572Z" fill="#374957"/>
<path d="M1.04346 5.73939H22.9565C23.5328 5.73939 23.9999 5.27222 23.9999 4.69593C23.9999 4.11963 23.5328 3.65247 22.9565 3.65247H1.04346C0.467168 3.65247 0 4.11963 0 4.69593C0 5.27222 0.467168 5.73939 1.04346 5.73939Z" fill="#374957"/>
<path d="M22.9565 18.261H1.04346C0.467168 18.261 0 18.7283 0 19.3046C0 19.8809 0.467168 20.348 1.04346 20.348H22.9565C23.5328 20.348 23.9999 19.8809 23.9999 19.3046C24 18.7283 23.5328 18.261 22.9565 18.261Z" fill="#374957"/>
</svg>
