<svg width="22" height="22" viewBox="0 0 22 22" fill="none" xmlns="http://www.w3.org/2000/svg">
<mask id="path-1-inside-1_167_2026" fill="white">
<path d="M19.7032 11.7705L18.0556 5.87994C17.5727 4.15427 16.5232 2.63851 15.0739 1.57362C13.6246 0.508733 11.8586 -0.0441842 10.0568 0.00276071C8.25496 0.0497057 6.52061 0.693819 5.12944 1.83272C3.73827 2.97161 2.77011 4.53993 2.37885 6.28838L1.10331 11.9885C0.962416 12.6183 0.965674 13.2715 1.11284 13.9C1.26001 14.5284 1.54734 15.1159 1.9536 15.6192C2.35986 16.1225 2.8747 16.5287 3.46009 16.8079C4.04547 17.087 4.68647 17.2319 5.33576 17.2318H6.30174C6.50076 18.2058 7.03249 19.0814 7.80685 19.7104C8.5812 20.3393 9.55055 20.6829 10.5507 20.6829C11.5508 20.6829 12.5201 20.3393 13.2945 19.7104C14.0688 19.0814 14.6006 18.2058 14.7996 17.2318H15.5262C16.1946 17.2319 16.854 17.0784 17.4528 16.7833C18.0516 16.4882 18.5736 16.0595 18.9781 15.5307C19.3826 15.002 19.6586 14.3874 19.7845 13.7351C19.9105 13.0828 19.8829 12.4104 19.7041 11.7705H19.7032ZM10.5507 18.9552C10.0145 18.953 9.49222 18.7863 9.05513 18.4778C8.61803 18.1693 8.28753 17.7341 8.10883 17.2318H12.9925C12.8138 17.7341 12.4833 18.1693 12.0462 18.4778C11.6091 18.7863 11.0868 18.953 10.5507 18.9552ZM17.5969 14.4874C17.3553 14.8059 17.0422 15.0641 16.6826 15.2413C16.323 15.4186 15.9268 15.51 15.5254 15.5085H5.33576C4.94623 15.5084 4.56169 15.4214 4.21052 15.2539C3.85935 15.0864 3.55052 14.8427 3.30682 14.5407C3.06312 14.2387 2.89077 13.8862 2.8025 13.5092C2.71423 13.1322 2.71228 12.7403 2.79681 12.3624L4.07149 6.6615C4.37876 5.28814 5.13919 4.05627 6.2319 3.1617C7.3246 2.26713 8.68688 1.76122 10.1022 1.72437C11.5174 1.68753 12.9045 2.12187 14.0428 2.95836C15.1812 3.79484 16.0055 4.98546 16.3847 6.34095L18.0322 12.2315C18.1411 12.6152 18.1584 13.0189 18.0829 13.4105C18.0073 13.8021 17.8409 14.1708 17.5969 14.4874Z"/>
</mask>
<path d="M19.7032 11.7705L18.0556 5.87994C17.5727 4.15427 16.5232 2.63851 15.0739 1.57362C13.6246 0.508733 11.8586 -0.0441842 10.0568 0.00276071C8.25496 0.0497057 6.52061 0.693819 5.12944 1.83272C3.73827 2.97161 2.77011 4.53993 2.37885 6.28838L1.10331 11.9885C0.962416 12.6183 0.965674 13.2715 1.11284 13.9C1.26001 14.5284 1.54734 15.1159 1.9536 15.6192C2.35986 16.1225 2.8747 16.5287 3.46009 16.8079C4.04547 17.087 4.68647 17.2319 5.33576 17.2318H6.30174C6.50076 18.2058 7.03249 19.0814 7.80685 19.7104C8.5812 20.3393 9.55055 20.6829 10.5507 20.6829C11.5508 20.6829 12.5201 20.3393 13.2945 19.7104C14.0688 19.0814 14.6006 18.2058 14.7996 17.2318H15.5262C16.1946 17.2319 16.854 17.0784 17.4528 16.7833C18.0516 16.4882 18.5736 16.0595 18.9781 15.5307C19.3826 15.002 19.6586 14.3874 19.7845 13.7351C19.9105 13.0828 19.8829 12.4104 19.7041 11.7705H19.7032ZM10.5507 18.9552C10.0145 18.953 9.49222 18.7863 9.05513 18.4778C8.61803 18.1693 8.28753 17.7341 8.10883 17.2318H12.9925C12.8138 17.7341 12.4833 18.1693 12.0462 18.4778C11.6091 18.7863 11.0868 18.953 10.5507 18.9552ZM17.5969 14.4874C17.3553 14.8059 17.0422 15.0641 16.6826 15.2413C16.323 15.4186 15.9268 15.51 15.5254 15.5085H5.33576C4.94623 15.5084 4.56169 15.4214 4.21052 15.2539C3.85935 15.0864 3.55052 14.8427 3.30682 14.5407C3.06312 14.2387 2.89077 13.8862 2.8025 13.5092C2.71423 13.1322 2.71228 12.7403 2.79681 12.3624L4.07149 6.6615C4.37876 5.28814 5.13919 4.05627 6.2319 3.1617C7.3246 2.26713 8.68688 1.76122 10.1022 1.72437C11.5174 1.68753 12.9045 2.12187 14.0428 2.95836C15.1812 3.79484 16.0055 4.98546 16.3847 6.34095L18.0322 12.2315C18.1411 12.6152 18.1584 13.0189 18.0829 13.4105C18.0073 13.8021 17.8409 14.1708 17.5969 14.4874Z" fill="#292929"/>
<path d="M19.7032 11.7705L17.7771 12.3092L18.1858 13.7705H19.7032V11.7705ZM18.0556 5.87994L19.9817 5.34123L19.9817 5.34097L18.0556 5.87994ZM2.37885 6.28838L4.33058 6.72514L4.33059 6.72512L2.37885 6.28838ZM1.10331 11.9885L-0.848418 11.5517L-0.84845 11.5519L1.10331 11.9885ZM5.33576 17.2318V15.2318H5.3357L5.33576 17.2318ZM6.30174 17.2318L8.26125 16.8314L7.93439 15.2318H6.30174V17.2318ZM14.7996 17.2318V15.2318H13.1669L12.8401 16.8314L14.7996 17.2318ZM15.5262 17.2318L15.5264 15.2318H15.5262V17.2318ZM19.7041 11.7705L21.6302 11.2321L21.2217 9.77045H19.7041V11.7705ZM8.10883 17.2318V15.2318H5.27448L6.22453 17.9022L8.10883 17.2318ZM12.9925 17.2318L14.8768 17.9022L15.8268 15.2318H12.9925V17.2318ZM15.5254 15.5085L15.5332 13.5085H15.5254V15.5085ZM5.33576 15.5085L5.33542 17.5085H5.33576V15.5085ZM2.79681 12.3624L4.74857 12.799L4.74862 12.7988L2.79681 12.3624ZM4.07149 6.6615L2.11974 6.22482L2.11968 6.22509L4.07149 6.6615ZM16.3847 6.34095L18.3108 5.80223L18.3107 5.80212L16.3847 6.34095ZM18.0322 12.2315L16.1061 12.7702L16.1081 12.7773L18.0322 12.2315ZM21.6293 11.2317L19.9817 5.34123L16.1296 6.41866L17.7771 12.3092L21.6293 11.2317ZM19.9817 5.34097C19.3778 3.18317 18.0662 1.2904 16.2581 -0.0380936L13.8897 3.18534C14.9802 3.98663 15.7676 5.12536 16.1296 6.41892L19.9817 5.34097ZM16.2581 -0.0380936C14.4503 -1.36642 12.2492 -2.05504 10.0047 -1.99656L10.1089 2.00208C11.4681 1.96667 12.7989 2.38389 13.8897 3.18534L16.2581 -0.0380936ZM10.0047 -1.99656C7.76022 -1.93808 5.5982 -1.13577 3.86252 0.285163L6.39636 3.38027C7.44302 2.52341 8.74969 2.03749 10.1089 2.00208L10.0047 -1.99656ZM3.86252 0.285163C2.12661 1.70628 0.9164 3.66513 0.427123 5.85164L4.33059 6.72512C4.62381 5.41473 5.34992 4.23694 6.39636 3.38027L3.86252 0.285163ZM0.427125 5.85163L-0.848418 11.5517L3.05504 12.4252L4.33058 6.72514L0.427125 5.85163ZM-0.84845 11.5519C-1.05513 12.4758 -1.05035 13.4342 -0.83447 14.356L3.06016 13.4439C2.9817 13.1089 2.97997 12.7608 3.05507 12.4251L-0.84845 11.5519ZM-0.83447 14.356C-0.618594 15.2778 -0.197337 16.1387 0.397342 16.8754L3.50986 14.363C3.29201 14.0931 3.13862 13.779 3.06016 13.4439L-0.83447 14.356ZM0.397342 16.8754C0.991982 17.6121 1.74471 18.2057 2.59932 18.6131L4.32085 15.0026C4.00469 14.8518 3.72775 14.633 3.50986 14.363L0.397342 16.8754ZM2.59932 18.6131C3.4539 19.0206 4.38903 19.2319 5.33581 19.2318L5.3357 15.2318C4.98391 15.2319 4.63705 15.1533 4.32085 15.0026L2.59932 18.6131ZM5.33576 19.2318H6.30174V15.2318H5.33576V19.2318ZM4.34223 17.6322C4.63422 19.0612 5.41387 20.3433 6.54592 21.2628L9.06777 18.1579C8.65112 17.8195 8.36729 17.3504 8.26125 16.8314L4.34223 17.6322ZM6.54592 21.2628C7.67771 22.1821 9.09259 22.6829 10.5507 22.6829V18.6829C10.0085 18.6829 9.48469 18.4966 9.06777 18.1579L6.54592 21.2628ZM10.5507 22.6829C12.0087 22.6829 13.4236 22.1821 14.5554 21.2628L12.0335 18.1579C11.6166 18.4966 11.0928 18.6829 10.5507 18.6829V22.6829ZM14.5554 21.2628C15.6875 20.3433 16.4671 19.0612 16.7591 17.6322L12.8401 16.8314C12.734 17.3504 12.4502 17.8195 12.0335 18.1579L14.5554 21.2628ZM14.7996 19.2318H15.5262V15.2318H14.7996V19.2318ZM15.5261 19.2318C16.5007 19.2319 17.4627 19.0081 18.3369 18.5773L16.5687 14.9893C16.2453 15.1487 15.8885 15.2319 15.5264 15.2318L15.5261 19.2318ZM18.3369 18.5773C19.2111 18.1464 19.9745 17.52 20.5666 16.7459L17.3896 14.3156C17.1728 14.599 16.892 14.8299 16.5687 14.9893L18.3369 18.5773ZM20.5666 16.7459C21.1588 15.9718 21.5635 15.0712 21.7483 14.1142L17.8208 13.356C17.7537 13.7037 17.6064 14.0322 17.3896 14.3156L20.5666 16.7459ZM21.7483 14.1142C21.933 13.1573 21.8926 12.1708 21.6302 11.2321L17.7779 12.3088C17.8732 12.6501 17.8879 13.0084 17.8208 13.356L21.7483 14.1142ZM19.7041 9.77045H19.7032V13.7705H19.7041V9.77045ZM10.5589 16.9552C10.432 16.9547 10.3096 16.9152 10.2084 16.8438L7.90188 20.1118C8.67484 20.6573 9.59707 20.9513 10.5424 20.9552L10.5589 16.9552ZM10.2084 16.8438C10.1073 16.7724 10.0329 16.6733 9.99313 16.5615L6.22453 17.9022C6.54213 18.7949 7.12875 19.5661 7.90188 20.1118L10.2084 16.8438ZM8.10883 19.2318H12.9925V15.2318H8.10883V19.2318ZM11.1082 16.5615C11.0684 16.6733 10.994 16.7724 10.8929 16.8438L13.1994 20.1118C13.9726 19.5661 14.5592 18.7949 14.8768 17.9022L11.1082 16.5615ZM10.8929 16.8438C10.7917 16.9152 10.6693 16.9547 10.5424 16.9552L10.5589 20.9552C11.5043 20.9513 12.4265 20.6573 13.1994 20.1118L10.8929 16.8438ZM16.0035 13.2787C15.9502 13.349 15.8802 13.4071 15.7984 13.4474L17.5669 17.0352C18.2043 16.721 18.7605 16.2628 19.1904 15.6961L16.0035 13.2787ZM15.7984 13.4474C15.7166 13.4877 15.6257 13.5088 15.5332 13.5085L15.5175 17.5084C16.2278 17.5112 16.9295 17.3494 17.5669 17.0352L15.7984 13.4474ZM15.5254 13.5085H5.33576V17.5085H15.5254V13.5085ZM5.3361 13.5085C5.24403 13.5084 5.15358 13.4879 5.07155 13.4487L3.34949 17.0591C3.9698 17.3549 4.64843 17.5083 5.33542 17.5085L5.3361 13.5085ZM5.07155 13.4487C4.98957 13.4096 4.91857 13.3533 4.86321 13.2846L1.75044 15.7968C2.18247 16.3321 2.72914 16.7632 3.34949 17.0591L5.07155 13.4487ZM4.86321 13.2846C4.80787 13.2161 4.76942 13.1369 4.74984 13.0533L0.855164 13.9652C1.01212 14.6355 1.31837 15.2614 1.75044 15.7968L4.86321 13.2846ZM4.74984 13.0533C4.73025 12.9696 4.72983 12.8828 4.74857 12.799L0.845049 11.9258C0.69474 12.5977 0.698201 13.2948 0.855164 13.9652L4.74984 13.0533ZM4.74862 12.7988L6.02329 7.0979L2.11968 6.22509L0.845003 11.926L4.74862 12.7988ZM6.02323 7.09817C6.23249 6.1629 6.75087 5.32157 7.49882 4.70924L4.96497 1.61415C3.52751 2.79096 2.52502 4.41338 2.11974 6.22482L6.02323 7.09817ZM7.49882 4.70924C8.24701 4.09673 9.18159 3.74901 10.1542 3.72369L10.0501 -0.274951C8.19217 -0.226584 6.4022 0.437536 4.96497 1.61415L7.49882 4.70924ZM10.1542 3.72369C11.1268 3.69837 12.0787 3.997 12.8586 4.57002L15.2271 1.3467C13.7303 0.246747 11.908 -0.323319 10.0501 -0.274951L10.1542 3.72369ZM12.8586 4.57002C13.6381 5.14287 14.2003 5.95644 14.4586 6.87978L18.3107 5.80212C17.8106 4.01449 16.7242 2.44682 15.2271 1.3467L12.8586 4.57002ZM14.4586 6.87966L16.1061 12.7702L19.9583 11.6927L18.3108 5.80223L14.4586 6.87966ZM16.1081 12.7773C16.1317 12.8602 16.1354 12.9472 16.1191 13.0316L20.0466 13.7895C20.1815 13.0907 20.1505 12.3703 19.9563 11.6857L16.1081 12.7773ZM16.1191 13.0316C16.1028 13.116 16.0668 13.1965 16.0129 13.2664L19.181 15.7084C19.6151 15.1452 19.9118 14.4882 20.0466 13.7895L16.1191 13.0316Z" fill="#292929" mask="url(#path-1-inside-1_167_2026)"/>
</svg>
