<svg width="21" height="20" viewBox="0 0 21 20" fill="none" xmlns="http://www.w3.org/2000/svg">
<mask id="path-1-inside-1_12_4" fill="white">
<path d="M18.138 10.8605L16.6132 5.42633C16.1663 3.83436 15.195 2.43604 13.8538 1.45366C12.5125 0.471271 10.8782 -0.0388078 9.21071 0.00449994C7.5432 0.0478077 5.93815 0.642017 4.65069 1.69267C3.36323 2.74333 2.46725 4.19014 2.10516 5.80313L0.924711 11.0616C0.79432 11.6426 0.797335 12.2453 0.933532 12.825C1.06973 13.4047 1.33563 13.9467 1.71161 14.4111C2.08759 14.8754 2.56404 15.2501 3.10579 15.5076C3.64754 15.7651 4.24075 15.8987 4.84163 15.8987H5.73559C5.91978 16.7972 6.41187 17.605 7.1285 18.1852C7.84512 18.7655 8.74221 19.0824 9.66776 19.0824C10.5933 19.0824 11.4904 18.7655 12.207 18.1852C12.9236 17.605 13.4157 16.7972 13.5999 15.8987H14.2724C14.891 15.8988 15.5012 15.7571 16.0553 15.4849C16.6095 15.2127 17.0926 14.8172 17.4669 14.3294C17.8413 13.8416 18.0967 13.2747 18.2132 12.6729C18.3298 12.0712 18.3043 11.4509 18.1388 10.8605H18.138ZM9.66776 17.4886C9.17161 17.4865 8.68822 17.3327 8.28372 17.0481C7.87921 16.7635 7.57335 16.3621 7.40797 15.8987H11.9275C11.7622 16.3621 11.4563 16.7635 11.0518 17.0481C10.6473 17.3327 10.1639 17.4865 9.66776 17.4886ZM16.1887 13.3669C15.9651 13.6607 15.6754 13.8989 15.3426 14.0624C15.0098 14.2259 14.6431 14.3103 14.2716 14.3089H4.84163C4.48114 14.3088 4.12527 14.2285 3.80028 14.074C3.47529 13.9195 3.18948 13.6947 2.96395 13.4161C2.73842 13.1375 2.57892 12.8123 2.49722 12.4645C2.41553 12.1167 2.41373 11.7552 2.49196 11.4066L3.67161 6.14733C3.95597 4.88038 4.65971 3.74395 5.67096 2.91869C6.68221 2.09343 7.94292 1.62671 9.25269 1.59272C10.5625 1.55874 11.8461 1.95943 12.8996 2.73111C13.9531 3.50278 14.7159 4.60116 15.0669 5.85162L16.5916 11.2857C16.6923 11.6398 16.7084 12.0122 16.6384 12.3735C16.5685 12.7347 16.4145 13.0749 16.1887 13.3669Z"/>
</mask>
<path d="M18.138 10.8605L16.6132 5.42633C16.1663 3.83436 15.195 2.43604 13.8538 1.45366C12.5125 0.471271 10.8782 -0.0388078 9.21071 0.00449994C7.5432 0.0478077 5.93815 0.642017 4.65069 1.69267C3.36323 2.74333 2.46725 4.19014 2.10516 5.80313L0.924711 11.0616C0.79432 11.6426 0.797335 12.2453 0.933532 12.825C1.06973 13.4047 1.33563 13.9467 1.71161 14.4111C2.08759 14.8754 2.56404 15.2501 3.10579 15.5076C3.64754 15.7651 4.24075 15.8987 4.84163 15.8987H5.73559C5.91978 16.7972 6.41187 17.605 7.1285 18.1852C7.84512 18.7655 8.74221 19.0824 9.66776 19.0824C10.5933 19.0824 11.4904 18.7655 12.207 18.1852C12.9236 17.605 13.4157 16.7972 13.5999 15.8987H14.2724C14.891 15.8988 15.5012 15.7571 16.0553 15.4849C16.6095 15.2127 17.0926 14.8172 17.4669 14.3294C17.8413 13.8416 18.0967 13.2747 18.2132 12.6729C18.3298 12.0712 18.3043 11.4509 18.1388 10.8605H18.138ZM9.66776 17.4886C9.17161 17.4865 8.68822 17.3327 8.28372 17.0481C7.87921 16.7635 7.57335 16.3621 7.40797 15.8987H11.9275C11.7622 16.3621 11.4563 16.7635 11.0518 17.0481C10.6473 17.3327 10.1639 17.4865 9.66776 17.4886ZM16.1887 13.3669C15.9651 13.6607 15.6754 13.8989 15.3426 14.0624C15.0098 14.2259 14.6431 14.3103 14.2716 14.3089H4.84163C4.48114 14.3088 4.12527 14.2285 3.80028 14.074C3.47529 13.9195 3.18948 13.6947 2.96395 13.4161C2.73842 13.1375 2.57892 12.8123 2.49722 12.4645C2.41553 12.1167 2.41373 11.7552 2.49196 11.4066L3.67161 6.14733C3.95597 4.88038 4.65971 3.74395 5.67096 2.91869C6.68221 2.09343 7.94292 1.62671 9.25269 1.59272C10.5625 1.55874 11.8461 1.95943 12.8996 2.73111C13.9531 3.50278 14.7159 4.60116 15.0669 5.85162L16.5916 11.2857C16.6923 11.6398 16.7084 12.0122 16.6384 12.3735C16.5685 12.7347 16.4145 13.0749 16.1887 13.3669Z" fill="#292929"/>
<path d="M18.138 10.8605L16.2123 11.4008L16.6219 12.8605H18.138V10.8605ZM16.6132 5.42633L18.5389 4.88604L18.5388 4.88578L16.6132 5.42633ZM2.10516 5.80313L4.0566 6.2412L4.0566 6.24119L2.10516 5.80313ZM0.924711 11.0616L-1.02672 10.6235L-1.02676 10.6237L0.924711 11.0616ZM4.84163 15.8987V13.8987H4.84157L4.84163 15.8987ZM5.73559 15.8987L7.69485 15.4971L7.3672 13.8987H5.73559V15.8987ZM13.5999 15.8987V13.8987H11.9683L11.6407 15.4971L13.5999 15.8987ZM14.2724 15.8987L14.2725 13.8987H14.2724V15.8987ZM18.1388 10.8605L20.0645 10.3205L19.6551 8.86046H18.1388V10.8605ZM7.40797 15.8987V13.8987H4.5706L5.52434 16.571L7.40797 15.8987ZM11.9275 15.8987L13.8112 16.571L14.7649 13.8987H11.9275V15.8987ZM14.2716 14.3089L14.2794 12.3089H14.2716V14.3089ZM4.84163 14.3089L4.84129 16.3089H4.84163V14.3089ZM2.49196 11.4066L4.44343 11.8445L4.44347 11.8443L2.49196 11.4066ZM3.67161 6.14733L1.72016 5.70934L1.7201 5.70961L3.67161 6.14733ZM15.0669 5.85162L16.9925 5.31132L16.9925 5.31121L15.0669 5.85162ZM16.5916 11.2857L14.6659 11.8261L14.6679 11.8331L16.5916 11.2857ZM20.0636 10.3202L18.5389 4.88604L14.6876 5.96663L16.2123 11.4008L20.0636 10.3202ZM18.5388 4.88578C17.9702 2.86047 16.7356 1.08535 15.0356 -0.159848L12.672 3.06716C13.6544 3.78674 14.3624 4.80825 14.6877 5.96689L18.5388 4.88578ZM15.0356 -0.159848C13.3358 -1.40479 11.2673 -2.04959 9.15879 -1.99483L9.26264 2.00383C10.4891 1.97197 11.6892 2.34734 12.672 3.06716L15.0356 -0.159848ZM9.15879 -1.99483C7.05025 -1.94006 5.01827 -1.18875 3.38617 0.143157L5.9152 3.24219C6.85802 2.47278 8.03616 2.03568 9.26264 2.00383L9.15879 -1.99483ZM3.38617 0.143157C1.75373 1.47534 0.61445 3.31267 0.153726 5.36507L4.0566 6.24119C4.32004 5.06762 4.97272 4.01132 5.9152 3.24219L3.38617 0.143157ZM0.153729 5.36506L-1.02672 10.6235L2.87614 11.4997L4.0566 6.2412L0.153729 5.36506ZM-1.02676 10.6237C-1.22334 11.4997 -1.21879 12.4084 -1.01346 13.2824L2.88052 12.3676C2.81346 12.0821 2.81198 11.7856 2.87618 11.4995L-1.02676 10.6237ZM-1.01346 13.2824C-0.80814 14.1563 -0.407596 14.9721 0.1573 15.6697L3.26592 13.1524C3.07886 12.9214 2.9476 12.6531 2.88052 12.3676L-1.01346 13.2824ZM0.1573 15.6697C0.722138 16.3672 1.43668 16.9287 2.24725 17.3139L3.96433 13.7012C3.6914 13.5715 3.45304 13.3835 3.26592 13.1524L0.1573 15.6697ZM2.24725 17.3139C3.05775 17.6992 3.94432 17.8987 4.84168 17.8987L4.84157 13.8987C4.53718 13.8987 4.23732 13.831 3.96433 13.7012L2.24725 17.3139ZM4.84163 17.8987H5.73559V13.8987H4.84163V17.8987ZM3.77633 16.3003C4.05408 17.6553 4.79541 18.8696 5.86998 19.7396L8.38702 16.6308C8.02833 16.3404 7.78547 15.9391 7.69485 15.4971L3.77633 16.3003ZM5.86998 19.7396C6.94415 20.6093 8.28593 21.0824 9.66776 21.0824V17.0824C9.19849 17.0824 8.7461 16.9216 8.38702 16.6308L5.86998 19.7396ZM9.66776 21.0824C11.0496 21.0824 12.3914 20.6093 13.4655 19.7396L10.9485 16.6308C10.5894 16.9216 10.137 17.0824 9.66776 17.0824V21.0824ZM13.4655 19.7396C14.5401 18.8696 15.2814 17.6553 15.5592 16.3003L11.6407 15.4971C11.55 15.9391 11.3072 16.3404 10.9485 16.6308L13.4655 19.7396ZM13.5999 17.8987H14.2724V13.8987H13.5999V17.8987ZM14.2723 17.8987C15.196 17.8988 16.108 17.6873 16.9372 17.28L15.1735 13.6898C14.8943 13.827 14.5859 13.8987 14.2725 13.8987L14.2723 17.8987ZM16.9372 17.28C17.7664 16.8727 18.4911 16.28 19.0536 15.547L15.8803 13.1118C15.6941 13.3544 15.4526 13.5527 15.1735 13.6898L16.9372 17.28ZM19.0536 15.547C19.6162 14.8139 20.001 13.9605 20.1768 13.0532L16.2497 12.2927C16.1924 12.5889 16.0664 12.8693 15.8803 13.1118L19.0536 15.547ZM20.1768 13.0532C20.3525 12.1458 20.314 11.2104 20.0645 10.3205L16.213 11.4004C16.2946 11.6913 16.3071 11.9965 16.2497 12.2927L20.1768 13.0532ZM18.1388 8.86046H18.138V12.8605H18.1388V8.86046ZM9.67597 15.4886C9.5876 15.4882 9.50326 15.4607 9.43453 15.4124L7.13291 18.6839C7.87319 19.2047 8.75563 19.4848 9.65954 19.4886L9.67597 15.4886ZM9.43453 15.4124C9.36604 15.3642 9.3173 15.2985 9.29159 15.2264L5.52434 16.571C5.82939 17.4257 6.39238 18.1629 7.13291 18.6839L9.43453 15.4124ZM7.40797 17.8987H11.9275V13.8987H7.40797V17.8987ZM10.0439 15.2264C10.0182 15.2985 9.96948 15.3642 9.90099 15.4124L12.2026 18.6839C12.9431 18.1629 13.5061 17.4257 13.8112 16.571L10.0439 15.2264ZM9.90099 15.4124C9.83225 15.4607 9.74792 15.4882 9.65954 15.4886L9.67597 19.4886C10.5799 19.4848 11.4623 19.2047 12.2026 18.6839L9.90099 15.4124ZM14.5971 12.1557C14.5623 12.2015 14.516 12.2402 14.4606 12.2674L16.2246 15.8574C16.8348 15.5576 17.3679 15.12 17.7803 14.578L14.5971 12.1557ZM14.4606 12.2674C14.4052 12.2946 14.3431 12.3091 14.2794 12.3089L14.2638 16.3088C14.9431 16.3115 15.6144 16.1572 16.2246 15.8574L14.4606 12.2674ZM14.2716 12.3089H4.84163V16.3089H14.2716V12.3089ZM4.84197 12.3089C4.77793 12.3089 4.71537 12.2946 4.65909 12.2678L2.94147 15.8802C3.53517 16.1625 4.18435 16.3087 4.84129 16.3089L4.84197 12.3089ZM4.65909 12.2678C4.60287 12.2411 4.5551 12.203 4.51839 12.1576L1.40951 14.6745C1.82386 15.1863 2.34771 15.5979 2.94147 15.8802L4.65909 12.2678ZM4.51839 12.1576C4.48173 12.1123 4.45683 12.0608 4.44424 12.0072L0.550211 12.9218C0.701001 13.5638 0.995104 14.1627 1.40951 14.6745L4.51839 12.1576ZM4.44424 12.0072C4.43166 11.9536 4.43138 11.8982 4.44343 11.8445L0.540493 10.9687C0.396083 11.6122 0.39941 12.2798 0.550211 12.9218L4.44424 12.0072ZM4.44347 11.8443L5.62312 6.58506L1.7201 5.70961L0.540448 10.9689L4.44347 11.8443ZM5.62306 6.58533C5.80879 5.75781 6.26923 5.01192 6.93548 4.4682L4.40643 1.36918C3.0502 2.47598 2.10315 4.00295 1.72016 5.70934L5.62306 6.58533ZM6.93548 4.4682C7.60208 3.92421 8.43585 3.6146 9.30458 3.59205L9.20081 -0.406602C7.44999 -0.361168 5.76233 0.262661 4.40643 1.36918L6.93548 4.4682ZM9.30458 3.59205C10.1733 3.56951 11.0227 3.83546 11.7177 4.34455L14.0815 1.11766C12.6695 0.0833906 10.9516 -0.452037 9.20081 -0.406602L9.30458 3.59205ZM11.7177 4.34455C12.4124 4.85339 12.9119 5.57493 13.1413 6.39203L16.9925 5.31121C16.5199 3.62739 15.4938 2.15217 14.0815 1.11766L11.7177 4.34455ZM13.1412 6.39192L14.6659 11.826L18.5172 10.7455L16.9925 5.31132L13.1412 6.39192ZM14.6679 11.8331C14.6829 11.8855 14.6852 11.9403 14.6749 11.9934L18.602 12.7536C18.7316 12.0842 18.7018 11.394 18.5152 10.7383L14.6679 11.8331ZM14.6749 11.9934C14.6646 12.0466 14.6417 12.098 14.6066 12.1434L17.7709 14.5903C18.1874 14.0517 18.4724 13.4229 18.602 12.7536L14.6749 11.9934Z" fill="#292929" mask="url(#path-1-inside-1_12_4)"/>
</svg>
