<svg width="17" height="17" viewBox="0 0 17 17" fill="none" xmlns="http://www.w3.org/2000/svg">
<path d="M16.9892 5.14268C16.9892 5.02981 17.147 5.33423 14.1172 0.210468C13.9514 -0.0734248 14.6997 0.0120852 3.23604 0.0120852C2.88008 0.0120852 3.07424 -0.134992 0.0444955 4.98877C-4.21932e-08 5.09822 0 4.91694 0 16.088C0 16.1787 0.0426174 16.2657 0.118477 16.3298C0.194336 16.394 0.297224 16.43 0.404505 16.43H16.5847C16.692 16.43 16.7949 16.394 16.8707 16.3298C16.9466 16.2657 16.9892 16.1787 16.9892 16.088C16.9892 1.62993 17.0135 5.95674 16.9892 5.14268ZM15.9335 4.80064H10.8933L10.5454 0.696165H13.5024L15.9335 4.80064ZM8.49461 8.18C7.57638 7.79349 7.87571 7.80718 6.87659 8.08765V5.48472H10.1126V8.08765C9.11754 7.80718 9.41283 7.79349 8.49461 8.18ZM9.73644 0.696165L10.0843 4.80064H6.93726L7.63301 0.696165H9.73644ZM3.48683 0.696165H6.81591L6.12016 4.80064H1.0598L3.48683 0.696165ZM16.1802 15.7459H0.80901V5.48472H6.06758C6.06758 8.82303 6.03926 8.61781 6.13634 8.74436C6.17466 8.79058 6.22467 8.82898 6.28275 8.85679C6.34083 8.8846 6.40551 8.90111 6.47208 8.90512C6.56916 8.90512 7.54806 8.62123 7.65324 8.59045C8.65236 9.01458 8.35707 9.00431 9.33598 8.59045C10.4645 8.90854 10.4281 8.90512 10.5171 8.90512C10.6141 8.90618 10.7083 8.87775 10.7825 8.82501C10.8568 8.77228 10.9061 8.69874 10.9216 8.61781C10.9216 8.52204 10.9216 8.98037 10.9216 5.48472H16.1802V15.7459Z" fill="white"/>
<path d="M11.7307 15.0618H14.9667C15.074 15.0618 15.1769 15.0257 15.2527 14.9616C15.3286 14.8974 15.3712 14.8104 15.3712 14.7197V12.6675C15.3712 12.5768 15.3286 12.4898 15.2527 12.4256C15.1769 12.3615 15.074 12.3254 14.9667 12.3254H11.7307C11.6234 12.3254 11.5205 12.3615 11.4446 12.4256C11.3688 12.4898 11.3262 12.5768 11.3262 12.6675V14.7197C11.3262 14.8104 11.3688 14.8974 11.4446 14.9616C11.5205 15.0257 11.6234 15.0618 11.7307 15.0618ZM12.1352 13.0095H14.5622V14.3777H12.1352V13.0095Z" fill="white"/>
<path d="M2.02267 14.0356H4.4497C4.55698 14.0356 4.65987 13.9996 4.73573 13.9355C4.81159 13.8713 4.8542 13.7843 4.8542 13.6936C4.8542 13.6029 4.81159 13.5159 4.73573 13.4517C4.65987 13.3876 4.55698 13.3516 4.4497 13.3516H2.02267C1.91539 13.3516 1.8125 13.3876 1.73664 13.4517C1.66078 13.5159 1.61816 13.6029 1.61816 13.6936C1.61816 13.7843 1.66078 13.8713 1.73664 13.9355C1.8125 13.9996 1.91539 14.0356 2.02267 14.0356Z" fill="white"/>
<path d="M5.25871 14.3779H2.02267C1.91539 14.3779 1.8125 14.414 1.73664 14.4781C1.66078 14.5423 1.61816 14.6293 1.61816 14.72C1.61816 14.8107 1.66078 14.8977 1.73664 14.9618C1.8125 15.026 1.91539 15.062 2.02267 15.062H5.25871C5.36599 15.062 5.46888 15.026 5.54474 14.9618C5.6206 14.8977 5.66321 14.8107 5.66321 14.72C5.66321 14.6293 5.6206 14.5423 5.54474 14.4781C5.46888 14.414 5.36599 14.3779 5.25871 14.3779Z" fill="white"/>
</svg>
