<svg xmlns="http://www.w3.org/2000/svg" fill="#999" viewBox="0 0 488.89 488.89"><g data-name="Layer 2"><g data-name="Layer 1"><path d="M380.6 0H108.29A108.41 108.41 0 000 108.29V380.6a108.41 108.41 0 00108.29 108.29H380.6A108.41 108.41 0 00488.89 380.6V108.29A108.41 108.41 0 00380.6 0zm76.29 380.6a76.37 76.37 0 01-76.29 76.29H108.29A76.37 76.37 0 0132 380.6V108.29A76.37 76.37 0 01108.29 32H380.6a76.37 76.37 0 0176.29 76.29z"/><path d="M322 193.42v-28.19a74.05 74.05 0 00-74-74h-7.25a74.05 74.05 0 00-74 74v28.19A113.79 113.79 0 00236 397.63h16.9A113.8 113.8 0 00322 193.42zm-123.15-28.19a42 42 0 0142-42h7.25a42 42 0 0142 42v10.94a113.44 113.44 0 00-37.21-6.17H236a113.38 113.38 0 00-37.14 6.22zm54 200.4H236A81.84 81.84 0 01236 202h16.9a81.84 81.84 0 110 163.68z"/><path d="M244.44 274a16 16 0 00-16 16v32a16 16 0 0032 0v-32a16 16 0 00-16-16z"/></g></g></svg>