<svg width="17" height="17" viewBox="0 0 17 17" fill="none" xmlns="http://www.w3.org/2000/svg">
<g clip-path="url(#clip0_26_267)">
<path fill-rule="evenodd" clip-rule="evenodd" d="M15.5349 13.634C15.5349 13.7738 15.4214 13.8886 15.2803 13.8886H13.6437L13.4735 13.165H14.8099V6.86475C14.8099 6.84815 14.8113 6.83154 14.8141 6.81633L8.52485 2.57048L2.11249 6.81771C2.11802 6.83846 2.12079 6.8606 2.12079 6.88273V13.1623H3.4835L3.35623 13.8858H1.65041C1.51068 13.8858 1.39586 13.7724 1.39586 13.6313V7.14836C1.11086 7.25765 0.846621 7.25903 0.625267 7.18571C0.452334 7.12761 0.30707 7.02385 0.200543 6.88827C0.0940167 6.75407 0.026227 6.58944 0.00547501 6.40959C-0.0249612 6.12875 0.0594301 5.81055 0.297386 5.5131C0.309837 5.49789 0.323672 5.48405 0.33889 5.4716L8.30764 0.0664072C8.39757 -0.0166006 8.53592 -0.0249014 8.63552 0.0525726L16.6195 5.4467C16.6306 5.455 16.6402 5.46468 16.6499 5.47437C16.9709 5.82023 17.0511 6.20345 16.9737 6.52857C16.9349 6.68766 16.8588 6.83293 16.7537 6.95052C16.6485 7.0695 16.5144 7.16081 16.3608 7.21615C16.1173 7.30469 15.8295 7.30054 15.5362 7.16219C15.5349 9.3204 15.5349 11.4772 15.5349 13.634ZM7.6671 7.07918C7.49417 6.57007 7.33922 6.05404 7.20779 5.53109C7.69754 4.9943 9.58873 5.06486 10.1324 5.52279L9.62885 6.72087C9.90001 6.36532 9.99132 6.21867 10.1518 6.02084C10.2196 6.06511 10.2832 6.11491 10.3441 6.17025C10.488 6.30029 10.6153 6.44279 10.6415 6.64339C10.6581 6.77344 10.6208 6.90487 10.506 7.03906L9.35078 8.38517C9.20136 8.36027 9.0561 8.32569 8.91498 8.2745C8.98001 8.12093 9.05886 7.95077 9.12527 7.79582L8.7047 8.2496C8.26614 8.1569 7.91336 8.21224 7.58548 8.38656L6.41368 6.97958C6.34451 6.89518 6.31269 6.81218 6.31269 6.72779C6.31407 6.38745 6.82042 6.09416 7.08605 5.98348L7.6671 7.07918ZM9.16954 9.62061L8.94127 8.57471C9.92076 8.75733 11.491 10.7495 11.9987 11.6557C12.2574 12.1178 12.4843 12.6283 12.6697 13.1969C13.0391 14.5748 12.6835 15.8656 11.188 16.1658C10.2514 16.3539 8.5041 16.3678 7.51769 16.3166C6.45795 16.2612 4.81855 16.264 4.39106 15.1752C3.69932 13.4196 4.96658 11.3278 6.12039 10.0481C6.27257 9.87932 6.4289 9.72298 6.59215 9.57772C7.01272 9.20834 7.46511 8.76978 8.00605 8.58716L7.48448 9.55974L8.24262 8.55396H8.64244L9.16954 9.62061ZM8.68256 10.4784V10.6637C8.87901 10.6845 9.0478 10.7246 9.18614 10.7841C9.32726 10.845 9.449 10.9363 9.55414 11.058C9.63715 11.1521 9.70079 11.2489 9.74506 11.3472C9.79072 11.4468 9.81285 11.5367 9.81285 11.6183C9.81285 11.7096 9.77965 11.7899 9.71324 11.8563C9.64545 11.9227 9.56521 11.9559 9.46975 11.9559C9.2899 11.9559 9.17231 11.8591 9.11974 11.664C9.05886 11.4357 8.9136 11.2821 8.68256 11.2074V12.3502C8.90945 12.4124 9.09068 12.4692 9.22488 12.5203C9.36046 12.5715 9.48082 12.6449 9.58596 12.7431C9.69941 12.8427 9.78795 12.9644 9.84882 13.1042C9.9097 13.2453 9.94013 13.3975 9.94013 13.5649C9.94013 13.7738 9.89171 13.9688 9.79348 14.1501C9.69526 14.3327 9.55138 14.4807 9.36046 14.5969C9.16954 14.7118 8.94404 14.7809 8.68118 14.8017V14.9884C8.68118 15.0964 8.67011 15.1752 8.64936 15.225C8.62861 15.2748 8.58295 15.2997 8.51101 15.2997C8.44599 15.2997 8.39895 15.2804 8.37267 15.2402C8.34638 15.2001 8.33393 15.1379 8.33393 15.0535V14.81C8.12088 14.7865 7.93272 14.7353 7.77224 14.6592C7.61176 14.5817 7.47757 14.4862 7.37104 14.3728C7.26451 14.258 7.18427 14.139 7.13447 14.0159C7.08328 13.8927 7.05699 13.771 7.05699 13.6506C7.05699 13.5635 7.0902 13.4832 7.16075 13.4141C7.22854 13.3435 7.31432 13.3075 7.41669 13.3075C7.4997 13.3075 7.56887 13.3269 7.6256 13.3643C7.68232 13.403 7.72106 13.457 7.74319 13.5261C7.79161 13.6755 7.8345 13.7918 7.87185 13.8706C7.90921 13.9508 7.96454 14.0228 8.03925 14.0892C8.11396 14.1542 8.21218 14.2054 8.33393 14.24V12.9631C8.08767 12.8953 7.8843 12.8192 7.71967 12.7362C7.55504 12.6532 7.42084 12.5342 7.31847 12.3806C7.21609 12.2271 7.1649 12.0292 7.1649 11.7871C7.1649 11.4717 7.26451 11.213 7.46511 11.0124C7.66572 10.8104 7.95486 10.6942 8.33393 10.661V10.4811C8.33393 10.3276 8.39204 10.2501 8.50686 10.2501C8.62446 10.2542 8.68256 10.3289 8.68256 10.4784ZM8.33393 12.2506V11.1991C8.18037 11.2448 8.06 11.3057 7.97423 11.3804C7.88845 11.4551 7.84557 11.5699 7.84557 11.7221C7.84557 11.866 7.88569 11.9766 7.96593 12.05C8.04617 12.1233 8.1693 12.1911 8.33393 12.2506ZM8.68256 13.0654V14.269C8.86656 14.2331 9.00906 14.1584 9.11144 14.0477C9.21105 13.9356 9.26223 13.8056 9.26223 13.6576C9.26223 13.4985 9.21381 13.3753 9.11559 13.2882C9.01736 13.1996 8.87348 13.1263 8.68256 13.0654Z" fill="white"/>
</g>
<defs>
<clipPath id="clip0_26_267">
<rect width="17" height="16.3415" fill="white"/>
</clipPath>
</defs>
</svg>
