<svg width="17" height="17" viewBox="0 0 17 17" fill="none" xmlns="http://www.w3.org/2000/svg">
<g clip-path="url(#clip0_26_244)">
<path d="M15.5833 6.49311C15.5834 6.44571 15.5781 6.39846 15.5678 6.35221L14.7237 2.54209C14.5668 1.81891 14.1661 1.17165 13.5887 0.708824C13.0114 0.245999 12.2924 -0.00424411 11.5524 5.44695e-05H4.03089C3.29136 -0.00364677 2.57302 0.24687 1.99618 0.709645C1.41933 1.17242 1.01902 1.81935 0.862279 2.54209L0.0155842 6.35221C0.00520059 6.39846 -2.57514e-05 6.44571 8.89158e-07 6.49311V7.14242C-0.000522975 7.77457 0.230453 8.38504 0.649306 8.85853V12.3369C0.650337 13.1976 0.992712 14.0227 1.60133 14.6314C2.20995 15.24 3.03512 15.5824 3.89583 15.5834H11.6875C12.5482 15.5824 13.3734 15.24 13.982 14.6314C14.5906 14.0227 14.933 13.1976 14.934 12.3369V8.85853C15.3529 8.38504 15.5839 7.77457 15.5833 7.14242V6.49311ZM1.29861 6.56388L2.12972 2.82388C2.2239 2.39031 2.46413 2.00224 2.8102 1.72459C3.15628 1.44695 3.58721 1.29659 4.03089 1.29867H4.54514V3.24658C4.54514 3.41879 4.61355 3.58394 4.73532 3.70571C4.85709 3.82748 5.02224 3.89589 5.19444 3.89589C5.36665 3.89589 5.5318 3.82748 5.65357 3.70571C5.77534 3.58394 5.84375 3.41879 5.84375 3.24658V1.29867H9.73958V3.24658C9.73958 3.41879 9.80799 3.58394 9.92976 3.70571C10.0515 3.82748 10.2167 3.89589 10.3889 3.89589C10.5611 3.89589 10.7263 3.82748 10.848 3.70571C10.9698 3.58394 11.0382 3.41879 11.0382 3.24658V1.29867H11.5524C11.9961 1.29659 12.4271 1.44695 12.7731 1.72459C13.1192 2.00224 13.3594 2.39031 13.4536 2.82388L14.2847 6.56388V7.14242C14.2847 7.48683 14.1479 7.81713 13.9044 8.06067C13.6608 8.30421 13.3305 8.44103 12.9861 8.44103H12.3368C11.9924 8.44103 11.6621 8.30421 11.4185 8.06067C11.175 7.81713 11.0382 7.48683 11.0382 7.14242C11.0382 6.97021 10.9698 6.80506 10.848 6.68329C10.7263 6.56152 10.5611 6.49311 10.3889 6.49311C10.2167 6.49311 10.0515 6.56152 9.92976 6.68329C9.80799 6.80506 9.73958 6.97021 9.73958 7.14242C9.73958 7.48683 9.60277 7.81713 9.35923 8.06067C9.11569 8.30421 8.78539 8.44103 8.44097 8.44103H7.14236C6.79795 8.44103 6.46764 8.30421 6.2241 8.06067C5.98057 7.81713 5.84375 7.48683 5.84375 7.14242C5.84375 6.97021 5.77534 6.80506 5.65357 6.68329C5.5318 6.56152 5.36665 6.49311 5.19444 6.49311C5.02224 6.49311 4.85709 6.56152 4.73532 6.68329C4.61355 6.80506 4.54514 6.97021 4.54514 7.14242C4.54514 7.48683 4.40832 7.81713 4.16479 8.06067C3.92125 8.30421 3.59094 8.44103 3.24653 8.44103H2.59722C2.25281 8.44103 1.9225 8.30421 1.67897 8.06067C1.43543 7.81713 1.29861 7.48683 1.29861 7.14242V6.56388ZM11.6875 14.2848H3.89583C3.37921 14.2848 2.88375 14.0795 2.51845 13.7142C2.15314 13.3489 1.94792 12.8535 1.94792 12.3369V9.65718C2.15998 9.71209 2.37817 9.73979 2.59722 9.73964H3.24653C3.61521 9.73983 3.97969 9.66133 4.31561 9.50938C4.65153 9.35744 4.95115 9.13554 5.19444 8.85853C5.43774 9.13554 5.73736 9.35744 6.07328 9.50938C6.4092 9.66133 6.77368 9.73983 7.14236 9.73964H8.44097C8.80966 9.73983 9.17414 9.66133 9.51006 9.50938C9.84598 9.35744 10.1456 9.13554 10.3889 8.85853C10.6322 9.13554 10.9318 9.35744 11.2677 9.50938C11.6036 9.66133 11.9681 9.73983 12.3368 9.73964H12.9861C13.2052 9.73979 13.4234 9.71209 13.6354 9.65718V12.3369C13.6354 12.8535 13.4302 13.3489 13.0649 13.7142C12.6996 14.0795 12.2041 14.2848 11.6875 14.2848Z" fill="white"/>
</g>
<defs>
<clipPath id="clip0_26_244">
<rect width="17" height="17" fill="white"/>
</clipPath>
</defs>
</svg>
