<svg width="11" height="11" viewBox="0 0 11 11" fill="none" xmlns="http://www.w3.org/2000/svg">
<path d="M5.32515 6.6564C5.22253 6.65551 5.12427 6.61478 5.0511 6.54282L1.17473 2.66646C1.10412 2.59335 1.06505 2.49543 1.06593 2.39379C1.06682 2.29216 1.10758 2.19493 1.17945 2.12306C1.25132 2.05119 1.34855 2.01042 1.45019 2.00954C1.55182 2.00866 1.64974 2.04773 1.72285 2.11834L5.32515 5.72065L8.92746 2.11834C8.96322 2.08132 9.00599 2.05179 9.05328 2.03147C9.10058 2.01116 9.15144 2.00046 9.20291 2.00001C9.25438 1.99957 9.30542 2.00938 9.35306 2.02887C9.4007 2.04836 9.44398 2.07714 9.48038 2.11354C9.51678 2.14993 9.54556 2.19321 9.56505 2.24085C9.58454 2.28849 9.59435 2.33953 9.5939 2.391C9.59345 2.44247 9.58276 2.49334 9.56244 2.54063C9.54213 2.58793 9.5126 2.6307 9.47558 2.66646L5.59921 6.54282C5.52604 6.61478 5.42778 6.65551 5.32515 6.6564Z" fill="#292929"/>
<path d="M5.32515 6.6564C5.22253 6.65551 5.12427 6.61478 5.0511 6.54282L1.17473 2.66646C1.10412 2.59335 1.06505 2.49543 1.06593 2.39379C1.06682 2.29216 1.10758 2.19493 1.17945 2.12306C1.25132 2.05119 1.34855 2.01042 1.45019 2.00954C1.55182 2.00866 1.64974 2.04773 1.72285 2.11834L5.32515 5.72065L8.92746 2.11834C8.96322 2.08132 9.00599 2.05179 9.05328 2.03147C9.10058 2.01116 9.15144 2.00046 9.20291 2.00001C9.25438 1.99957 9.30542 2.00938 9.35306 2.02887C9.4007 2.04836 9.44398 2.07714 9.48038 2.11354C9.51678 2.14993 9.54556 2.19321 9.56505 2.24085C9.58454 2.28849 9.59435 2.33953 9.5939 2.391C9.59345 2.44247 9.58276 2.49334 9.56244 2.54063C9.54213 2.58793 9.5126 2.6307 9.47558 2.66646L5.59921 6.54282C5.52604 6.61478 5.42778 6.65551 5.32515 6.6564Z" stroke="#292929"/>
</svg>
