<svg width="24" height="24" viewBox="0 0 24 24" fill="none" xmlns="http://www.w3.org/2000/svg">
<path d="M18.4166 16.0828H17.2499V14.9161C17.2499 14.7614 17.1885 14.613 17.0791 14.5036C16.9697 14.3942 16.8213 14.3328 16.6666 14.3328C16.5119 14.3328 16.3635 14.3942 16.2541 14.5036C16.1447 14.613 16.0832 14.7614 16.0832 14.9161V16.0828H14.9166C14.7619 16.0828 14.6135 16.1442 14.5041 16.2536C14.3947 16.363 14.3333 16.5114 14.3333 16.6661C14.3333 16.8208 14.3947 16.9692 14.5041 17.0786C14.6135 17.188 14.7619 17.2494 14.9166 17.2494H16.0832V18.4161C16.0832 18.5708 16.1447 18.7192 16.2541 18.8286C16.3635 18.938 16.5119 18.9994 16.6666 18.9994C16.8213 18.9994 16.9697 18.938 17.0791 18.8286C17.1885 18.7192 17.2499 18.5708 17.2499 18.4161V17.2494H18.4166C18.5713 17.2494 18.7197 17.188 18.8291 17.0786C18.9384 16.9692 18.9999 16.8208 18.9999 16.6661C18.9999 16.5114 18.9384 16.363 18.8291 16.2536C18.7197 16.1442 18.5713 16.0828 18.4166 16.0828Z" fill="#F7F7FC"/>
<path d="M17.25 8.5H15.5C15.5 7.57174 15.1313 6.6815 14.4749 6.02513C13.8185 5.36875 12.9283 5 12 5C11.0717 5 10.1815 5.36875 9.52513 6.02513C8.86875 6.6815 8.5 7.57174 8.5 8.5H6.75C6.28587 8.5 5.84075 8.68437 5.51256 9.01256C5.18437 9.34075 5 9.78587 5 10.25V16.0833C5.00093 16.8566 5.30851 17.5979 5.85529 18.1447C6.40208 18.6915 7.1434 18.9991 7.91667 19H13.1667C13.3214 19 13.4697 18.9385 13.5791 18.8291C13.6885 18.7197 13.75 18.5714 13.75 18.4167C13.75 18.262 13.6885 18.1136 13.5791 18.0042C13.4697 17.8948 13.3214 17.8333 13.1667 17.8333H7.91667C7.45254 17.8333 7.00742 17.649 6.67923 17.3208C6.35104 16.9926 6.16667 16.5475 6.16667 16.0833V10.25C6.16667 10.0953 6.22812 9.94692 6.33752 9.83752C6.44692 9.72812 6.59529 9.66667 6.75 9.66667H8.5V10.8333C8.5 10.988 8.56146 11.1364 8.67085 11.2458C8.78025 11.3552 8.92862 11.4167 9.08333 11.4167C9.23804 11.4167 9.38642 11.3552 9.49581 11.2458C9.60521 11.1364 9.66667 10.988 9.66667 10.8333V9.66667H14.3333V10.8333C14.3333 10.988 14.3948 11.1364 14.5042 11.2458C14.6136 11.3552 14.762 11.4167 14.9167 11.4167C15.0714 11.4167 15.2197 11.3552 15.3291 11.2458C15.4385 11.1364 15.5 10.988 15.5 10.8333V9.66667H17.25C17.4047 9.66667 17.5531 9.72812 17.6625 9.83752C17.7719 9.94692 17.8333 10.0953 17.8333 10.25V13.1667C17.8333 13.3214 17.8948 13.4697 18.0042 13.5791C18.1136 13.6885 18.262 13.75 18.4167 13.75C18.5714 13.75 18.7197 13.6885 18.8291 13.5791C18.9385 13.4697 19 13.3214 19 13.1667V10.25C19 9.78587 18.8156 9.34075 18.4874 9.01256C18.1592 8.68437 17.7141 8.5 17.25 8.5ZM9.66667 8.5C9.66667 7.88116 9.9125 7.28767 10.3501 6.85008C10.7877 6.4125 11.3812 6.16667 12 6.16667C12.6188 6.16667 13.2123 6.4125 13.6499 6.85008C14.0875 7.28767 14.3333 7.88116 14.3333 8.5H9.66667Z" fill="#F7F7FC"/>
</svg>
