<svg width="17" height="17" viewBox="0 0 17 17" fill="none" xmlns="http://www.w3.org/2000/svg">
<path d="M16.2913 13.4578H14.8747V12.0411C14.8747 11.8532 14.8 11.6731 14.6672 11.5402C14.5344 11.4074 14.3542 11.3328 14.1663 11.3328C13.9785 11.3328 13.7983 11.4074 13.6655 11.5402C13.5326 11.6731 13.458 11.8532 13.458 12.0411V13.4578H12.0413C11.8535 13.4578 11.6733 13.5324 11.5405 13.6652C11.4076 13.7981 11.333 13.9782 11.333 14.1661C11.333 14.354 11.4076 14.5341 11.5405 14.667C11.6733 14.7998 11.8535 14.8744 12.0413 14.8744H13.458V16.2911C13.458 16.4789 13.5326 16.6591 13.6655 16.792C13.7983 16.9248 13.9785 16.9994 14.1663 16.9994C14.3542 16.9994 14.5344 16.9248 14.6672 16.792C14.8 16.6591 14.8747 16.4789 14.8747 16.2911V14.8744H16.2913C16.4792 14.8744 16.6594 14.7998 16.7922 14.667C16.925 14.5341 16.9997 14.354 16.9997 14.1661C16.9997 13.9782 16.925 13.7981 16.7922 13.6652C16.6594 13.5324 16.4792 13.4578 16.2913 13.4578Z" fill="white"/>
<path d="M14.875 4.25H12.75C12.75 3.12283 12.3022 2.04183 11.5052 1.2448C10.7082 0.447767 9.62717 0 8.5 0C7.37283 0 6.29183 0.447767 5.4948 1.2448C4.69777 2.04183 4.25 3.12283 4.25 4.25H2.125C1.56141 4.25 1.02091 4.47388 0.622398 4.8724C0.223883 5.27091 0 5.81141 0 6.375L0 13.4583C0.00112473 14.3973 0.374625 15.2975 1.03857 15.9614C1.70252 16.6254 2.6027 16.9989 3.54167 17H9.91667C10.1045 17 10.2847 16.9254 10.4175 16.7925C10.5504 16.6597 10.625 16.4795 10.625 16.2917C10.625 16.1038 10.5504 15.9236 10.4175 15.7908C10.2847 15.658 10.1045 15.5833 9.91667 15.5833H3.54167C2.97808 15.5833 2.43758 15.3594 2.03906 14.9609C1.64055 14.5624 1.41667 14.0219 1.41667 13.4583V6.375C1.41667 6.18714 1.49129 6.00697 1.62413 5.87413C1.75697 5.74129 1.93714 5.66667 2.125 5.66667H4.25V7.08333C4.25 7.27119 4.32463 7.45136 4.45747 7.5842C4.5903 7.71704 4.77047 7.79167 4.95833 7.79167C5.14619 7.79167 5.32636 7.71704 5.4592 7.5842C5.59204 7.45136 5.66667 7.27119 5.66667 7.08333V5.66667H11.3333V7.08333C11.3333 7.27119 11.408 7.45136 11.5408 7.5842C11.6736 7.71704 11.8538 7.79167 12.0417 7.79167C12.2295 7.79167 12.4097 7.71704 12.5425 7.5842C12.6754 7.45136 12.75 7.27119 12.75 7.08333V5.66667H14.875C15.0629 5.66667 15.243 5.74129 15.3759 5.87413C15.5087 6.00697 15.5833 6.18714 15.5833 6.375V9.91667C15.5833 10.1045 15.658 10.2847 15.7908 10.4175C15.9236 10.5504 16.1038 10.625 16.2917 10.625C16.4795 10.625 16.6597 10.5504 16.7925 10.4175C16.9254 10.2847 17 10.1045 17 9.91667V6.375C17 5.81141 16.7761 5.27091 16.3776 4.8724C15.9791 4.47388 15.4386 4.25 14.875 4.25ZM5.66667 4.25C5.66667 3.49855 5.96518 2.77788 6.49653 2.24653C7.02788 1.71518 7.74855 1.41667 8.5 1.41667C9.25145 1.41667 9.97212 1.71518 10.5035 2.24653C11.0348 2.77788 11.3333 3.49855 11.3333 4.25H5.66667Z" fill="white"/>
</svg>
