<svg width="24" height="24" viewBox="0 0 24 24" fill="none" xmlns="http://www.w3.org/2000/svg">
<path d="M22.0821 18.4145H20.249V16.5813C20.249 16.3382 20.1524 16.1051 19.9805 15.9332C19.8086 15.7613 19.5755 15.6647 19.3324 15.6647C19.0893 15.6647 18.8561 15.7613 18.6842 15.9332C18.5124 16.1051 18.4158 16.3382 18.4158 16.5813V18.4145H16.5826C16.3395 18.4145 16.1064 18.5111 15.9345 18.683C15.7626 18.8549 15.666 19.088 15.666 19.3311C15.666 19.5742 15.7626 19.8073 15.9345 19.9792C16.1064 20.1511 16.3395 20.2477 16.5826 20.2477H18.4158V22.0809C18.4158 22.324 18.5124 22.5571 18.6842 22.729C18.8561 22.9009 19.0893 22.9975 19.3324 22.9975C19.5755 22.9975 19.8086 22.9009 19.9805 22.729C20.1524 22.5571 20.249 22.324 20.249 22.0809V20.2477H22.0821C22.3252 20.2477 22.5584 20.1511 22.7303 19.9792C22.9022 19.8073 22.9987 19.5742 22.9987 19.3311C22.9987 19.088 22.9022 18.8549 22.7303 18.683C22.5584 18.5111 22.3252 18.4145 22.0821 18.4145Z" fill="#F3FDFA"/>
<path d="M20.2484 6.49956H17.4987C17.4987 5.04098 16.9193 3.64215 15.8879 2.61078C14.8565 1.57942 13.4577 1 11.9991 1C10.5405 1 9.14171 1.57942 8.11034 2.61078C7.07897 3.64215 6.49956 5.04098 6.49956 6.49956H3.74978C3.02049 6.49956 2.32107 6.78927 1.80539 7.30495C1.28971 7.82063 1 8.52005 1 9.24934L1 18.4153C1.00146 19.6303 1.48477 20.7951 2.34393 21.6543C3.20308 22.5135 4.36793 22.9968 5.58296 22.9982H13.8323C14.0754 22.9982 14.3085 22.9017 14.4804 22.7298C14.6523 22.5579 14.7489 22.3247 14.7489 22.0816C14.7489 21.8385 14.6523 21.6054 14.4804 21.4335C14.3085 21.2616 14.0754 21.165 13.8323 21.165H5.58296C4.85368 21.165 4.15426 20.8753 3.63858 20.3597C3.12289 19.844 2.83319 19.1446 2.83319 18.4153V9.24934C2.83319 9.00624 2.92975 8.7731 3.10165 8.60121C3.27354 8.42931 3.50668 8.33274 3.74978 8.33274H6.49956V10.1659C6.49956 10.409 6.59613 10.6422 6.76802 10.8141C6.93992 10.986 7.17305 11.0825 7.41615 11.0825C7.65925 11.0825 7.89238 10.986 8.06428 10.8141C8.23617 10.6422 8.33274 10.409 8.33274 10.1659V8.33274H15.6655V10.1659C15.6655 10.409 15.7621 10.6422 15.9339 10.8141C16.1058 10.986 16.339 11.0825 16.5821 11.0825C16.8252 11.0825 17.0583 10.986 17.2302 10.8141C17.4021 10.6422 17.4987 10.409 17.4987 10.1659V8.33274H20.2484C20.4915 8.33274 20.7247 8.42931 20.8966 8.60121C21.0685 8.7731 21.165 9.00624 21.165 9.24934V13.8323C21.165 14.0754 21.2616 14.3085 21.4335 14.4804C21.6054 14.6523 21.8385 14.7489 22.0816 14.7489C22.3247 14.7489 22.5579 14.6523 22.7298 14.4804C22.9017 14.3085 22.9982 14.0754 22.9982 13.8323V9.24934C22.9982 8.52005 22.7085 7.82063 22.1928 7.30495C21.6772 6.78927 20.9777 6.49956 20.2484 6.49956ZM8.33274 6.49956C8.33274 5.52717 8.71902 4.59462 9.4066 3.90704C10.0942 3.21946 11.0267 2.83319 11.9991 2.83319C12.9715 2.83319 13.9041 3.21946 14.5916 3.90704C15.2792 4.59462 15.6655 5.52717 15.6655 6.49956H8.33274Z" fill="#F3FDFA"/>
</svg>
