<svg width="14" height="14" viewBox="0 0 14 14" fill="none" xmlns="http://www.w3.org/2000/svg">
<g clip-path="url(#clip0_32_54)">
<path d="M12.25 3.5H10.5C10.5 2.57174 10.1313 1.6815 9.47487 1.02513C8.8185 0.368749 7.92826 0 7 0C6.07174 0 5.1815 0.368749 4.52513 1.02513C3.86875 1.6815 3.5 2.57174 3.5 3.5H1.75C1.28587 3.5 0.840752 3.68437 0.512563 4.01256C0.184374 4.34075 0 4.78587 0 5.25L0 11.0833C0.00092625 11.8566 0.308514 12.5979 0.855295 13.1447C1.40208 13.6915 2.1434 13.9991 2.91667 14H11.0833C11.8566 13.9991 12.5979 13.6915 13.1447 13.1447C13.6915 12.5979 13.9991 11.8566 14 11.0833V5.25C14 4.78587 13.8156 4.34075 13.4874 4.01256C13.1592 3.68437 12.7141 3.5 12.25 3.5ZM7 1.16667C7.61884 1.16667 8.21233 1.4125 8.64992 1.85008C9.0875 2.28767 9.33333 2.88116 9.33333 3.5H4.66667C4.66667 2.88116 4.9125 2.28767 5.35008 1.85008C5.78767 1.4125 6.38116 1.16667 7 1.16667V1.16667ZM12.8333 11.0833C12.8333 11.5475 12.649 11.9926 12.3208 12.3208C11.9926 12.649 11.5475 12.8333 11.0833 12.8333H2.91667C2.45254 12.8333 2.00742 12.649 1.67923 12.3208C1.35104 11.9926 1.16667 11.5475 1.16667 11.0833V5.25C1.16667 5.09529 1.22812 4.94692 1.33752 4.83752C1.44692 4.72812 1.59529 4.66667 1.75 4.66667H3.5V5.83333C3.5 5.98804 3.56146 6.13642 3.67085 6.24581C3.78025 6.35521 3.92862 6.41667 4.08333 6.41667C4.23804 6.41667 4.38642 6.35521 4.49581 6.24581C4.60521 6.13642 4.66667 5.98804 4.66667 5.83333V4.66667H9.33333V5.83333C9.33333 5.98804 9.39479 6.13642 9.50419 6.24581C9.61358 6.35521 9.76196 6.41667 9.91667 6.41667C10.0714 6.41667 10.2197 6.35521 10.3291 6.24581C10.4385 6.13642 10.5 5.98804 10.5 5.83333V4.66667H12.25C12.4047 4.66667 12.5531 4.72812 12.6625 4.83752C12.7719 4.94692 12.8333 5.09529 12.8333 5.25V11.0833Z" fill="#7C7C7C"/>
</g>
<defs>
<clipPath id="clip0_32_54">
<rect width="14" height="14" fill="white"/>
</clipPath>
</defs>
</svg>
