<svg width="24" height="24" viewBox="0 0 24 24" fill="none" xmlns="http://www.w3.org/2000/svg">
<g clip-path="url(#clip0_167_1820)">
<path d="M11.5903 3C9.69349 3 7.83931 3.55716 6.2622 4.60104C4.68509 5.64491 3.45588 7.12861 2.73002 8.86451C2.00416 10.6004 1.81424 12.5105 2.18428 14.3534C2.55432 16.1962 3.4677 17.8889 4.80893 19.2175C6.15015 20.5461 7.85897 21.4509 9.7193 21.8175C11.5796 22.184 13.5079 21.9959 15.2603 21.2769C17.0127 20.5578 18.5105 19.3402 19.5643 17.7779C20.6181 16.2156 21.1805 14.3789 21.1805 12.5C21.1777 9.98131 20.1663 7.56659 18.3684 5.78561C16.5705 4.00463 14.1329 3.00283 11.5903 3ZM15.1866 13.6875H12.789V16.0625C12.789 16.3774 12.6627 16.6795 12.4379 16.9022C12.2131 17.1249 11.9082 17.25 11.5903 17.25C11.2723 17.25 10.9674 17.1249 10.7426 16.9022C10.5178 16.6795 10.3915 16.3774 10.3915 16.0625V13.6875H7.99392C7.67598 13.6875 7.37107 13.5624 7.14625 13.3397C6.92143 13.117 6.79513 12.8149 6.79513 12.5C6.79513 12.1851 6.92143 11.883 7.14625 11.6603C7.37107 11.4376 7.67598 11.3125 7.99392 11.3125H10.3915V8.9375C10.3915 8.62255 10.5178 8.32051 10.7426 8.09781C10.9674 7.87511 11.2723 7.75 11.5903 7.75C11.9082 7.75 12.2131 7.87511 12.4379 8.09781C12.6627 8.32051 12.789 8.62255 12.789 8.9375V11.3125H15.1866C15.5045 11.3125 15.8095 11.4376 16.0343 11.6603C16.2591 11.883 16.3854 12.1851 16.3854 12.5C16.3854 12.8149 16.2591 13.117 16.0343 13.3397C15.8095 13.5624 15.5045 13.6875 15.1866 13.6875Z" fill="#292929"/>
</g>
<defs>
<clipPath id="clip0_167_1820">
<rect width="24" height="24" fill="white"/>
</clipPath>
</defs>
</svg>
