<svg width="20" height="19" viewBox="0 0 20 19" fill="none" xmlns="http://www.w3.org/2000/svg">
<path d="M9.59026 0C7.69349 0 5.83931 0.557164 4.2622 1.60104C2.68509 2.64491 1.45588 4.12861 0.730019 5.86451C0.00415528 7.6004 -0.185764 9.51054 0.184278 11.3534C0.554321 13.1962 1.4677 14.8889 2.80893 16.2175C4.15015 17.5461 5.85897 18.4509 7.7193 18.8175C9.57963 19.184 11.5079 18.9959 13.2603 18.2769C15.0127 17.5578 16.5105 16.3402 17.5643 14.7779C18.6181 13.2156 19.1805 11.3789 19.1805 9.5C19.1777 6.98131 18.1663 4.56659 16.3684 2.78561C14.5705 1.00463 12.1329 0.00282875 9.59026 0ZM13.1866 10.6875H10.789V13.0625C10.789 13.3774 10.6627 13.6795 10.4379 13.9022C10.2131 14.1249 9.9082 14.25 9.59026 14.25C9.27233 14.25 8.96741 14.1249 8.7426 13.9022C8.51778 13.6795 8.39148 13.3774 8.39148 13.0625V10.6875H5.99392C5.67598 10.6875 5.37107 10.5624 5.14625 10.3397C4.92143 10.117 4.79513 9.81494 4.79513 9.5C4.79513 9.18505 4.92143 8.88301 5.14625 8.66031C5.37107 8.43761 5.67598 8.3125 5.99392 8.3125H8.39148V5.9375C8.39148 5.62255 8.51778 5.32051 8.7426 5.09781C8.96741 4.87511 9.27233 4.75 9.59026 4.75C9.9082 4.75 10.2131 4.87511 10.4379 5.09781C10.6627 5.32051 10.789 5.62255 10.789 5.9375V8.3125H13.1866C13.5045 8.3125 13.8095 8.43761 14.0343 8.66031C14.2591 8.88301 14.3854 9.18505 14.3854 9.5C14.3854 9.81494 14.2591 10.117 14.0343 10.3397C13.8095 10.5624 13.5045 10.6875 13.1866 10.6875Z" fill="#292929"/>
</svg>
