<svg width="14" height="14" viewBox="0 0 14 14" fill="none" xmlns="http://www.w3.org/2000/svg">
<path fill-rule="evenodd" clip-rule="evenodd" d="M11.0295 1.10526C9.99939 1.10526 9.16435 1.94031 9.16435 2.97039C9.16435 4.00048 9.99939 4.83553 11.0295 4.83553C12.0596 4.83553 12.8946 4.00048 12.8946 2.97039C12.8946 1.94031 12.0596 1.10526 11.0295 1.10526ZM8.05908 2.97039C8.05908 1.32989 9.38897 0 11.0295 0C12.67 0 13.9999 1.32989 13.9999 2.97039C13.9999 4.6109 12.67 5.94079 11.0295 5.94079C9.38897 5.94079 8.05908 4.6109 8.05908 2.97039Z" fill="#7C7C7C"/>
<path fill-rule="evenodd" clip-rule="evenodd" d="M2.97039 9.16435C1.94031 9.16435 1.10526 9.99939 1.10526 11.0295C1.10526 12.0596 1.94031 12.8946 2.97039 12.8946C4.00048 12.8946 4.83553 12.0596 4.83553 11.0295C4.83553 9.99939 4.00048 9.16435 2.97039 9.16435ZM0 11.0295C0 9.38897 1.32989 8.05908 2.97039 8.05908C4.6109 8.05908 5.94079 9.38897 5.94079 11.0295C5.94079 12.67 4.6109 13.9999 2.97039 13.9999C1.32989 13.9999 0 12.67 0 11.0295Z" fill="#7C7C7C"/>
<path fill-rule="evenodd" clip-rule="evenodd" d="M8.05908 8.61171C8.05908 8.3065 8.3065 8.05908 8.61171 8.05908H13.4472C13.7524 8.05908 13.9999 8.3065 13.9999 8.61171V12.5262C13.9999 13.3401 13.3401 13.9999 12.5262 13.9999H9.53277C8.71887 13.9999 8.05908 13.3401 8.05908 12.5262V8.61171ZM9.16435 9.16435V12.5262C9.16435 12.7297 9.32929 12.8946 9.53277 12.8946H12.5262C12.7297 12.8946 12.8946 12.7297 12.8946 12.5262V9.16435H9.16435Z" fill="#7C7C7C"/>
<path fill-rule="evenodd" clip-rule="evenodd" d="M0 0.552632C0 0.247422 0.247422 0 0.552632 0H5.38816C5.69337 0 5.94079 0.247422 5.94079 0.552632V4.46711C5.94079 5.281 5.281 5.94079 4.46711 5.94079H1.47368C0.659791 5.94079 0 5.281 0 4.46711V0.552632ZM1.10526 1.10526V4.46711C1.10526 4.67058 1.27021 4.83553 1.47368 4.83553H4.46711C4.67058 4.83553 4.83553 4.67058 4.83553 4.46711V1.10526H1.10526Z" fill="#7C7C7C"/>
</svg>
