<svg width="22" height="20" viewBox="0 0 22 20" fill="none" xmlns="http://www.w3.org/2000/svg">
<path fill-rule="evenodd" clip-rule="evenodd" d="M4.75467 14.934C4.3623 15.3226 4.3623 15.9528 4.75467 16.3415C8.52852 20.0798 14.6472 20.0798 18.421 16.3415C22.1949 12.6031 22.1949 6.54209 18.421 2.80375C14.6472 -0.934584 8.52852 -0.934584 4.75467 2.80375C3.12392 4.41916 2.1977 6.4698 1.97639 8.57737H1.00475C0.598376 8.57737 0.23202 8.81986 0.0765091 9.19176C-0.0790021 9.56367 0.00695675 9.99174 0.294304 10.2764L2.21848 12.1825C2.26791 12.2314 2.32196 12.2748 2.37962 12.3121C2.52012 12.4031 2.68505 12.4603 2.86256 12.4718C2.88459 12.4732 2.90672 12.474 2.92892 12.474C2.94399 12.474 2.95903 12.4736 2.97402 12.473C3.23872 12.4614 3.47682 12.3484 3.64966 12.1723L5.56355 10.2764C5.8509 9.99175 5.93686 9.56367 5.78135 9.19176C5.62583 8.81986 5.25948 8.57737 4.85311 8.57737H3.99946C4.21155 6.97999 4.93681 5.43835 6.17555 4.21126C9.16468 1.25027 14.011 1.25027 17.0001 4.21126C19.9892 7.17225 19.9892 11.973 17.0001 14.934C14.011 17.8949 9.16468 17.8949 6.17555 14.934C5.78319 14.5453 5.14703 14.5453 4.75467 14.934ZM9.62573 5.76047C9.62573 5.20818 10.0734 4.76047 10.6257 4.76047C11.178 4.76047 11.6257 5.20818 11.6257 5.76047V9.52566H15.4362C15.9885 9.52566 16.4362 9.97338 16.4362 10.5257C16.4362 11.0779 15.9885 11.5257 15.4362 11.5257H10.6257C10.0734 11.5257 9.62573 11.0779 9.62573 10.5257V5.76047Z" fill="#5C5C5C"/>
</svg>
