<svg width="24" height="24" viewBox="0 0 24 24" fill="none" xmlns="http://www.w3.org/2000/svg">
<g clip-path="url(#clip0_301_395)">
<path d="M20.7457 1.10114C20.5029 1.03702 20.2509 1.00494 19.9944 1.00494C18.3408 1.00494 16.9941 2.34252 16.9941 4.00072C16.9941 5.03597 17.5254 5.99792 18.4049 6.5476L16.7192 12.0261C15.7848 11.907 14.8503 12.2414 14.2044 12.9285L11.7354 11.1695C12.4179 9.67161 11.7538 7.90803 10.2604 7.22552C8.76714 6.54301 6.99896 7.20718 6.31645 8.70051C5.73468 9.98312 6.12865 11.4948 7.26006 12.3284L4.84145 17.161C3.2657 16.6847 1.59831 17.5779 1.12648 19.1537C0.654655 20.7294 1.54334 22.3968 3.11909 22.8686C4.69483 23.3404 6.36222 22.4518 6.83405 20.876C7.20968 19.6346 6.73786 18.2879 5.66597 17.555L8.06625 12.7499C9.1885 13.1347 10.4345 12.8094 11.2269 11.9254L13.673 13.6752C12.9538 15.1547 13.5722 16.9367 15.0518 17.6558C16.5314 18.375 18.3133 17.7566 19.0324 16.277C19.7516 14.7975 19.1332 13.0155 17.6536 12.2964C17.6353 12.2872 17.617 12.2781 17.5987 12.2689L19.2477 6.9049C20.851 7.31716 22.4863 6.35521 22.9031 4.75198C23.32 3.14871 22.3535 1.5134 20.7457 1.10114ZM6.05079 20.0149C6.05079 21.1508 5.12548 22.0762 3.98948 22.0762C2.84888 22.0762 1.92816 21.1554 1.92816 20.0149C1.92816 18.8743 2.84888 17.9535 3.98948 17.9535C5.13007 17.9535 6.05079 18.8743 6.05079 20.0149ZM9.02824 11.9986C7.88764 11.9986 6.96692 11.0779 6.96692 9.9373C6.96692 8.79671 7.88764 7.87599 9.02824 7.87599C10.1688 7.87599 11.0896 8.79671 11.0896 9.9373C11.0896 11.0779 10.1643 11.9986 9.02824 11.9986ZM18.4187 14.9761C18.4187 16.1166 17.498 17.0374 16.3574 17.0374C15.2168 17.0374 14.2961 16.1166 14.2961 14.9761C14.2961 13.8355 15.2168 12.9147 16.3574 12.9147C17.498 12.9147 18.4187 13.8355 18.4187 14.9761ZM19.9899 6.08952C18.8127 6.08952 17.8599 5.11383 17.9057 3.92286C17.9469 2.84183 18.8264 1.96234 19.9074 1.92111C21.0939 1.87529 22.0741 2.82809 22.0741 4.00531C22.0741 5.15506 21.1396 6.08952 19.9899 6.08952Z" fill="#F3FDFA"/>
</g>
<defs>
<clipPath id="clip0_301_395">
<rect width="22" height="22" fill="white" transform="translate(1 1)"/>
</clipPath>
</defs>
</svg>
