<svg width="24" height="24" viewBox="0 0 24 24" fill="none" xmlns="http://www.w3.org/2000/svg">
<g clip-path="url(#clip0_167_2550)">
<path d="M17.5654 5.06439C17.4109 5.02359 17.2506 5.00317 17.0874 5.00317C16.035 5.00317 15.178 5.85436 15.178 6.90958C15.178 7.56837 15.5162 8.18052 16.0758 8.53032L15.0031 12.0166C14.4085 11.9409 13.8138 12.1536 13.4028 12.5909L11.8316 11.4715C12.266 10.5183 11.8433 9.39604 10.893 8.96172C9.94272 8.5274 8.81752 8.95005 8.38319 9.90036C8.01298 10.7166 8.26369 11.6785 8.98367 12.209L7.44456 15.2843C6.44181 14.9812 5.38074 15.5496 5.08049 16.5524C4.78023 17.5551 5.34576 18.6162 6.34851 18.9164C7.35126 19.2167 8.41232 18.6511 8.71258 17.6484C8.95162 16.8584 8.65136 16.0014 7.96925 15.535L9.4967 12.4772C10.2109 12.7221 11.0038 12.5151 11.508 11.9525L13.0647 13.0661C12.607 14.0076 13.0005 15.1415 13.9421 15.5992C14.8836 16.0568 16.0176 15.6633 16.4752 14.7218C16.9329 13.7802 16.5393 12.6463 15.5978 12.1886C15.5861 12.1828 15.5745 12.177 15.5628 12.1712L16.6122 8.75769C17.6324 9.02004 18.6731 8.40789 18.9384 7.38765C19.2037 6.36739 18.5886 5.32674 17.5654 5.06439ZM8.21414 17.1004C8.21414 17.8233 7.6253 18.4121 6.90239 18.4121C6.17656 18.4121 5.59065 17.8262 5.59065 17.1004C5.59065 16.3746 6.17656 15.7886 6.90239 15.7886C7.62823 15.7886 8.21414 16.3746 8.21414 17.1004ZM10.1089 11.9991C9.38304 11.9991 8.79713 11.4132 8.79713 10.6874C8.79713 9.96157 9.38304 9.37566 10.1089 9.37566C10.8347 9.37566 11.4206 9.96157 11.4206 10.6874C11.4206 11.4132 10.8318 11.9991 10.1089 11.9991ZM16.0846 13.8939C16.0846 14.6197 15.4987 15.2056 14.7729 15.2056C14.047 15.2056 13.4611 14.6197 13.4611 13.8939C13.4611 13.168 14.047 12.5821 14.7729 12.5821C15.4987 12.5821 16.0846 13.168 16.0846 13.8939ZM17.0845 8.23881C16.3353 8.23881 15.729 7.61792 15.7582 6.86003C15.7844 6.1721 16.3441 5.61242 17.032 5.58619C17.787 5.55703 18.4108 6.16336 18.4108 6.9125C18.4108 7.64415 17.8161 8.23881 17.0845 8.23881Z" fill="#F7F7FC"/>
</g>
<defs>
<clipPath id="clip0_167_2550">
<rect width="14" height="14" fill="white" transform="translate(5 5)"/>
</clipPath>
</defs>
</svg>
