<svg width="17" height="17" viewBox="0 0 17 17" fill="none" xmlns="http://www.w3.org/2000/svg">
<path d="M15.4406 2.91987H14.8264V2.58453C14.8264 2.00089 14.3516 1.52624 13.7681 1.52624H13.2619V1.05829C13.2619 0.474648 12.787 0 12.2036 0H1.05829C0.474834 0 0 0.474834 0 1.05829V14.4427C0 15.709 1.0302 16.7392 2.29624 16.7392H14.5084C15.5471 16.7392 16.4014 15.7677 16.4901 14.534C16.4957 14.5086 16.4989 14.4822 16.4989 14.455V3.97815C16.4989 3.39451 16.0242 2.91987 15.4406 2.91987ZM2.29624 15.9952C1.44031 15.9952 0.743963 15.2988 0.743963 14.4427V1.05829C0.743963 0.884943 0.884943 0.743962 1.05829 0.743962H12.2036C12.3769 0.743962 12.5179 0.884943 12.5179 1.05829V14.3224C12.5179 14.9709 12.7294 15.5605 13.0729 15.995H2.29624V15.9952ZM14.5084 15.9952C13.8211 15.9952 13.2619 15.2449 13.2619 14.3226V2.27002H13.7681C13.9415 2.27002 14.0825 2.411 14.0825 2.58434V14.4548C14.0825 14.6602 14.2491 14.8268 14.4544 14.8268C14.6598 14.8268 14.8264 14.6602 14.8264 14.4548V3.66364H15.4406C15.6139 3.66364 15.7549 3.80462 15.7549 3.97797V14.3224C15.7549 15.2449 15.1958 15.9952 14.5084 15.9952Z" fill="white"/>
<path d="M6.55206 7.67873H2.24619C1.85877 7.67873 1.5437 7.36366 1.5437 6.97624V2.61997C1.5437 2.23255 1.85877 1.91748 2.24619 1.91748H6.55206C6.93948 1.91748 7.25454 2.23255 7.25454 2.61997V6.97624C7.25454 7.36366 6.93948 7.67873 6.55206 7.67873ZM2.28766 6.93476H6.51077V2.66144H2.28766V6.93476Z" fill="white"/>
<path d="M11.2951 2.66144H8.49405C8.28872 2.66144 8.12207 2.49479 8.12207 2.28946C8.12207 2.08413 8.28872 1.91748 8.49405 1.91748H11.2951C11.5004 1.91748 11.667 2.08413 11.667 2.28946C11.667 2.49479 11.5004 2.66144 11.2951 2.66144Z" fill="white"/>
<path d="M11.2951 4.33405H8.49405C8.28872 4.33405 8.12207 4.1674 8.12207 3.96207C8.12207 3.75674 8.28872 3.59009 8.49405 3.59009H11.2951C11.5004 3.59009 11.667 3.75674 11.667 3.96207C11.667 4.1674 11.5004 4.33405 11.2951 4.33405Z" fill="white"/>
<path d="M11.2951 6.00641H8.49405C8.28872 6.00641 8.12207 5.83977 8.12207 5.63443C8.12207 5.4291 8.28872 5.26245 8.49405 5.26245H11.2951C11.5004 5.26245 11.667 5.4291 11.667 5.63443C11.667 5.83977 11.5004 6.00641 11.2951 6.00641Z" fill="white"/>
<path d="M11.2951 7.67878H8.49405C8.28872 7.67878 8.12207 7.51213 8.12207 7.3068C8.12207 7.10146 8.28872 6.93481 8.49405 6.93481H11.2951C11.5004 6.93481 11.667 7.10146 11.667 7.3068C11.667 7.51213 11.5004 7.67878 11.2951 7.67878Z" fill="white"/>
<path d="M11.295 9.35114H1.91568C1.71035 9.35114 1.5437 9.18449 1.5437 8.97916C1.5437 8.77383 1.71035 8.60718 1.91568 8.60718H11.295C11.5003 8.60718 11.667 8.77383 11.667 8.97916C11.667 9.18449 11.5003 9.35114 11.295 9.35114Z" fill="white"/>
<path d="M11.295 11.0239H1.91568C1.71035 11.0239 1.5437 10.8572 1.5437 10.6519C1.5437 10.4466 1.71035 10.2799 1.91568 10.2799H11.295C11.5003 10.2799 11.667 10.4466 11.667 10.6519C11.667 10.8572 11.5003 11.0239 11.295 11.0239Z" fill="white"/>
<path d="M11.295 12.696H1.91568C1.71035 12.696 1.5437 12.5293 1.5437 12.324C1.5437 12.1187 1.71035 11.952 1.91568 11.952H11.295C11.5003 11.952 11.667 12.1187 11.667 12.324C11.667 12.5293 11.5003 12.696 11.295 12.696Z" fill="white"/>
<path d="M11.295 14.3685H1.91568C1.71035 14.3685 1.5437 14.2018 1.5437 13.9965C1.5437 13.7912 1.71035 13.6245 1.91568 13.6245H11.295C11.5003 13.6245 11.667 13.7912 11.667 13.9965C11.667 14.2018 11.5003 14.3685 11.295 14.3685Z" fill="white"/>
</svg>
