<svg xmlns="http://www.w3.org/2000/svg" viewBox="0 0 512 512" class="icon icon-sm align-middle"><path d="M278.4 177.7h-81.2l21.4-21.4c6.2-6.2 6.2-16.4 0-22.6-6.2-6.2-16.4-6.2-22.6 0l-49.2 49.2c-3 3-4.7 7.1-4.7 11.3s1.7 8.3 4.7 11.3l49.2 49.2c3.1 3.1 7.2 4.7 11.3 4.7s8.2-1.6 11.3-4.7c6.2-6.2 6.2-16.4 0-22.6l-22.4-22.4h82.2c32.8 0 59.5 26.7 59.5 59.5s-26.7 59.5-59.5 59.5H167.8c-8.8 0-16 7.2-16 16s7.2 16 16 16h110.7c50.4 0 91.5-41 91.5-91.5-.1-50.5-41.1-91.5-91.6-91.5z"></path><path d="M435.4 76.6C387.4 28.7 323.8 2.4 256 2.4S124.6 28.7 76.6 76.6C28.7 124.6 2.4 188.2 2.4 256s26.4 131.4 74.3 179.4c47.9 47.9 111.6 74.3 179.4 74.3s131.4-26.4 179.4-74.3c47.9-47.9 74.3-111.6 74.3-179.4s-26.5-131.4-74.4-179.4zm-22.7 336.1c-41.9 41.9-97.5 64.9-156.7 64.9s-114.9-23.1-156.7-64.9S34.4 315.2 34.4 256s23-114.9 64.9-156.7S196.8 34.4 256 34.4s114.9 23.1 156.7 64.9 64.9 97.5 64.9 156.7-23 114.9-64.9 156.7z"></path></svg>