<svg width="17" height="17" viewBox="0 0 17 17" fill="none" xmlns="http://www.w3.org/2000/svg">
<path d="M11.845 7.06054C11.6978 6.9129 11.5228 6.79591 11.3302 6.71633C11.1375 6.63675 10.9309 6.59618 10.7225 6.59695V6.59695H5.57852L6.9439 5.23158C7.00335 5.17187 7.03665 5.09099 7.03647 5.00673C7.0363 4.92247 7.00265 4.84173 6.94294 4.78228C6.88324 4.72282 6.80236 4.68952 6.7181 4.6897C6.63383 4.68988 6.5531 4.72352 6.49364 4.78323L4.92187 6.35468C4.77305 6.50354 4.68945 6.70542 4.68945 6.91591C4.68945 7.1264 4.77305 7.32828 4.92187 7.47714L6.49364 9.04923C6.52312 9.07879 6.55814 9.10226 6.59669 9.11829C6.63524 9.13432 6.67657 9.14261 6.71832 9.14266C6.76007 9.14272 6.80142 9.13456 6.84002 9.11864C6.87862 9.10271 6.9137 9.07934 6.94326 9.04986C6.97283 9.02038 6.99629 8.98537 7.01233 8.94682C7.02836 8.90827 7.03664 8.86693 7.0367 8.82518C7.03676 8.78343 7.02859 8.74208 7.01267 8.70348C6.99675 8.66489 6.97338 8.62981 6.9439 8.60024L5.57471 7.23201H10.7225C10.9751 7.23201 11.2174 7.33237 11.3961 7.51102C11.5747 7.68966 11.6751 7.93195 11.6751 8.1846V10.4073C11.6751 10.6599 11.5747 10.9022 11.3961 11.0809C11.2174 11.2595 10.9751 11.3599 10.7225 11.3599H6.27709C6.19287 11.3599 6.11211 11.3933 6.05256 11.4529C5.99301 11.5124 5.95956 11.5932 5.95956 11.6774C5.95956 11.7616 5.99301 11.8424 6.05256 11.9019C6.11211 11.9615 6.19287 11.9949 6.27709 11.9949H10.7225C11.1434 11.9944 11.5469 11.827 11.8446 11.5294C12.1422 11.2317 12.3096 10.8282 12.3101 10.4073V8.1846C12.3108 7.97577 12.2701 7.76889 12.1902 7.57594C12.1104 7.38298 11.993 7.2078 11.845 7.06054Z" fill="white"/>
<mask id="path-2-inside-1_26_253" fill="white">
<path fill-rule="evenodd" clip-rule="evenodd" d="M8.5 16.1207C12.7088 16.1207 16.1207 12.7088 16.1207 8.5C16.1207 4.29121 12.7088 0.87931 8.5 0.87931C4.29121 0.87931 0.87931 4.29121 0.87931 8.5C0.87931 12.7088 4.29121 16.1207 8.5 16.1207ZM8.5 17C13.1944 17 17 13.1944 17 8.5C17 3.80558 13.1944 0 8.5 0C3.80558 0 0 3.80558 0 8.5C0 13.1944 3.80558 17 8.5 17Z"/>
</mask>
<path fill-rule="evenodd" clip-rule="evenodd" d="M8.5 16.1207C12.7088 16.1207 16.1207 12.7088 16.1207 8.5C16.1207 4.29121 12.7088 0.87931 8.5 0.87931C4.29121 0.87931 0.87931 4.29121 0.87931 8.5C0.87931 12.7088 4.29121 16.1207 8.5 16.1207ZM8.5 17C13.1944 17 17 13.1944 17 8.5C17 3.80558 13.1944 0 8.5 0C3.80558 0 0 3.80558 0 8.5C0 13.1944 3.80558 17 8.5 17Z" fill="white"/>
<path d="M15.1207 8.5C15.1207 12.1565 12.1565 15.1207 8.5 15.1207V17.1207C13.2611 17.1207 17.1207 13.2611 17.1207 8.5H15.1207ZM8.5 1.87931C12.1565 1.87931 15.1207 4.84349 15.1207 8.5H17.1207C17.1207 3.73892 13.2611 -0.12069 8.5 -0.12069V1.87931ZM1.87931 8.5C1.87931 4.84349 4.84349 1.87931 8.5 1.87931V-0.12069C3.73892 -0.12069 -0.12069 3.73892 -0.12069 8.5H1.87931ZM8.5 15.1207C4.84349 15.1207 1.87931 12.1565 1.87931 8.5H-0.12069C-0.12069 13.2611 3.73892 17.1207 8.5 17.1207V15.1207ZM16 8.5C16 12.6421 12.6421 16 8.5 16V18C13.7467 18 18 13.7467 18 8.5H16ZM8.5 1C12.6421 1 16 4.35786 16 8.5H18C18 3.25329 13.7467 -1 8.5 -1V1ZM1 8.5C1 4.35786 4.35786 1 8.5 1V-1C3.25329 -1 -1 3.25329 -1 8.5H1ZM8.5 16C4.35786 16 1 12.6421 1 8.5H-1C-1 13.7467 3.25329 18 8.5 18V16Z" fill="white" mask="url(#path-2-inside-1_26_253)"/>
</svg>
