<svg width="16" height="16" viewBox="0 0 16 16" fill="none" xmlns="http://www.w3.org/2000/svg">
<g clip-path="url(#clip0_32_75)">
<path d="M15.142 2.718C14.9545 2.49296 14.7197 2.31197 14.4544 2.18788C14.189 2.06379 13.8996 1.99964 13.6067 2H2.828L2.8 1.766C2.7427 1.27961 2.50892 0.831155 2.14299 0.505652C1.77706 0.180149 1.30442 0.000227862 0.814667 0L0.666667 0C0.489856 0 0.320286 0.0702379 0.195262 0.195262C0.0702379 0.320286 0 0.489856 0 0.666667C0 0.843478 0.0702379 1.01305 0.195262 1.13807C0.320286 1.2631 0.489856 1.33333 0.666667 1.33333H0.814667C0.977956 1.33335 1.13556 1.3933 1.25758 1.50181C1.3796 1.61032 1.45756 1.75983 1.47667 1.922L2.394 9.722C2.48923 10.5332 2.87899 11.2812 3.48927 11.824C4.09956 12.3668 4.8879 12.6667 5.70467 12.6667H12.6667C12.8435 12.6667 13.013 12.5964 13.1381 12.4714C13.2631 12.3464 13.3333 12.1768 13.3333 12C13.3333 11.8232 13.2631 11.6536 13.1381 11.5286C13.013 11.4036 12.8435 11.3333 12.6667 11.3333H5.70467C5.29204 11.3322 4.88987 11.2034 4.55329 10.9647C4.21671 10.726 3.96221 10.389 3.82467 10H11.7713C12.5529 10 13.3096 9.72549 13.9092 9.22429C14.5089 8.7231 14.9134 8.02713 15.052 7.258L15.5753 4.35533C15.6276 4.06734 15.6158 3.77138 15.5409 3.48843C15.4661 3.20547 15.3299 2.94245 15.142 2.718V2.718ZM14.2667 4.11867L13.7427 7.02133C13.6594 7.48333 13.4163 7.90133 13.0559 8.20213C12.6955 8.50294 12.2408 8.66738 11.7713 8.66667H3.61267L2.98533 3.33333H13.6067C13.7046 3.33275 13.8015 3.35375 13.8904 3.39484C13.9793 3.43593 14.058 3.4961 14.121 3.57107C14.184 3.64605 14.2297 3.73398 14.2549 3.82862C14.2801 3.92327 14.2841 4.0223 14.2667 4.11867V4.11867Z" fill="#A6A6A6"/>
<path d="M4.66683 16.0004C5.40321 16.0004 6.00016 15.4034 6.00016 14.6671C6.00016 13.9307 5.40321 13.3337 4.66683 13.3337C3.93045 13.3337 3.3335 13.9307 3.3335 14.6671C3.3335 15.4034 3.93045 16.0004 4.66683 16.0004Z" fill="#A6A6A6"/>
<path d="M11.3333 16.0004C12.0697 16.0004 12.6667 15.4034 12.6667 14.6671C12.6667 13.9307 12.0697 13.3337 11.3333 13.3337C10.597 13.3337 10 13.9307 10 14.6671C10 15.4034 10.597 16.0004 11.3333 16.0004Z" fill="#A6A6A6"/>
</g>
<defs>
<clipPath id="clip0_32_75">
<rect width="16" height="16" fill="white"/>
</clipPath>
</defs>
</svg>
