<svg width="24" height="24" viewBox="0 0 24 24" fill="none" xmlns="http://www.w3.org/2000/svg">
<path d="M21.1667 9.40291C21.1667 9.34157 21.1599 9.28042 21.1465 9.22057L20.0541 4.28982C19.8512 3.35395 19.3326 2.51631 18.5854 1.91736C17.8382 1.31841 16.9078 0.994569 15.9502 1.00013H6.21645C5.25941 0.995342 4.3298 1.31954 3.58329 1.91843C2.83679 2.51731 2.31873 3.35452 2.11589 4.28982L1.02017 9.22057C1.00673 9.28042 0.999967 9.34157 1 9.40291V10.2432C0.999323 11.0613 1.29823 11.8513 1.84028 12.464V16.9654C1.84161 18.0793 2.28469 19.1471 3.07231 19.9348C3.85994 20.7224 4.9278 21.1655 6.04167 21.1668H16.125C17.2389 21.1655 18.3067 20.7224 19.0944 19.9348C19.882 19.1471 20.3251 18.0793 20.3264 16.9654V12.464C20.8684 11.8513 21.1673 11.0613 21.1667 10.2432V9.40291ZM2.68056 9.4945L3.75611 4.6545C3.87799 4.09341 4.18887 3.59119 4.63673 3.23189C5.0846 2.87259 5.64227 2.678 6.21645 2.68069H6.88195V5.20152C6.88195 5.42438 6.97047 5.6381 7.12806 5.79569C7.28564 5.95327 7.49937 6.0418 7.72222 6.0418C7.94508 6.0418 8.15881 5.95327 8.31639 5.79569C8.47397 5.6381 8.5625 5.42438 8.5625 5.20152V2.68069H13.6042V5.20152C13.6042 5.42438 13.6927 5.6381 13.8503 5.79569C14.0079 5.95327 14.2216 6.0418 14.4444 6.0418C14.6673 6.0418 14.881 5.95327 15.0386 5.79569C15.1962 5.6381 15.2847 5.42438 15.2847 5.20152V2.68069H15.9502C16.5244 2.678 17.0821 2.87259 17.5299 3.23189C17.9778 3.59119 18.2887 4.09341 18.4106 4.6545L19.4861 9.4945V10.2432C19.4861 10.6889 19.3091 11.1164 18.9939 11.4315C18.6787 11.7467 18.2513 11.9237 17.8056 11.9237H16.9653C16.5196 11.9237 16.0921 11.7467 15.7769 11.4315C15.4618 11.1164 15.2847 10.6889 15.2847 10.2432C15.2847 10.0203 15.1962 9.8066 15.0386 9.64902C14.881 9.49144 14.6673 9.40291 14.4444 9.40291C14.2216 9.40291 14.0079 9.49144 13.8503 9.64902C13.6927 9.8066 13.6042 10.0203 13.6042 10.2432C13.6042 10.6889 13.4271 11.1164 13.1119 11.4315C12.7968 11.7467 12.3693 11.9237 11.9236 11.9237H10.2431C9.79735 11.9237 9.36989 11.7467 9.05472 11.4315C8.73956 11.1164 8.5625 10.6889 8.5625 10.2432C8.5625 10.0203 8.47397 9.8066 8.31639 9.64902C8.15881 9.49144 7.94508 9.40291 7.72222 9.40291C7.49937 9.40291 7.28564 9.49144 7.12806 9.64902C6.97047 9.8066 6.88195 10.0203 6.88195 10.2432C6.88195 10.6889 6.70489 11.1164 6.38972 11.4315C6.07456 11.7467 5.6471 11.9237 5.20139 11.9237H4.36111C3.9154 11.9237 3.48795 11.7467 3.17278 11.4315C2.85761 11.1164 2.68056 10.6889 2.68056 10.2432V9.4945ZM16.125 19.4862H6.04167C5.3731 19.4862 4.73192 19.2207 4.25917 18.7479C3.78642 18.2752 3.52083 17.634 3.52083 16.9654V13.4976C3.79527 13.5686 4.07763 13.6045 4.36111 13.6043H5.20139C5.67851 13.6045 6.15019 13.503 6.58491 13.3063C7.01963 13.1097 7.40737 12.8225 7.72222 12.464C8.03708 12.8225 8.42482 13.1097 8.85954 13.3063C9.29425 13.503 9.76593 13.6045 10.2431 13.6043H11.9236C12.4007 13.6045 12.8724 13.503 13.3071 13.3063C13.7419 13.1097 14.1296 12.8225 14.4444 12.464C14.7593 12.8225 15.147 13.1097 15.5818 13.3063C16.0165 13.503 16.4882 13.6045 16.9653 13.6043H17.8056C18.089 13.6045 18.3714 13.5686 18.6458 13.4976V16.9654C18.6458 17.634 18.3802 18.2752 17.9075 18.7479C17.4348 19.2207 16.7936 19.4862 16.125 19.4862Z" fill="#F3FDFA"/>
</svg>
