<svg width="17" height="17" viewBox="0 0 17 17" fill="none" xmlns="http://www.w3.org/2000/svg">
<g clip-path="url(#clip0_26_225)">
<path d="M14.2828 9.20833H3.83846L3.17192 3.54167H9.91667V2.125H3.00475L2.975 1.87567C2.91396 1.35901 2.6655 0.882692 2.27672 0.53699C1.88793 0.191288 1.38584 0.000221592 0.865583 0L0 0V1.41667H0.865583C1.03908 1.41669 1.20653 1.48039 1.33618 1.59567C1.46583 1.71096 1.54866 1.86982 1.56896 2.04213L2.69167 11.582C2.75255 12.0987 3.00094 12.5752 3.38974 12.9211C3.77854 13.2669 4.28072 13.4581 4.80108 13.4583H14.1667V12.0417H4.80108C4.62748 12.0416 4.45994 11.9778 4.33027 11.8624C4.20061 11.747 4.11785 11.5879 4.09771 11.4155L4.00492 10.625H15.4672L16.1047 7.08333H14.666L14.2828 9.20833Z" fill="white"/>
<path d="M4.95841 17.0003C5.74081 17.0003 6.37508 16.3661 6.37508 15.5837C6.37508 14.8013 5.74081 14.167 4.95841 14.167C4.17601 14.167 3.54175 14.8013 3.54175 15.5837C3.54175 16.3661 4.17601 17.0003 4.95841 17.0003Z" fill="white"/>
<path d="M12.0417 17.0003C12.8241 17.0003 13.4583 16.3661 13.4583 15.5837C13.4583 14.8013 12.8241 14.167 12.0417 14.167C11.2593 14.167 10.625 14.8013 10.625 15.5837C10.625 16.3661 11.2593 17.0003 12.0417 17.0003Z" fill="white"/>
<path d="M14.8749 2.125V0H13.4582V2.125H11.3333V3.54167H13.4582V5.66667H14.8749V3.54167H16.9999V2.125H14.8749Z" fill="white"/>
</g>
<defs>
<clipPath id="clip0_26_225">
<rect width="17" height="17" fill="white"/>
</clipPath>
</defs>
</svg>
