<svg width="24" height="24" viewBox="0 0 24 24" fill="none" xmlns="http://www.w3.org/2000/svg">
<path d="M17.8333 10.3473C17.8334 10.3082 17.8291 10.2693 17.8205 10.2312L17.1254 7.09348C16.9962 6.49793 16.6662 5.96489 16.1907 5.58374C15.7152 5.20259 15.1232 4.9965 14.5138 5.00004H8.31956C7.71054 4.997 7.11896 5.2033 6.64391 5.58441C6.16886 5.96552 5.83919 6.49829 5.71011 7.09348L5.01283 10.2312C5.00428 10.2693 4.99998 10.3082 5 10.3473V10.882C4.99957 11.4026 5.18979 11.9053 5.53472 12.2953V15.1598C5.53557 15.8686 5.81753 16.5481 6.31874 17.0494C6.81996 17.5506 7.49951 17.8325 8.20833 17.8334H14.625C15.3338 17.8325 16.0134 17.5506 16.5146 17.0494C17.0158 16.5481 17.2978 15.8686 17.2986 15.1598V12.2953C17.6435 11.9053 17.8338 11.4026 17.8333 10.882V10.3473ZM6.06945 10.4056L6.75389 7.32555C6.83145 6.96849 7.02928 6.6489 7.31428 6.42025C7.59929 6.19161 7.95417 6.06778 8.31956 6.06949H8.74306V7.67366C8.74306 7.81547 8.79939 7.95148 8.89967 8.05176C8.99995 8.15204 9.13596 8.20838 9.27778 8.20838C9.41959 8.20838 9.5556 8.15204 9.65588 8.05176C9.75616 7.95148 9.8125 7.81547 9.8125 7.67366V6.06949H13.0208V7.67366C13.0208 7.81547 13.0772 7.95148 13.1774 8.05176C13.2777 8.15204 13.4137 8.20838 13.5556 8.20838C13.6974 8.20838 13.8334 8.15204 13.9337 8.05176C14.0339 7.95148 14.0903 7.81547 14.0903 7.67366V6.06949H14.5138C14.8792 6.06778 15.234 6.19161 15.519 6.42025C15.8041 6.6489 16.0019 6.96849 16.0794 7.32555L16.7639 10.4056V10.882C16.7639 11.1656 16.6512 11.4376 16.4507 11.6382C16.2501 11.8388 15.9781 11.9514 15.6944 11.9514H15.1597C14.8761 11.9514 14.6041 11.8388 14.4035 11.6382C14.203 11.4376 14.0903 11.1656 14.0903 10.882C14.0903 10.7402 14.0339 10.6042 13.9337 10.5039C13.8334 10.4036 13.6974 10.3473 13.5556 10.3473C13.4137 10.3473 13.2777 10.4036 13.1774 10.5039C13.0772 10.6042 13.0208 10.7402 13.0208 10.882C13.0208 11.1656 12.9082 11.4376 12.7076 11.6382C12.507 11.8388 12.235 11.9514 11.9514 11.9514H10.8819C10.5983 11.9514 10.3263 11.8388 10.1257 11.6382C9.92517 11.4376 9.8125 11.1656 9.8125 10.882C9.8125 10.7402 9.75616 10.6042 9.65588 10.5039C9.5556 10.4036 9.41959 10.3473 9.27778 10.3473C9.13596 10.3473 8.99995 10.4036 8.89967 10.5039C8.79939 10.6042 8.74306 10.7402 8.74306 10.882C8.74306 11.1656 8.63038 11.4376 8.42982 11.6382C8.22926 11.8388 7.95725 11.9514 7.67361 11.9514H7.13889C6.85526 11.9514 6.58324 11.8388 6.38268 11.6382C6.18212 11.4376 6.06945 11.1656 6.06945 10.882V10.4056ZM14.625 16.7639H8.20833C7.78288 16.7639 7.37486 16.5949 7.07402 16.2941C6.77318 15.9932 6.60417 15.5852 6.60417 15.1598V12.953C6.77881 12.9982 6.95849 13.021 7.13889 13.0209H7.67361C7.97723 13.021 8.2774 12.9564 8.55403 12.8313C8.83067 12.7061 9.07742 12.5234 9.27778 12.2953C9.47814 12.5234 9.72488 12.7061 10.0015 12.8313C10.2782 12.9564 10.5783 13.021 10.8819 13.0209H11.9514C12.255 13.021 12.5552 12.9564 12.8318 12.8313C13.1084 12.7061 13.3552 12.5234 13.5556 12.2953C13.7559 12.5234 14.0027 12.7061 14.2793 12.8313C14.5559 12.9564 14.8561 13.021 15.1597 13.0209H15.6944C15.8748 13.021 16.0545 12.9982 16.2292 12.953V15.1598C16.2292 15.5852 16.0602 15.9932 15.7593 16.2941C15.4585 16.5949 15.0505 16.7639 14.625 16.7639Z" fill="#F7F7FC"/>
</svg>
