<svg width="5" height="3" viewBox="0 0 5 3" fill="none" xmlns="http://www.w3.org/2000/svg">
<path d="M2.76559 2.7239C2.60991 2.8771 2.36013 2.8771 2.20445 2.7239L0.1327 0.685102C-0.122402 0.434058 0.0553552 2.35649e-07 0.413265 2.20253e-07L4.55677 4.20156e-08C4.91468 2.66197e-08 5.09244 0.434058 4.83734 0.685101L2.76559 2.7239Z" fill="#787878"/>
<path d="M2.76559 2.7239C2.60991 2.8771 2.36013 2.8771 2.20445 2.7239L0.1327 0.685102C-0.122402 0.434058 0.0553552 2.35649e-07 0.413265 2.20253e-07L4.55677 4.20156e-08C4.91468 2.66197e-08 5.09244 0.434058 4.83734 0.685101L2.76559 2.7239Z" fill="#787878"/>
</svg>
