<svg width="20" height="20" viewBox="0 0 20 20" fill="none" xmlns="http://www.w3.org/2000/svg">
<g clip-path="url(#clip0_26_203)">
<path d="M9.99984 6.66724C9.34057 6.66724 8.6961 6.86273 8.14794 7.229C7.59977 7.59528 7.17253 8.11587 6.92024 8.72496C6.66795 9.33404 6.60194 10.0043 6.73055 10.6509C6.85917 11.2975 7.17664 11.8914 7.64282 12.3576C8.10899 12.8238 8.70293 13.1412 9.34954 13.2699C9.99614 13.3985 10.6664 13.3325 11.2755 13.0802C11.8845 12.8279 12.4051 12.4006 12.7714 11.8525C13.1377 11.3043 13.3332 10.6598 13.3332 10.0006C13.3332 9.11651 12.982 8.26867 12.3569 7.64355C11.7317 7.01843 10.8839 6.66724 9.99984 6.66724V6.66724ZM9.99984 11.6672C9.6702 11.6672 9.34797 11.5695 9.07389 11.3864C8.79981 11.2032 8.58619 10.9429 8.46004 10.6384C8.33389 10.3338 8.30089 9.99872 8.3652 9.67542C8.42951 9.35212 8.58824 9.05515 8.82133 8.82206C9.05442 8.58897 9.35139 8.43024 9.67469 8.36593C9.99799 8.30162 10.3331 8.33462 10.6376 8.46077C10.9422 8.58692 11.2025 8.80054 11.3856 9.07462C11.5688 9.3487 11.6665 9.67093 11.6665 10.0006C11.6665 10.4426 11.4909 10.8665 11.1783 11.1791C10.8658 11.4916 10.4419 11.6672 9.99984 11.6672Z" fill="#292929"/>
<path d="M17.7452 11.5833L17.3752 11.37C17.5417 10.4637 17.5417 9.53463 17.3752 8.62833L17.7452 8.415C18.0297 8.25085 18.2791 8.03226 18.4792 7.77172C18.6792 7.51118 18.826 7.21378 18.9111 6.89651C18.9962 6.57925 19.018 6.24832 18.9753 5.92263C18.9325 5.59694 18.826 5.28286 18.6618 4.99833C18.4977 4.7138 18.2791 4.46439 18.0185 4.26434C17.758 4.06428 17.4606 3.91751 17.1433 3.83239C16.8261 3.74726 16.4951 3.72547 16.1695 3.76824C15.8438 3.81101 15.5297 3.91751 15.2452 4.08167L14.8743 4.29583C14.1739 3.69743 13.369 3.23354 12.5002 2.9275V2.5C12.5002 1.83696 12.2368 1.20107 11.7679 0.732233C11.2991 0.263392 10.6632 0 10.0002 0C9.33712 0 8.70123 0.263392 8.23239 0.732233C7.76355 1.20107 7.50016 1.83696 7.50016 2.5V2.9275C6.63131 3.23464 5.8267 3.69967 5.12682 4.29917L4.75432 4.08333C4.17969 3.75181 3.49689 3.66214 2.85614 3.83405C2.21539 4.00596 1.66918 4.42536 1.33766 5C1.00614 5.57464 0.916468 6.25743 1.08838 6.89818C1.26028 7.53893 1.67969 8.08515 2.25432 8.41667L2.62432 8.63C2.45775 9.5363 2.45775 10.4654 2.62432 11.3717L2.25432 11.585C1.67969 11.9165 1.26028 12.4627 1.08838 13.1035C0.916468 13.7442 1.00614 14.427 1.33766 15.0017C1.66918 15.5763 2.21539 15.9957 2.85614 16.1676C3.49689 16.3395 4.17969 16.2499 4.75432 15.9183L5.12516 15.7042C5.8258 16.3027 6.63098 16.7666 7.50016 17.0725V17.5C7.50016 18.163 7.76355 18.7989 8.23239 19.2678C8.70123 19.7366 9.33712 20 10.0002 20C10.6632 20 11.2991 19.7366 11.7679 19.2678C12.2368 18.7989 12.5002 18.163 12.5002 17.5V17.0725C13.369 16.7654 14.1736 16.3003 14.8735 15.7008L15.246 15.9158C15.8206 16.2474 16.5034 16.337 17.1442 16.1651C17.7849 15.9932 18.3311 15.5738 18.6627 14.9992C18.9942 14.4245 19.0838 13.7417 18.9119 13.101C18.74 12.4602 18.3206 11.914 17.746 11.5825L17.7452 11.5833ZM15.6218 8.43667C15.904 9.45922 15.904 10.5391 15.6218 11.5617C15.5726 11.7396 15.5838 11.9289 15.6538 12.0998C15.7238 12.2707 15.8485 12.4135 16.0085 12.5058L16.9118 13.0275C17.1033 13.138 17.2431 13.3201 17.3004 13.5336C17.3577 13.7472 17.3277 13.9747 17.2172 14.1662C17.1067 14.3578 16.9247 14.4975 16.7111 14.5548C16.4976 14.6121 16.27 14.5822 16.0785 14.4717L15.1735 13.9483C15.0134 13.8556 14.827 13.8188 14.6437 13.8437C14.4604 13.8686 14.2906 13.9538 14.161 14.0858C13.4193 14.843 12.4848 15.3833 11.4585 15.6483C11.2794 15.6944 11.1206 15.7987 11.0073 15.9449C10.894 16.0911 10.8326 16.2709 10.8327 16.4558V17.5C10.8327 17.721 10.7449 17.933 10.5886 18.0893C10.4323 18.2455 10.2203 18.3333 9.99932 18.3333C9.77831 18.3333 9.56635 18.2455 9.41007 18.0893C9.25379 17.933 9.16599 17.721 9.16599 17.5V16.4567C9.16608 16.2717 9.10464 16.092 8.99133 15.9458C8.87802 15.7996 8.7193 15.6952 8.54016 15.6492C7.51378 15.3831 6.5796 14.8416 5.83849 14.0833C5.70893 13.9513 5.53911 13.8661 5.35579 13.8412C5.17247 13.8163 4.98608 13.8531 4.82599 13.9458L3.92266 14.4683C3.82785 14.5239 3.72298 14.5602 3.6141 14.5751C3.50521 14.59 3.39445 14.5832 3.2882 14.5551C3.18195 14.527 3.08231 14.4782 2.99501 14.4114C2.90771 14.3446 2.83447 14.2613 2.77952 14.1661C2.72457 14.0709 2.68899 13.9658 2.67482 13.8568C2.66066 13.7479 2.66819 13.6372 2.69698 13.5311C2.72578 13.425 2.77527 13.3257 2.8426 13.2389C2.90994 13.152 2.99379 13.0793 3.08932 13.025L3.99266 12.5033C4.15262 12.411 4.27739 12.2682 4.34737 12.0973C4.41736 11.9264 4.4286 11.7371 4.37932 11.5592C4.09712 10.5366 4.09712 9.45672 4.37932 8.43417C4.42771 8.25657 4.41594 8.06795 4.34584 7.89774C4.27574 7.72754 4.15125 7.58534 3.99182 7.49333L3.08849 6.97167C2.89698 6.86116 2.75722 6.6791 2.69994 6.46555C2.64266 6.25199 2.67257 6.02442 2.78307 5.83292C2.89358 5.64141 3.07564 5.50164 3.2892 5.44437C3.50275 5.38709 3.73032 5.41699 3.92182 5.5275L4.82682 6.05083C4.98647 6.14376 5.17248 6.18101 5.3556 6.15672C5.53872 6.13244 5.70858 6.048 5.83849 5.91667C6.58023 5.15945 7.51468 4.61918 8.54099 4.35417C8.72068 4.30797 8.87982 4.20313 8.99319 4.05625C9.10655 3.90938 9.16766 3.72887 9.16682 3.54333V2.5C9.16682 2.27899 9.25462 2.06702 9.4109 1.91074C9.56718 1.75446 9.77914 1.66667 10.0002 1.66667C10.2212 1.66667 10.4331 1.75446 10.5894 1.91074C10.7457 2.06702 10.8335 2.27899 10.8335 2.5V3.54333C10.8334 3.7283 10.8948 3.90804 11.0082 4.05423C11.1215 4.20043 11.2802 4.30478 11.4593 4.35083C12.486 4.61679 13.4205 5.15824 14.1618 5.91667C14.2914 6.04872 14.4612 6.13391 14.6445 6.15881C14.8278 6.1837 15.0142 6.14689 15.1743 6.05417L16.0777 5.53167C16.1725 5.47609 16.2773 5.43981 16.3862 5.42492C16.4951 5.41003 16.6059 5.41683 16.7121 5.44492C16.8184 5.47301 16.918 5.52184 17.0053 5.58859C17.0926 5.65535 17.1658 5.73872 17.2208 5.83389C17.2757 5.92907 17.3113 6.03417 17.3255 6.14316C17.3397 6.25214 17.3321 6.36285 17.3033 6.46891C17.2745 6.57497 17.2251 6.67429 17.1577 6.76114C17.0904 6.848 17.0065 6.92068 16.911 6.975L16.0077 7.49667C15.8485 7.58892 15.7244 7.73123 15.6546 7.90141C15.5848 8.07159 15.5733 8.26008 15.6218 8.4375V8.43667Z" fill="#292929"/>
</g>
<defs>
<clipPath id="clip0_26_203">
<rect width="20" height="20" fill="white"/>
</clipPath>
</defs>
</svg>
