<svg width="24" height="24" viewBox="0 0 24 24" fill="none" xmlns="http://www.w3.org/2000/svg">
<path d="M10.4801 19.0001C10.2178 18.999 9.96637 18.8948 9.7801 18.7101L5.1901 14.1201C4.6283 13.5576 4.31274 12.7951 4.31274 12.0001C4.31274 11.2051 4.6283 10.4426 5.1901 9.88006L9.7801 5.29006C9.96747 5.10381 10.2209 4.99927 10.4851 4.99927C10.7493 4.99927 11.0027 5.10381 11.1901 5.29006C11.2838 5.38302 11.3582 5.49362 11.409 5.61548C11.4598 5.73734 11.4859 5.86805 11.4859 6.00006C11.4859 6.13207 11.4598 6.26278 11.409 6.38464C11.3582 6.5065 11.2838 6.6171 11.1901 6.71006L6.6001 11.2901C6.50638 11.383 6.43198 11.4936 6.38121 11.6155C6.33044 11.7373 6.30431 11.868 6.30431 12.0001C6.30431 12.1321 6.33044 12.2628 6.38121 12.3846C6.43198 12.5065 6.50638 12.6171 6.6001 12.7101L11.1901 17.2901C11.2838 17.383 11.3582 17.4936 11.409 17.6155C11.4598 17.7373 11.4859 17.868 11.4859 18.0001C11.4859 18.1321 11.4598 18.2628 11.409 18.3846C11.3582 18.5065 11.2838 18.6171 11.1901 18.7101C11.0967 18.8027 10.9858 18.8761 10.864 18.9258C10.7422 18.9756 10.6117 19.0008 10.4801 19.0001Z" fill="white"/>
<path d="M17.4799 19.0001C17.2176 18.999 16.9662 18.8948 16.7799 18.7101L10.7799 12.7101C10.6862 12.6171 10.6118 12.5065 10.561 12.3846C10.5103 12.2628 10.4841 12.1321 10.4841 12.0001C10.4841 11.868 10.5103 11.7373 10.561 11.6155C10.6118 11.4936 10.6862 11.383 10.7799 11.2901L16.7799 5.29006C16.9673 5.10381 17.2207 4.99927 17.4849 4.99927C17.7491 4.99927 18.0026 5.10381 18.1899 5.29006C18.2836 5.38302 18.358 5.49362 18.4088 5.61548C18.4596 5.73734 18.4857 5.86805 18.4857 6.00006C18.4857 6.13207 18.4596 6.26278 18.4088 6.38464C18.358 6.5065 18.2836 6.6171 18.1899 6.71006L12.8999 12.0001L18.1899 17.2901C18.2836 17.383 18.358 17.4936 18.4088 17.6155C18.4596 17.7373 18.4857 17.868 18.4857 18.0001C18.4857 18.1321 18.4596 18.2628 18.4088 18.3846C18.358 18.5065 18.2836 18.6171 18.1899 18.7101C18.0965 18.8027 17.9857 18.8761 17.8638 18.9258C17.742 18.9756 17.6115 19.0008 17.4799 19.0001Z" fill="white"/>
</svg>
