<svg version="1.1" id="Layer_1" fill='#babdb6' xmlns="http://www.w3.org/2000/svg" x="0" y="0" viewBox="0 0 512 512" xml:space="preserve" class="icon icon-sm align-text-top text-muted cursor-pointer"><path d="M317.1 147.5c-15.1-13.8-35.5-20.8-60.5-20.8-23.7 0-43.1 6.5-57.7 19.4-14.6 12.9-23.5 31.5-26.4 55.5l-.6 4.9 40.4 4.8.7-4.6c2.5-15.8 7.7-27.5 15.4-34.7 7.7-7.2 17.1-10.7 28.7-10.7 12 0 21.9 3.9 30.1 11.9 8.2 8 12.2 16.9 12.2 27.3 0 5.6-1.3 10.7-4 15.4-2.8 4.9-9.3 11.9-19.3 20.7-10.7 9.4-17.9 16.5-22.1 21.5-5.8 7-10 14-12.6 20.8-3.5 9.1-5.3 19.9-5.3 32.3 0 2.1.1 5.1.2 9l.1 4.7h38.4l.1-4.8c.3-14.3 1.4-21.4 2.3-24.7 1.3-4.7 3.2-8.8 5.9-12.5 2.8-3.8 9-10 18.5-18.4 15.1-13.4 25.1-24.6 30.4-34.2 5.4-9.7 8.1-20.4 8.1-31.9 0-19.9-7.7-37-23-50.9zM256.3 385.3c12.1 0 22-9.8 22-22 0-12.1-9.8-22-22-22-12.1 0-22 9.8-22 22s9.8 22 22 22z"></path><path d="M437.4 74.6C388.9 26.1 324.5-.5 256-.5S123.1 26.2 74.6 74.6C26.1 123.1-.5 187.5-.5 256s26.7 132.9 75.1 181.4c48.5 48.5 112.9 75.1 181.4 75.1s132.9-26.7 181.4-75.1c48.5-48.5 75.1-112.9 75.1-181.4s-26.6-132.9-75.1-181.4zm-22.6 340.2c-42.4 42.4-98.8 65.8-158.8 65.8s-116.4-23.4-158.8-65.8C54.8 372.4 31.5 316 31.5 256S54.8 139.6 97.2 97.2C139.6 54.8 196 31.5 256 31.5s116.4 23.4 158.8 65.8c42.4 42.4 65.8 98.8 65.8 158.8s-23.4 116.3-65.8 158.7z"></path></svg>