<svg width="14" height="14" viewBox="0 0 14 14" fill="none" xmlns="http://www.w3.org/2000/svg">
<g clip-path="url(#clip0_214_70)">
<path d="M10.4967 1.33352C9.78465 0.697416 8.91266 0.267523 7.97452 0.0901011C7.03638 -0.087321 6.06762 -0.00555463 5.1725 0.326601C4.27737 0.658756 3.48976 1.22872 2.89445 1.97517C2.29913 2.72161 1.91863 3.61626 1.79391 4.56285C1.6819 5.39284 1.77148 6.23761 2.05508 7.02565C2.33868 7.81369 2.80794 8.52182 3.42316 9.0901C3.80361 9.42373 4.11061 9.83275 4.32469 10.2912C4.53878 10.7497 4.65529 11.2477 4.66683 11.7536V11.8475C4.66745 12.4182 4.89443 12.9653 5.29796 13.3689C5.7015 13.7724 6.24864 13.9994 6.81933 14H7.181C7.75168 13.9994 8.29882 13.7724 8.70236 13.3689C9.1059 12.9653 9.33288 12.4182 9.3335 11.8475V11.5273C9.34223 11.0801 9.44745 10.6401 9.64196 10.2374C9.83648 9.8347 10.1157 9.47875 10.4605 9.19393C11.0197 8.70419 11.4684 8.10122 11.777 7.42496C12.0855 6.74871 12.2468 6.0146 12.2502 5.27129C12.2537 4.52798 12.0991 3.79242 11.7968 3.11336C11.4945 2.43429 11.0513 1.82721 10.4967 1.33235V1.33352ZM7.181 12.8333H6.81933C6.55796 12.833 6.30739 12.7291 6.12258 12.5443C5.93777 12.3594 5.8338 12.1089 5.8335 11.8475C5.8335 11.8475 5.82941 11.6958 5.82883 11.6667H8.16683V11.8475C8.16652 12.1089 8.06256 12.3594 7.87774 12.5443C7.69293 12.7291 7.44236 12.833 7.181 12.8333V12.8333ZM9.68933 8.31777C9.02516 8.89383 8.54551 9.65287 8.31033 10.5H7.5835V6.30935C7.92353 6.18913 8.21811 5.9668 8.42694 5.67276C8.63578 5.37872 8.74867 5.02733 8.75016 4.66668C8.75016 4.51197 8.6887 4.3636 8.57931 4.2542C8.46991 4.14481 8.32154 4.08335 8.16683 4.08335C8.01212 4.08335 7.86375 4.14481 7.75435 4.2542C7.64495 4.3636 7.5835 4.51197 7.5835 4.66668C7.5835 4.82139 7.52204 4.96976 7.41264 5.07916C7.30324 5.18856 7.15487 5.25002 7.00016 5.25002C6.84545 5.25002 6.69708 5.18856 6.58768 5.07916C6.47829 4.96976 6.41683 4.82139 6.41683 4.66668C6.41683 4.51197 6.35537 4.3636 6.24597 4.2542C6.13658 4.14481 5.9882 4.08335 5.8335 4.08335C5.67879 4.08335 5.53041 4.14481 5.42102 4.2542C5.31162 4.3636 5.25016 4.51197 5.25016 4.66668C5.25166 5.02733 5.36454 5.37872 5.57338 5.67276C5.78222 5.9668 6.0768 6.18913 6.41683 6.30935V10.5H5.64566C5.38257 9.63039 4.88915 8.84812 4.21766 8.2361C3.64772 7.70503 3.24158 7.02201 3.04719 6.26763C2.85279 5.51326 2.87824 4.71902 3.12053 3.97864C3.36283 3.23826 3.81186 2.58264 4.41463 2.08914C5.01741 1.59565 5.74877 1.28489 6.52241 1.19352C6.68279 1.17561 6.84404 1.16665 7.00541 1.16668C8.00733 1.1637 8.97456 1.53338 9.71908 2.20385C10.1506 2.58861 10.4953 3.0607 10.7305 3.58881C10.9658 4.11693 11.086 4.689 11.0834 5.26712C11.0807 5.84524 10.9552 6.41619 10.7152 6.94212C10.4752 7.46806 10.1261 7.93697 9.69108 8.31777H9.68933Z" fill="#1CC8EE"/>
</g>
<defs>
<clipPath id="clip0_214_70">
<rect width="14" height="14" fill="white"/>
</clipPath>
</defs>
</svg>
