<svg width="24" height="24" viewBox="0 0 24 24" fill="none" xmlns="http://www.w3.org/2000/svg">
<path d="M14.5001 13.0004C14.2034 13.0004 13.9134 12.9124 13.6668 12.7476C13.4201 12.5828 13.2278 12.3485 13.1143 12.0744C13.0008 11.8004 12.971 11.4988 13.0289 11.2078C13.0868 10.9168 13.2297 10.6495 13.4394 10.4398C13.6492 10.23 13.9165 10.0871 14.2075 10.0292C14.4984 9.97137 14.8 10.0011 15.0741 10.1146C15.3482 10.2281 15.5825 10.4204 15.7473 10.6671C15.9121 10.9137 16.0001 11.2038 16.0001 11.5004C16.0001 11.8982 15.8421 12.2798 15.5608 12.5611C15.2795 12.8424 14.8979 13.0004 14.5001 13.0004ZM21.8511 8.27442C21.4496 5.95452 20.2405 3.8514 18.4377 2.33717C16.6348 0.822939 14.3545 -0.00479462 12.0001 0.000421229C5.1001 0.000421229 3.1241 4.67442 1.8191 7.76742C1.55449 8.64257 1.10464 9.45053 0.500104 10.1364C0.319513 10.2417 0.176474 10.401 0.091097 10.5919C0.0057198 10.7827 -0.0177015 10.9955 0.0241261 11.2003C0.0659537 11.4051 0.170926 11.5917 0.324286 11.7338C0.477645 11.8759 0.671678 11.9663 0.879104 11.9924C3.35091 12.2003 5.83693 11.8235 8.1361 10.8924C8.00925 11.1735 7.97214 11.4869 8.02982 11.7899C8.0875 12.0929 8.23717 12.3707 8.45845 12.5856C8.67973 12.8004 8.96186 12.9418 9.2664 12.9905C9.57095 13.0393 9.88311 12.9929 10.1604 12.8578C10.4376 12.7227 10.6665 12.5055 10.8158 12.2356C10.9652 11.9657 11.0277 11.6564 10.9948 11.3497C10.962 11.0431 10.8355 10.754 10.6324 10.5218C10.4294 10.2897 10.1597 10.1258 9.8601 10.0524C11.8247 8.95186 13.5181 7.42556 14.8161 5.58542C14.8985 5.47903 14.9585 5.35711 14.9927 5.22697C15.0268 5.09682 15.0343 4.96113 15.0148 4.828C14.9953 4.69488 14.9491 4.56707 14.879 4.45222C14.8089 4.33738 14.7163 4.23786 14.6068 4.15963C14.4974 4.0814 14.3732 4.02606 14.2419 3.99694C14.1105 3.96781 13.9746 3.9655 13.8423 3.99012C13.7101 4.01475 13.5841 4.06582 13.4721 4.14028C13.36 4.21473 13.2641 4.31103 13.1901 4.42342C12.0239 6.06527 10.5016 7.42217 8.73701 8.39262C6.9724 9.36306 5.01119 9.92194 3.0001 10.0274C3.2271 9.57442 3.4381 9.07142 3.6621 8.54442C4.8921 5.62842 6.4231 2.00042 12.0001 2.00042C13.9759 1.9957 15.8832 2.72432 17.3526 4.04521C18.8221 5.3661 19.749 7.18526 19.9541 9.15042C19.977 9.36529 20.0689 9.56695 20.216 9.72523C20.3631 9.88351 20.5575 9.98988 20.7701 10.0284C21.1344 10.0997 21.4594 10.3035 21.6822 10.6005C21.9049 10.8975 22.0096 11.2665 21.976 11.6362C21.9424 12.006 21.7729 12.3501 21.5003 12.6021C21.2277 12.8541 20.8713 12.996 20.5001 13.0004C20.4155 12.9981 20.3313 12.989 20.2481 12.9734C20.0149 12.9309 19.7741 12.9731 19.5693 13.0925C19.3645 13.2119 19.2091 13.4005 19.1311 13.6244C18.2151 16.2214 15.1321 19.0004 12.0001 19.0004C9.1001 19.0004 6.4001 16.7174 5.2341 14.4614C5.11211 14.2259 4.90155 14.0485 4.64875 13.9682C4.39595 13.888 4.12162 13.9114 3.8861 14.0334C3.65059 14.1554 3.47319 14.366 3.39292 14.6188C3.31266 14.8716 3.3361 15.1459 3.4581 15.3814C4.49452 17.3153 6.07314 18.9043 8.0001 19.9534V23.0004C8.0001 23.2656 8.10546 23.52 8.293 23.7075C8.48053 23.8951 8.73489 24.0004 9.00011 24.0004C9.26532 24.0004 9.51968 23.8951 9.70721 23.7075C9.89475 23.52 10.0001 23.2656 10.0001 23.0004V20.7384C11.3102 21.0904 12.69 21.0904 14.0001 20.7384V23.0004C14.0001 23.2656 14.1055 23.52 14.293 23.7075C14.4805 23.8951 14.7349 24.0004 15.0001 24.0004C15.2653 24.0004 15.5197 23.8951 15.7072 23.7075C15.8947 23.52 16.0001 23.2656 16.0001 23.0004V19.9544C18.0642 18.8447 19.7216 17.1069 20.7321 14.9924C21.5179 14.9388 22.2627 14.6217 22.8459 14.0924C23.4292 13.5631 23.8169 12.8525 23.9463 12.0756C24.0757 11.2987 23.9393 10.5008 23.5591 9.81103C23.1789 9.12124 22.5771 8.57986 21.8511 8.27442V8.27442Z" fill="white"/>
</svg>
