<svg width="46" height="46" viewBox="0 0 46 46" fill="none" xmlns="http://www.w3.org/2000/svg">
<g clip-path="url(#clip0_146_423)">
<path d="M23 22.9998C25.2745 22.9998 27.4979 22.3254 29.3891 21.0617C31.2802 19.7981 32.7542 18.002 33.6246 15.9007C34.495 13.7993 34.7228 11.4871 34.279 9.25628C33.8353 7.0255 32.74 4.9764 31.1317 3.36809C29.5234 1.75979 27.4743 0.664521 25.2435 0.220791C23.0128 -0.222939 20.7005 0.00479968 18.5991 0.875207C16.4978 1.74562 14.7017 3.2196 13.4381 5.11076C12.1745 7.00193 11.5 9.22534 11.5 11.4998C11.503 14.5489 12.7156 17.4722 14.8716 19.6282C17.0276 21.7842 19.9509 22.9968 23 22.9998ZM23 3.83316C24.5163 3.83316 25.9986 4.2828 27.2594 5.12522C28.5201 5.96765 29.5028 7.16502 30.0831 8.56592C30.6634 9.96682 30.8152 11.5083 30.5194 12.9955C30.2235 14.4827 29.4934 15.8488 28.4212 16.921C27.349 17.9932 25.9829 18.7234 24.4957 19.0192C23.0085 19.315 21.467 19.1632 20.0661 18.5829C18.6652 18.0026 17.4678 17.02 16.6254 15.7592C15.783 14.4984 15.3333 13.0161 15.3333 11.4998C15.3333 9.4665 16.1411 7.51645 17.5788 6.07867C19.0166 4.64089 20.9667 3.83316 23 3.83316V3.83316Z" fill="#999999"/>
<path d="M23 26.8347C18.4266 26.8397 14.0419 28.6588 10.808 31.8927C7.57411 35.1266 5.75507 39.5112 5.75 44.0847C5.75 44.593 5.95193 45.0805 6.31138 45.4399C6.67082 45.7994 7.15834 46.0013 7.66667 46.0013C8.175 46.0013 8.66251 45.7994 9.02195 45.4399C9.3814 45.0805 9.58333 44.593 9.58333 44.0847C9.58333 40.5263 10.9969 37.1138 13.513 34.5976C16.0291 32.0815 19.4417 30.668 23 30.668C26.5583 30.668 29.9709 32.0815 32.487 34.5976C35.0031 37.1138 36.4167 40.5263 36.4167 44.0847C36.4167 44.593 36.6186 45.0805 36.978 45.4399C37.3375 45.7994 37.825 46.0013 38.3333 46.0013C38.8417 46.0013 39.3292 45.7994 39.6886 45.4399C40.0481 45.0805 40.25 44.593 40.25 44.0847C40.2449 39.5112 38.4259 35.1266 35.192 31.8927C31.9581 28.6588 27.5734 26.8397 23 26.8347V26.8347Z" fill="#999999"/>
</g>
<defs>
<clipPath id="clip0_146_423">
<rect width="46" height="46" fill="white"/>
</clipPath>
</defs>
</svg>
