<svg width="17" height="17" viewBox="0 0 17 17" fill="none" xmlns="http://www.w3.org/2000/svg">
<path d="M16.6458 16.2917H15.5833V8.14583C15.9353 7.92002 16.2197 7.60342 16.4067 7.22942C16.5938 6.85541 16.6763 6.43787 16.6458 6.02083C16.643 5.96573 16.6298 5.91166 16.6069 5.86146C14.5952 1.83458 14.875 2.60312 14.875 1.77083C14.875 1.30118 14.6884 0.850761 14.3563 0.518665C14.0242 0.186569 13.5738 0 13.1042 0L3.89583 0C3.42618 0 2.97576 0.186569 2.64367 0.518665C2.31157 0.850761 2.125 1.30118 2.125 1.77083V2.39417C0.315208 6.02083 0.354167 5.88271 0.354167 6.02083C0.322879 6.43797 0.405139 6.85579 0.592212 7.22994C0.779284 7.60408 1.06419 7.92058 1.41667 8.14583V16.2917H0.354167C0.260236 16.2917 0.170152 16.329 0.103733 16.3954C0.0373139 16.4618 0 16.5519 0 16.6458C0 16.7398 0.0373139 16.8298 0.103733 16.8963C0.170152 16.9627 0.260236 17 0.354167 17H16.6458C16.7398 17 16.8298 16.9627 16.8963 16.8963C16.9627 16.8298 17 16.7398 17 16.6458C17 16.5519 16.9627 16.4618 16.8963 16.3954C16.8298 16.329 16.7398 16.2917 16.6458 16.2917ZM14.3438 7.79167C13.95 7.7941 13.5693 7.65071 13.2751 7.38913C12.9808 7.12755 12.7937 6.7663 12.75 6.375H15.9375C15.8938 6.7663 15.7067 7.12755 15.4124 7.38913C15.1182 7.65071 14.7375 7.7941 14.3438 7.79167ZM5.60292 2.83333H8.14583V5.66667H5.03625L5.60292 2.83333ZM11.3971 2.83333L11.9637 5.66667H8.85417V2.83333H11.3971ZM8.14583 6.375C8.14583 6.79769 7.97792 7.20307 7.67903 7.50195C7.38015 7.80084 6.97477 7.96875 6.55208 7.96875C6.12939 7.96875 5.72402 7.80084 5.42513 7.50195C5.12625 7.20307 4.95833 6.79769 4.95833 6.375H8.14583ZM12.0417 6.375C12.0417 6.79769 11.8738 7.20307 11.5749 7.50195C11.276 7.80084 10.8706 7.96875 10.4479 7.96875C10.0252 7.96875 9.61985 7.80084 9.32096 7.50195C9.02208 7.20307 8.85417 6.79769 8.85417 6.375H12.0417ZM12.6969 5.66667L12.1302 2.83333H14.3119L15.7285 5.66667H12.6969ZM2.83333 1.77083C2.83333 1.48904 2.94527 1.21879 3.14453 1.01953C3.34379 0.820275 3.61404 0.708333 3.89583 0.708333H13.1042C13.386 0.708333 13.6562 0.820275 13.8555 1.01953C14.0547 1.21879 14.1667 1.48904 14.1667 1.77083V2.125H2.83333V1.77083ZM2.69875 2.83333H4.88042L4.31375 5.66667H1.28208L2.69875 2.83333ZM4.25 6.375C4.25 6.79769 4.08209 7.20307 3.7832 7.50195C3.48432 7.80084 3.07894 7.96875 2.65625 7.96875C2.23356 7.96875 1.82818 7.80084 1.5293 7.50195C1.23041 7.20307 1.0625 6.79769 1.0625 6.375H4.25ZM2.125 8.43625C2.59078 8.54954 3.08034 8.51414 3.52498 8.33502C3.96961 8.15589 4.347 7.84204 4.60417 7.4375C4.81091 7.76754 5.09812 8.03964 5.43885 8.22826C5.77957 8.41688 6.16263 8.51583 6.55208 8.51583C6.94153 8.51583 7.3246 8.41688 7.66532 8.22826C8.00604 8.03964 8.29326 7.76754 8.5 7.4375C8.70674 7.76754 8.99396 8.03964 9.33468 8.22826C9.6754 8.41688 10.0585 8.51583 10.4479 8.51583C10.8374 8.51583 11.2204 8.41688 11.5612 8.22826C11.9019 8.03964 12.1891 7.76754 12.3958 7.4375C12.6501 7.84564 13.0264 8.16343 13.4714 8.34585C13.9163 8.52828 14.4074 8.5661 14.875 8.45396V16.2917H14.1667V10.2708C14.1667 10.1769 14.1294 10.0868 14.0629 10.0204C13.9965 9.95398 13.9064 9.91667 13.8125 9.91667H10.2708C10.1769 9.91667 10.0868 9.95398 10.0204 10.0204C9.95398 10.0868 9.91667 10.1769 9.91667 10.2708V16.2917H2.125V8.43625ZM10.625 16.2917V10.625H13.4583V16.2917H10.625Z" fill="white"/>
<path d="M6.802 14.582C6.802 14.774 6.754 14.958 6.658 15.134C6.562 15.306 6.42 15.45 6.232 15.566C6.048 15.682 5.826 15.748 5.566 15.764V16.25H5.242V15.764C4.878 15.732 4.582 15.616 4.354 15.416C4.126 15.212 4.01 14.954 4.006 14.642H4.588C4.604 14.81 4.666 14.956 4.774 15.08C4.886 15.204 5.042 15.282 5.242 15.314V13.814C4.974 13.746 4.758 13.676 4.594 13.604C4.43 13.532 4.29 13.42 4.174 13.268C4.058 13.116 4 12.912 4 12.656C4 12.332 4.112 12.064 4.336 11.852C4.564 11.64 4.866 11.522 5.242 11.498V11H5.566V11.498C5.906 11.526 6.18 11.636 6.388 11.828C6.596 12.016 6.716 12.262 6.748 12.566H6.166C6.146 12.426 6.084 12.3 5.98 12.188C5.876 12.072 5.738 11.996 5.566 11.96V13.424C5.83 13.492 6.044 13.562 6.208 13.634C6.376 13.702 6.516 13.812 6.628 13.964C6.744 14.116 6.802 14.322 6.802 14.582ZM4.558 12.626C4.558 12.822 4.616 12.972 4.732 13.076C4.848 13.18 5.018 13.266 5.242 13.334V11.948C5.034 11.968 4.868 12.036 4.744 12.152C4.62 12.264 4.558 12.422 4.558 12.626ZM5.566 15.32C5.782 15.296 5.95 15.218 6.07 15.086C6.194 14.954 6.256 14.796 6.256 14.612C6.256 14.416 6.196 14.266 6.076 14.162C5.956 14.054 5.786 13.968 5.566 13.904V15.32Z" fill="white"/>
</svg>
