<svg width="14" height="14" viewBox="0 0 14 14" fill="none" xmlns="http://www.w3.org/2000/svg">
<g clip-path="url(#clip0_32_75)">
<path d="M13.2493 2.37825C13.0852 2.18134 12.8797 2.02297 12.6476 1.91439C12.4154 1.80581 12.1621 1.74969 11.9058 1.75H2.4745L2.45 1.54525C2.39986 1.11966 2.19531 0.727261 1.87512 0.442445C1.55493 0.15763 1.14137 0.00019938 0.712833 0L0.583333 0C0.428624 0 0.280251 0.0614582 0.170854 0.170854C0.0614582 0.280251 0 0.428624 0 0.583333C0 0.738043 0.0614582 0.886416 0.170854 0.995812C0.280251 1.10521 0.428624 1.16667 0.583333 1.16667H0.712833C0.855711 1.16669 0.993613 1.21914 1.10038 1.31408C1.20715 1.40903 1.27537 1.53985 1.29208 1.68175L2.09475 8.50675C2.17808 9.21654 2.51911 9.87104 3.05311 10.346C3.58711 10.821 4.27692 11.0833 4.99158 11.0833H11.0833C11.238 11.0833 11.3864 11.0219 11.4958 10.9125C11.6052 10.8031 11.6667 10.6547 11.6667 10.5C11.6667 10.3453 11.6052 10.1969 11.4958 10.0875C11.3864 9.97812 11.238 9.91667 11.0833 9.91667H4.99158C4.63053 9.91565 4.27863 9.80299 3.98413 9.59412C3.68962 9.38525 3.46693 9.0904 3.34658 8.75H10.2999C10.9838 8.75004 11.6459 8.5098 12.1706 8.07126C12.6953 7.63271 13.0492 7.02374 13.1705 6.35075L13.6284 3.81092C13.6741 3.55892 13.6639 3.29996 13.5983 3.05237C13.5328 2.80479 13.4136 2.57465 13.2493 2.37825ZM12.4833 3.60383L12.0248 6.14367C11.952 6.54792 11.7393 6.91366 11.4239 7.17687C11.1086 7.44007 10.7107 7.58396 10.2999 7.58333H3.16108L2.61217 2.91667H11.9058C11.9915 2.91616 12.0763 2.93453 12.1541 2.97048C12.2318 3.00644 12.3008 3.05909 12.3559 3.12469C12.411 3.19029 12.451 3.26723 12.4731 3.35005C12.4951 3.43286 12.4986 3.51951 12.4833 3.60383Z" fill="#7C7C7C"/>
<path d="M4.08341 14.0003C4.72774 14.0003 5.25008 13.478 5.25008 12.8337C5.25008 12.1893 4.72774 11.667 4.08341 11.667C3.43908 11.667 2.91675 12.1893 2.91675 12.8337C2.91675 13.478 3.43908 14.0003 4.08341 14.0003Z" fill="#7C7C7C"/>
<path d="M9.91666 14.0003C10.561 14.0003 11.0833 13.478 11.0833 12.8337C11.0833 12.1893 10.561 11.667 9.91666 11.667C9.27233 11.667 8.75 12.1893 8.75 12.8337C8.75 13.478 9.27233 14.0003 9.91666 14.0003Z" fill="#7C7C7C"/>
</g>
<defs>
<clipPath id="clip0_32_75">
<rect width="14" height="14" fill="white"/>
</clipPath>
</defs>
</svg>
